<ttFont>
    <TTGlyph name=".notdef" xMin="50" yMin="-283" xMax="702" yMax="946">
      <contour>
        <pt x="50" y="-283" on="1"/>
        <pt x="50" y="946" on="1"/>
        <pt x="702" y="946" on="1"/>
        <pt x="702" y="-283" on="1"/>
      </contour>
      <contour>
        <pt x="120" y="-213" on="1"/>
        <pt x="632" y="-213" on="1"/>
        <pt x="632" y="875" on="1"/>
        <pt x="120" y="875" on="1"/>
      </contour>
      <contour>
        <pt x="348" y="142" on="1"/>
        <pt x="348" y="207" on="0"/>
        <pt x="385" y="291" on="0"/>
        <pt x="430" y="355" on="0"/>
        <pt x="467" y="415" on="0"/>
        <pt x="467" y="456" on="1"/>
        <pt x="467" y="498" on="0"/>
        <pt x="425" y="551" on="0"/>
        <pt x="383" y="551" on="1"/>
        <pt x="348" y="551" on="0"/>
        <pt x="300" y="506" on="0"/>
        <pt x="300" y="472" on="1"/>
        <pt x="300" y="434" on="0"/>
        <pt x="323" y="401" on="0"/>
        <pt x="334" y="396" on="1"/>
        <pt x="334" y="390" on="1"/>
        <pt x="320" y="390" on="0"/>
        <pt x="285" y="396" on="0"/>
        <pt x="254" y="415" on="0"/>
        <pt x="233" y="451" on="0"/>
        <pt x="233" y="482" on="1"/>
        <pt x="233" y="527" on="0"/>
        <pt x="276" y="564" on="0"/>
        <pt x="311" y="564" on="1"/>
        <pt x="311" y="574" on="0"/>
        <pt x="323" y="586" on="0"/>
        <pt x="341" y="592" on="0"/>
        <pt x="362" y="593" on="0"/>
        <pt x="371" y="593" on="1"/>
        <pt x="397" y="593" on="0"/>
        <pt x="458" y="582" on="0"/>
        <pt x="510" y="552" on="0"/>
        <pt x="544" y="498" on="0"/>
        <pt x="544" y="455" on="1"/>
        <pt x="544" y="424" on="0"/>
        <pt x="522" y="376" on="0"/>
        <pt x="490" y="333" on="0"/>
        <pt x="451" y="291" on="0"/>
        <pt x="419" y="242" on="0"/>
        <pt x="397" y="182" on="0"/>
        <pt x="397" y="142" on="1"/>
      </contour>
      <contour>
        <pt x="329" y="27" on="1"/>
        <pt x="329" y="46" on="0"/>
        <pt x="355" y="72" on="0"/>
        <pt x="373" y="72" on="1"/>
        <pt x="392" y="72" on="0"/>
        <pt x="417" y="46" on="0"/>
        <pt x="417" y="27" on="1"/>
        <pt x="417" y="8" on="0"/>
        <pt x="392" y="-18" on="0"/>
        <pt x="373" y="-18" on="1"/>
        <pt x="355" y="-18" on="0"/>
        <pt x="329" y="8" on="0"/>
      </contour>
    </TTGlyph>
    <TTGlyph name="A" xMin="-17" yMin="-56" xMax="824" yMax="750">
      <contour>
        <pt x="823" y="-56" on="1"/>
        <pt x="766" y="-36" on="0"/>
        <pt x="655" y="11" on="0"/>
        <pt x="601" y="43" on="1"/>
        <pt x="588" y="30" on="0"/>
        <pt x="568" y="12" on="0"/>
        <pt x="546" y="-1" on="0"/>
        <pt x="521" y="-10" on="0"/>
        <pt x="504" y="-14" on="1"/>
        <pt x="514" y="-2" on="0"/>
        <pt x="522" y="32" on="0"/>
        <pt x="522" y="50" on="1"/>
        <pt x="522" y="79" on="0"/>
        <pt x="507" y="134" on="0"/>
        <pt x="501" y="153" on="1"/>
        <pt x="477" y="229" on="1"/>
        <pt x="448" y="191" on="0"/>
        <pt x="391" y="99" on="0"/>
        <pt x="370" y="57" on="1"/>
        <pt x="353" y="81" on="0"/>
        <pt x="296" y="169" on="0"/>
        <pt x="261" y="220" on="1"/>
        <pt x="245" y="168" on="1"/>
        <pt x="239" y="148" on="0"/>
        <pt x="232" y="108" on="0"/>
        <pt x="232" y="87" on="1"/>
        <pt x="232" y="56" on="0"/>
        <pt x="248" y="-4" on="0"/>
        <pt x="266" y="-30" on="1"/>
        <pt x="246" y="-23" on="0"/>
        <pt x="219" y="-9" on="0"/>
        <pt x="196" y="9" on="0"/>
        <pt x="173" y="30" on="0"/>
        <pt x="158" y="44" on="1"/>
        <pt x="116" y="4" on="0"/>
        <pt x="34" y="-29" on="0"/>
        <pt x="-17" y="-30" on="1"/>
        <pt x="2" y="-27" on="0"/>
        <pt x="44" y="16" on="0"/>
        <pt x="84" y="85" on="0"/>
        <pt x="121" y="173" on="0"/>
        <pt x="135" y="222" on="1"/>
        <pt x="167" y="334" on="1"/>
        <pt x="132" y="371" on="0"/>
        <pt x="50" y="424" on="0"/>
        <pt x="17" y="424" on="1"/>
        <pt x="15" y="424" on="0"/>
        <pt x="9" y="424" on="0"/>
        <pt x="0" y="423" on="1"/>
        <pt x="-1" y="426" on="1"/>
        <pt x="42" y="448" on="0"/>
        <pt x="79" y="448" on="1"/>
        <pt x="104" y="448" on="0"/>
        <pt x="156" y="429" on="0"/>
        <pt x="190" y="410" on="1"/>
        <pt x="244" y="595" on="1"/>
        <pt x="249" y="612" on="0"/>
        <pt x="253" y="638" on="0"/>
        <pt x="253" y="646" on="1"/>
        <pt x="253" y="667" on="0"/>
        <pt x="228" y="685" on="0"/>
        <pt x="196" y="685" on="1"/>
        <pt x="176" y="685" on="0"/>
        <pt x="130" y="679" on="0"/>
        <pt x="98" y="673" on="1"/>
        <pt x="104" y="682" on="0"/>
        <pt x="150" y="706" on="0"/>
        <pt x="215" y="728" on="0"/>
        <pt x="290" y="743" on="0"/>
        <pt x="325" y="743" on="1"/>
        <pt x="351" y="743" on="0"/>
        <pt x="399" y="731" on="0"/>
        <pt x="411" y="716" on="1"/>
        <pt x="429" y="717" on="0"/>
        <pt x="471" y="725" on="0"/>
        <pt x="509" y="736" on="0"/>
        <pt x="539" y="747" on="0"/>
        <pt x="544" y="750" on="1"/>
        <pt x="530" y="730" on="0"/>
        <pt x="517" y="675" on="0"/>
        <pt x="517" y="643" on="1"/>
        <pt x="517" y="602" on="0"/>
        <pt x="535" y="513" on="0"/>
        <pt x="560" y="437" on="0"/>
        <pt x="588" y="383" on="0"/>
        <pt x="598" y="377" on="1"/>
        <pt x="598" y="318" on="0"/>
        <pt x="639" y="186" on="0"/>
        <pt x="704" y="66" on="0"/>
        <pt x="785" y="-29" on="0"/>
        <pt x="824" y="-53" on="1"/>
      </contour>
      <contour>
        <pt x="369" y="221" on="1"/>
        <pt x="386" y="244" on="0"/>
        <pt x="429" y="297" on="0"/>
        <pt x="447" y="323" on="1"/>
        <pt x="370" y="573" on="1"/>
        <pt x="291" y="315" on="1"/>
        <pt x="311" y="294" on="0"/>
        <pt x="352" y="242" on="0"/>
      </contour>
    </TTGlyph>
    <TTGlyph name="AE" xMin="-24" yMin="-73" xMax="897" yMax="762">
      <contour>
        <pt x="-2" y="384" on="1"/>
        <pt x="14" y="390" on="0"/>
        <pt x="53" y="399" on="0"/>
        <pt x="92" y="405" on="0"/>
        <pt x="126" y="408" on="0"/>
        <pt x="138" y="408" on="1"/>
        <pt x="154" y="408" on="0"/>
        <pt x="189" y="408" on="0"/>
        <pt x="207" y="407" on="1"/>
        <pt x="277" y="595" on="1"/>
        <pt x="282" y="609" on="0"/>
        <pt x="286" y="638" on="0"/>
        <pt x="286" y="649" on="1"/>
        <pt x="286" y="668" on="0"/>
        <pt x="244" y="685" on="0"/>
        <pt x="216" y="685" on="1"/>
        <pt x="184" y="685" on="0"/>
        <pt x="121" y="673" on="1"/>
        <pt x="126" y="681" on="0"/>
        <pt x="171" y="699" on="0"/>
        <pt x="235" y="714" on="0"/>
        <pt x="309" y="723" on="0"/>
        <pt x="344" y="723" on="1"/>
        <pt x="354" y="723" on="0"/>
        <pt x="382" y="722" on="0"/>
        <pt x="412" y="721" on="0"/>
        <pt x="441" y="717" on="0"/>
        <pt x="453" y="714" on="1"/>
        <pt x="514" y="717" on="0"/>
        <pt x="598" y="739" on="0"/>
        <pt x="631" y="762" on="1"/>
        <pt x="674" y="740" on="0"/>
        <pt x="736" y="721" on="0"/>
        <pt x="774" y="721" on="1"/>
        <pt x="820" y="721" on="0"/>
        <pt x="871" y="733" on="1"/>
        <pt x="871" y="699" on="0"/>
        <pt x="847" y="652" on="0"/>
        <pt x="811" y="622" on="0"/>
        <pt x="769" y="609" on="0"/>
        <pt x="750" y="609" on="1"/>
        <pt x="722" y="609" on="0"/>
        <pt x="678" y="633" on="0"/>
        <pt x="644" y="653" on="1"/>
        <pt x="633" y="643" on="0"/>
        <pt x="598" y="622" on="0"/>
        <pt x="582" y="611" on="1"/>
        <pt x="582" y="442" on="1"/>
        <pt x="596" y="440" on="0"/>
        <pt x="619" y="437" on="0"/>
        <pt x="629" y="437" on="1"/>
        <pt x="652" y="437" on="0"/>
        <pt x="685" y="453" on="0"/>
        <pt x="703" y="466" on="1"/>
        <pt x="722" y="449" on="0"/>
        <pt x="773" y="403" on="0"/>
        <pt x="805" y="387" on="1"/>
        <pt x="778" y="374" on="0"/>
        <pt x="726" y="330" on="0"/>
        <pt x="704" y="313" on="1"/>
        <pt x="692" y="324" on="0"/>
        <pt x="656" y="347" on="0"/>
        <pt x="633" y="347" on="1"/>
        <pt x="609" y="347" on="0"/>
        <pt x="585" y="340" on="1"/>
        <pt x="583" y="329" on="0"/>
        <pt x="580" y="300" on="0"/>
        <pt x="578" y="268" on="0"/>
        <pt x="577" y="239" on="0"/>
        <pt x="577" y="229" on="1"/>
        <pt x="577" y="206" on="0"/>
        <pt x="581" y="162" on="0"/>
        <pt x="585" y="136" on="1"/>
        <pt x="601" y="125" on="0"/>
        <pt x="645" y="91" on="0"/>
        <pt x="689" y="60" on="1"/>
        <pt x="691" y="62" on="0"/>
        <pt x="709" y="73" on="0"/>
        <pt x="729" y="84" on="0"/>
        <pt x="745" y="93" on="0"/>
        <pt x="745" y="93" on="1"/>
        <pt x="743" y="110" on="0"/>
        <pt x="737" y="149" on="0"/>
        <pt x="732" y="158" on="1"/>
        <pt x="753" y="177" on="0"/>
        <pt x="793" y="208" on="0"/>
        <pt x="832" y="234" on="0"/>
        <pt x="873" y="255" on="0"/>
        <pt x="897" y="265" on="1"/>
        <pt x="886" y="245" on="0"/>
        <pt x="875" y="178" on="0"/>
        <pt x="875" y="145" on="1"/>
        <pt x="875" y="118" on="0"/>
        <pt x="882" y="74" on="0"/>
        <pt x="887" y="64" on="1"/>
        <pt x="859" y="50" on="0"/>
        <pt x="814" y="27" on="0"/>
        <pt x="770" y="-1" on="0"/>
        <pt x="723" y="-42" on="0"/>
        <pt x="693" y="-73" on="1"/>
        <pt x="676" y="-60" on="0"/>
        <pt x="614" y="-25" on="0"/>
        <pt x="540" y="10" on="0"/>
        <pt x="461" y="43" on="0"/>
        <pt x="428" y="54" on="1"/>
        <pt x="430" y="78" on="0"/>
        <pt x="433" y="156" on="0"/>
        <pt x="434" y="205" on="1"/>
        <pt x="409" y="229" on="0"/>
        <pt x="346" y="276" on="0"/>
        <pt x="308" y="297" on="1"/>
        <pt x="258" y="168" on="1"/>
        <pt x="248" y="143" on="0"/>
        <pt x="237" y="95" on="0"/>
        <pt x="237" y="72" on="1"/>
        <pt x="237" y="47" on="0"/>
        <pt x="252" y="-3" on="0"/>
        <pt x="269" y="-30" on="1"/>
        <pt x="249" y="-23" on="0"/>
        <pt x="222" y="-9" on="0"/>
        <pt x="199" y="9" on="0"/>
        <pt x="176" y="30" on="0"/>
        <pt x="161" y="44" on="1"/>
        <pt x="116" y="4" on="0"/>
        <pt x="30" y="-29" on="0"/>
        <pt x="-24" y="-30" on="1"/>
        <pt x="-4" y="-28" on="0"/>
        <pt x="39" y="16" on="0"/>
        <pt x="81" y="86" on="0"/>
        <pt x="120" y="175" on="0"/>
        <pt x="138" y="222" on="1"/>
        <pt x="186" y="351" on="1"/>
        <pt x="141" y="366" on="0"/>
        <pt x="47" y="384" on="0"/>
      </contour>
      <contour>
        <pt x="344" y="392" on="1"/>
        <pt x="397" y="383" on="0"/>
        <pt x="434" y="364" on="1"/>
        <pt x="434" y="446" on="0"/>
        <pt x="434" y="569" on="0"/>
        <pt x="435" y="611" on="1"/>
        <pt x="433" y="623" on="1"/>
      </contour>
    </TTGlyph>
    <TTGlyph name="AEacute" xMin="-7" yMin="-73" xMax="914" yMax="944">
      <contour>
        <pt x="15" y="384" on="1"/>
        <pt x="31" y="390" on="0"/>
        <pt x="70" y="399" on="0"/>
        <pt x="109" y="405" on="0"/>
        <pt x="143" y="408" on="0"/>
        <pt x="155" y="408" on="1"/>
        <pt x="171" y="408" on="0"/>
        <pt x="206" y="408" on="0"/>
        <pt x="224" y="407" on="1"/>
        <pt x="294" y="595" on="1"/>
        <pt x="299" y="609" on="0"/>
        <pt x="303" y="638" on="0"/>
        <pt x="303" y="649" on="1"/>
        <pt x="303" y="668" on="0"/>
        <pt x="261" y="685" on="0"/>
        <pt x="233" y="685" on="1"/>
        <pt x="201" y="685" on="0"/>
        <pt x="138" y="673" on="1"/>
        <pt x="143" y="681" on="0"/>
        <pt x="188" y="699" on="0"/>
        <pt x="252" y="714" on="0"/>
        <pt x="326" y="723" on="0"/>
        <pt x="361" y="723" on="1"/>
        <pt x="371" y="723" on="0"/>
        <pt x="399" y="722" on="0"/>
        <pt x="429" y="721" on="0"/>
        <pt x="458" y="717" on="0"/>
        <pt x="470" y="714" on="1"/>
        <pt x="531" y="717" on="0"/>
        <pt x="615" y="739" on="0"/>
        <pt x="648" y="762" on="1"/>
        <pt x="691" y="740" on="0"/>
        <pt x="753" y="721" on="0"/>
        <pt x="791" y="721" on="1"/>
        <pt x="837" y="721" on="0"/>
        <pt x="888" y="733" on="1"/>
        <pt x="888" y="699" on="0"/>
        <pt x="864" y="652" on="0"/>
        <pt x="828" y="622" on="0"/>
        <pt x="786" y="609" on="0"/>
        <pt x="767" y="609" on="1"/>
        <pt x="739" y="609" on="0"/>
        <pt x="695" y="633" on="0"/>
        <pt x="661" y="653" on="1"/>
        <pt x="650" y="643" on="0"/>
        <pt x="615" y="622" on="0"/>
        <pt x="599" y="611" on="1"/>
        <pt x="599" y="442" on="1"/>
        <pt x="613" y="440" on="0"/>
        <pt x="636" y="437" on="0"/>
        <pt x="646" y="437" on="1"/>
        <pt x="669" y="437" on="0"/>
        <pt x="702" y="453" on="0"/>
        <pt x="720" y="466" on="1"/>
        <pt x="739" y="449" on="0"/>
        <pt x="790" y="403" on="0"/>
        <pt x="822" y="387" on="1"/>
        <pt x="795" y="374" on="0"/>
        <pt x="743" y="330" on="0"/>
        <pt x="721" y="313" on="1"/>
        <pt x="709" y="324" on="0"/>
        <pt x="673" y="347" on="0"/>
        <pt x="650" y="347" on="1"/>
        <pt x="626" y="347" on="0"/>
        <pt x="602" y="340" on="1"/>
        <pt x="600" y="329" on="0"/>
        <pt x="597" y="300" on="0"/>
        <pt x="595" y="268" on="0"/>
        <pt x="594" y="239" on="0"/>
        <pt x="594" y="229" on="1"/>
        <pt x="594" y="206" on="0"/>
        <pt x="598" y="162" on="0"/>
        <pt x="602" y="136" on="1"/>
        <pt x="618" y="125" on="0"/>
        <pt x="662" y="91" on="0"/>
        <pt x="706" y="60" on="1"/>
        <pt x="708" y="62" on="0"/>
        <pt x="726" y="73" on="0"/>
        <pt x="746" y="84" on="0"/>
        <pt x="762" y="93" on="0"/>
        <pt x="762" y="93" on="1"/>
        <pt x="760" y="110" on="0"/>
        <pt x="754" y="149" on="0"/>
        <pt x="749" y="158" on="1"/>
        <pt x="770" y="177" on="0"/>
        <pt x="810" y="208" on="0"/>
        <pt x="849" y="234" on="0"/>
        <pt x="890" y="255" on="0"/>
        <pt x="914" y="265" on="1"/>
        <pt x="903" y="245" on="0"/>
        <pt x="892" y="178" on="0"/>
        <pt x="892" y="145" on="1"/>
        <pt x="892" y="118" on="0"/>
        <pt x="899" y="74" on="0"/>
        <pt x="904" y="64" on="1"/>
        <pt x="876" y="50" on="0"/>
        <pt x="831" y="27" on="0"/>
        <pt x="787" y="-1" on="0"/>
        <pt x="740" y="-42" on="0"/>
        <pt x="710" y="-73" on="1"/>
        <pt x="693" y="-60" on="0"/>
        <pt x="631" y="-25" on="0"/>
        <pt x="557" y="10" on="0"/>
        <pt x="478" y="43" on="0"/>
        <pt x="445" y="54" on="1"/>
        <pt x="447" y="78" on="0"/>
        <pt x="450" y="156" on="0"/>
        <pt x="451" y="205" on="1"/>
        <pt x="426" y="229" on="0"/>
        <pt x="363" y="276" on="0"/>
        <pt x="325" y="297" on="1"/>
        <pt x="275" y="168" on="1"/>
        <pt x="265" y="143" on="0"/>
        <pt x="254" y="95" on="0"/>
        <pt x="254" y="72" on="1"/>
        <pt x="254" y="47" on="0"/>
        <pt x="269" y="-3" on="0"/>
        <pt x="286" y="-30" on="1"/>
        <pt x="266" y="-23" on="0"/>
        <pt x="239" y="-9" on="0"/>
        <pt x="216" y="9" on="0"/>
        <pt x="193" y="30" on="0"/>
        <pt x="178" y="44" on="1"/>
        <pt x="133" y="4" on="0"/>
        <pt x="47" y="-29" on="0"/>
        <pt x="-7" y="-30" on="1"/>
        <pt x="13" y="-28" on="0"/>
        <pt x="56" y="16" on="0"/>
        <pt x="98" y="86" on="0"/>
        <pt x="137" y="175" on="0"/>
        <pt x="155" y="222" on="1"/>
        <pt x="203" y="351" on="1"/>
        <pt x="158" y="366" on="0"/>
        <pt x="64" y="384" on="0"/>
      </contour>
      <contour>
        <pt x="361" y="392" on="1"/>
        <pt x="414" y="383" on="0"/>
        <pt x="451" y="364" on="1"/>
        <pt x="451" y="446" on="0"/>
        <pt x="451" y="569" on="0"/>
        <pt x="452" y="611" on="1"/>
        <pt x="450" y="623" on="1"/>
      </contour>
      <contour>
        <pt x="394" y="848" on="1"/>
        <pt x="406" y="855" on="0"/>
        <pt x="457" y="879" on="0"/>
        <pt x="515" y="906" on="0"/>
        <pt x="570" y="933" on="0"/>
        <pt x="587" y="944" on="1"/>
        <pt x="589" y="934" on="0"/>
        <pt x="601" y="902" on="0"/>
        <pt x="615" y="869" on="0"/>
        <pt x="629" y="840" on="0"/>
        <pt x="633" y="833" on="1"/>
        <pt x="622" y="832" on="0"/>
        <pt x="571" y="823" on="0"/>
        <pt x="507" y="811" on="0"/>
        <pt x="440" y="797" on="0"/>
        <pt x="415" y="790" on="1"/>
        <pt x="407" y="809" on="0"/>
        <pt x="402" y="831" on="0"/>
      </contour>
    </TTGlyph>
    <TTGlyph name="Aacute" xMin="-17" yMin="-56" xMax="824" yMax="943">
      <contour>
        <pt x="823" y="-56" on="1"/>
        <pt x="766" y="-36" on="0"/>
        <pt x="655" y="11" on="0"/>
        <pt x="601" y="43" on="1"/>
        <pt x="588" y="30" on="0"/>
        <pt x="568" y="12" on="0"/>
        <pt x="546" y="-1" on="0"/>
        <pt x="521" y="-10" on="0"/>
        <pt x="504" y="-14" on="1"/>
        <pt x="514" y="-2" on="0"/>
        <pt x="522" y="32" on="0"/>
        <pt x="522" y="50" on="1"/>
        <pt x="522" y="79" on="0"/>
        <pt x="507" y="134" on="0"/>
        <pt x="501" y="153" on="1"/>
        <pt x="477" y="229" on="1"/>
        <pt x="448" y="191" on="0"/>
        <pt x="391" y="99" on="0"/>
        <pt x="370" y="57" on="1"/>
        <pt x="353" y="81" on="0"/>
        <pt x="296" y="169" on="0"/>
        <pt x="261" y="220" on="1"/>
        <pt x="245" y="168" on="1"/>
        <pt x="239" y="148" on="0"/>
        <pt x="232" y="108" on="0"/>
        <pt x="232" y="87" on="1"/>
        <pt x="232" y="56" on="0"/>
        <pt x="248" y="-4" on="0"/>
        <pt x="266" y="-30" on="1"/>
        <pt x="246" y="-23" on="0"/>
        <pt x="219" y="-9" on="0"/>
        <pt x="196" y="9" on="0"/>
        <pt x="173" y="30" on="0"/>
        <pt x="158" y="44" on="1"/>
        <pt x="116" y="4" on="0"/>
        <pt x="34" y="-29" on="0"/>
        <pt x="-17" y="-30" on="1"/>
        <pt x="2" y="-27" on="0"/>
        <pt x="44" y="16" on="0"/>
        <pt x="84" y="85" on="0"/>
        <pt x="121" y="173" on="0"/>
        <pt x="135" y="222" on="1"/>
        <pt x="167" y="334" on="1"/>
        <pt x="132" y="371" on="0"/>
        <pt x="50" y="424" on="0"/>
        <pt x="17" y="424" on="1"/>
        <pt x="15" y="424" on="0"/>
        <pt x="9" y="424" on="0"/>
        <pt x="0" y="423" on="1"/>
        <pt x="-1" y="426" on="1"/>
        <pt x="42" y="448" on="0"/>
        <pt x="79" y="448" on="1"/>
        <pt x="104" y="448" on="0"/>
        <pt x="156" y="429" on="0"/>
        <pt x="190" y="410" on="1"/>
        <pt x="244" y="595" on="1"/>
        <pt x="249" y="612" on="0"/>
        <pt x="253" y="638" on="0"/>
        <pt x="253" y="646" on="1"/>
        <pt x="253" y="667" on="0"/>
        <pt x="228" y="685" on="0"/>
        <pt x="196" y="685" on="1"/>
        <pt x="176" y="685" on="0"/>
        <pt x="130" y="679" on="0"/>
        <pt x="98" y="673" on="1"/>
        <pt x="104" y="682" on="0"/>
        <pt x="150" y="706" on="0"/>
        <pt x="215" y="728" on="0"/>
        <pt x="290" y="743" on="0"/>
        <pt x="325" y="743" on="1"/>
        <pt x="351" y="743" on="0"/>
        <pt x="399" y="731" on="0"/>
        <pt x="411" y="716" on="1"/>
        <pt x="429" y="717" on="0"/>
        <pt x="471" y="725" on="0"/>
        <pt x="509" y="736" on="0"/>
        <pt x="539" y="747" on="0"/>
        <pt x="544" y="750" on="1"/>
        <pt x="530" y="730" on="0"/>
        <pt x="517" y="675" on="0"/>
        <pt x="517" y="643" on="1"/>
        <pt x="517" y="602" on="0"/>
        <pt x="535" y="513" on="0"/>
        <pt x="560" y="437" on="0"/>
        <pt x="588" y="383" on="0"/>
        <pt x="598" y="377" on="1"/>
        <pt x="598" y="318" on="0"/>
        <pt x="639" y="186" on="0"/>
        <pt x="704" y="66" on="0"/>
        <pt x="785" y="-29" on="0"/>
        <pt x="824" y="-53" on="1"/>
      </contour>
      <contour>
        <pt x="369" y="221" on="1"/>
        <pt x="386" y="244" on="0"/>
        <pt x="429" y="297" on="0"/>
        <pt x="447" y="323" on="1"/>
        <pt x="370" y="573" on="1"/>
        <pt x="291" y="315" on="1"/>
        <pt x="311" y="294" on="0"/>
        <pt x="352" y="242" on="0"/>
      </contour>
      <contour>
        <pt x="300" y="847" on="1"/>
        <pt x="312" y="854" on="0"/>
        <pt x="363" y="878" on="0"/>
        <pt x="421" y="905" on="0"/>
        <pt x="476" y="932" on="0"/>
        <pt x="493" y="943" on="1"/>
        <pt x="495" y="933" on="0"/>
        <pt x="507" y="901" on="0"/>
        <pt x="521" y="868" on="0"/>
        <pt x="535" y="839" on="0"/>
        <pt x="539" y="832" on="1"/>
        <pt x="528" y="831" on="0"/>
        <pt x="477" y="822" on="0"/>
        <pt x="413" y="810" on="0"/>
        <pt x="346" y="796" on="0"/>
        <pt x="321" y="789" on="1"/>
        <pt x="313" y="808" on="0"/>
        <pt x="308" y="830" on="0"/>
      </contour>
    </TTGlyph>
    <TTGlyph name="Abreve" xMin="-17" yMin="-56" xMax="824" yMax="933">
      <contour>
        <pt x="823" y="-56" on="1"/>
        <pt x="766" y="-36" on="0"/>
        <pt x="655" y="11" on="0"/>
        <pt x="601" y="43" on="1"/>
        <pt x="588" y="30" on="0"/>
        <pt x="568" y="12" on="0"/>
        <pt x="546" y="-1" on="0"/>
        <pt x="521" y="-10" on="0"/>
        <pt x="504" y="-14" on="1"/>
        <pt x="514" y="-2" on="0"/>
        <pt x="522" y="32" on="0"/>
        <pt x="522" y="50" on="1"/>
        <pt x="522" y="79" on="0"/>
        <pt x="507" y="134" on="0"/>
        <pt x="501" y="153" on="1"/>
        <pt x="477" y="229" on="1"/>
        <pt x="448" y="191" on="0"/>
        <pt x="391" y="99" on="0"/>
        <pt x="370" y="57" on="1"/>
        <pt x="353" y="81" on="0"/>
        <pt x="296" y="169" on="0"/>
        <pt x="261" y="220" on="1"/>
        <pt x="245" y="168" on="1"/>
        <pt x="239" y="148" on="0"/>
        <pt x="232" y="108" on="0"/>
        <pt x="232" y="87" on="1"/>
        <pt x="232" y="56" on="0"/>
        <pt x="248" y="-4" on="0"/>
        <pt x="266" y="-30" on="1"/>
        <pt x="246" y="-23" on="0"/>
        <pt x="219" y="-9" on="0"/>
        <pt x="196" y="9" on="0"/>
        <pt x="173" y="30" on="0"/>
        <pt x="158" y="44" on="1"/>
        <pt x="116" y="4" on="0"/>
        <pt x="34" y="-29" on="0"/>
        <pt x="-17" y="-30" on="1"/>
        <pt x="2" y="-27" on="0"/>
        <pt x="44" y="16" on="0"/>
        <pt x="84" y="85" on="0"/>
        <pt x="121" y="173" on="0"/>
        <pt x="135" y="222" on="1"/>
        <pt x="167" y="334" on="1"/>
        <pt x="132" y="371" on="0"/>
        <pt x="50" y="424" on="0"/>
        <pt x="17" y="424" on="1"/>
        <pt x="15" y="424" on="0"/>
        <pt x="9" y="424" on="0"/>
        <pt x="0" y="423" on="1"/>
        <pt x="-1" y="426" on="1"/>
        <pt x="42" y="448" on="0"/>
        <pt x="79" y="448" on="1"/>
        <pt x="104" y="448" on="0"/>
        <pt x="156" y="429" on="0"/>
        <pt x="190" y="410" on="1"/>
        <pt x="244" y="595" on="1"/>
        <pt x="249" y="612" on="0"/>
        <pt x="253" y="638" on="0"/>
        <pt x="253" y="646" on="1"/>
        <pt x="253" y="667" on="0"/>
        <pt x="228" y="685" on="0"/>
        <pt x="196" y="685" on="1"/>
        <pt x="176" y="685" on="0"/>
        <pt x="130" y="679" on="0"/>
        <pt x="98" y="673" on="1"/>
        <pt x="104" y="682" on="0"/>
        <pt x="150" y="706" on="0"/>
        <pt x="215" y="728" on="0"/>
        <pt x="290" y="743" on="0"/>
        <pt x="325" y="743" on="1"/>
        <pt x="351" y="743" on="0"/>
        <pt x="399" y="731" on="0"/>
        <pt x="411" y="716" on="1"/>
        <pt x="429" y="717" on="0"/>
        <pt x="471" y="725" on="0"/>
        <pt x="509" y="736" on="0"/>
        <pt x="539" y="747" on="0"/>
        <pt x="544" y="750" on="1"/>
        <pt x="530" y="730" on="0"/>
        <pt x="517" y="675" on="0"/>
        <pt x="517" y="643" on="1"/>
        <pt x="517" y="602" on="0"/>
        <pt x="535" y="513" on="0"/>
        <pt x="560" y="437" on="0"/>
        <pt x="588" y="383" on="0"/>
        <pt x="598" y="377" on="1"/>
        <pt x="598" y="318" on="0"/>
        <pt x="639" y="186" on="0"/>
        <pt x="704" y="66" on="0"/>
        <pt x="785" y="-29" on="0"/>
        <pt x="824" y="-53" on="1"/>
      </contour>
      <contour>
        <pt x="369" y="221" on="1"/>
        <pt x="386" y="244" on="0"/>
        <pt x="429" y="297" on="0"/>
        <pt x="447" y="323" on="1"/>
        <pt x="370" y="573" on="1"/>
        <pt x="291" y="315" on="1"/>
        <pt x="311" y="294" on="0"/>
        <pt x="352" y="242" on="0"/>
      </contour>
      <contour>
        <pt x="511" y="900" on="1"/>
        <pt x="506" y="876" on="0"/>
        <pt x="479" y="839" on="0"/>
        <pt x="440" y="815" on="0"/>
        <pt x="393" y="802" on="0"/>
        <pt x="369" y="802" on="1"/>
        <pt x="346" y="802" on="0"/>
        <pt x="302" y="814" on="0"/>
        <pt x="264" y="838" on="0"/>
        <pt x="237" y="875" on="0"/>
        <pt x="231" y="900" on="1"/>
        <pt x="243" y="904" on="0"/>
        <pt x="262" y="911" on="0"/>
        <pt x="278" y="918" on="0"/>
        <pt x="293" y="927" on="0"/>
        <pt x="303" y="933" on="1"/>
        <pt x="305" y="900" on="0"/>
        <pt x="344" y="867" on="0"/>
        <pt x="368" y="867" on="1"/>
        <pt x="393" y="867" on="0"/>
        <pt x="436" y="900" on="0"/>
        <pt x="439" y="932" on="1"/>
        <pt x="459" y="918" on="0"/>
        <pt x="491" y="905" on="0"/>
      </contour>
    </TTGlyph>
    <TTGlyph name="Acircumflex" xMin="-17" yMin="-56" xMax="824" yMax="945">
      <contour>
        <pt x="823" y="-56" on="1"/>
        <pt x="766" y="-36" on="0"/>
        <pt x="655" y="11" on="0"/>
        <pt x="601" y="43" on="1"/>
        <pt x="588" y="30" on="0"/>
        <pt x="568" y="12" on="0"/>
        <pt x="546" y="-1" on="0"/>
        <pt x="521" y="-10" on="0"/>
        <pt x="504" y="-14" on="1"/>
        <pt x="514" y="-2" on="0"/>
        <pt x="522" y="32" on="0"/>
        <pt x="522" y="50" on="1"/>
        <pt x="522" y="79" on="0"/>
        <pt x="507" y="134" on="0"/>
        <pt x="501" y="153" on="1"/>
        <pt x="477" y="229" on="1"/>
        <pt x="448" y="191" on="0"/>
        <pt x="391" y="99" on="0"/>
        <pt x="370" y="57" on="1"/>
        <pt x="353" y="81" on="0"/>
        <pt x="296" y="169" on="0"/>
        <pt x="261" y="220" on="1"/>
        <pt x="245" y="168" on="1"/>
        <pt x="239" y="148" on="0"/>
        <pt x="232" y="108" on="0"/>
        <pt x="232" y="87" on="1"/>
        <pt x="232" y="56" on="0"/>
        <pt x="248" y="-4" on="0"/>
        <pt x="266" y="-30" on="1"/>
        <pt x="246" y="-23" on="0"/>
        <pt x="219" y="-9" on="0"/>
        <pt x="196" y="9" on="0"/>
        <pt x="173" y="30" on="0"/>
        <pt x="158" y="44" on="1"/>
        <pt x="116" y="4" on="0"/>
        <pt x="34" y="-29" on="0"/>
        <pt x="-17" y="-30" on="1"/>
        <pt x="2" y="-27" on="0"/>
        <pt x="44" y="16" on="0"/>
        <pt x="84" y="85" on="0"/>
        <pt x="121" y="173" on="0"/>
        <pt x="135" y="222" on="1"/>
        <pt x="167" y="334" on="1"/>
        <pt x="132" y="371" on="0"/>
        <pt x="50" y="424" on="0"/>
        <pt x="17" y="424" on="1"/>
        <pt x="15" y="424" on="0"/>
        <pt x="9" y="424" on="0"/>
        <pt x="0" y="423" on="1"/>
        <pt x="-1" y="426" on="1"/>
        <pt x="42" y="448" on="0"/>
        <pt x="79" y="448" on="1"/>
        <pt x="104" y="448" on="0"/>
        <pt x="156" y="429" on="0"/>
        <pt x="190" y="410" on="1"/>
        <pt x="244" y="595" on="1"/>
        <pt x="249" y="612" on="0"/>
        <pt x="253" y="638" on="0"/>
        <pt x="253" y="646" on="1"/>
        <pt x="253" y="667" on="0"/>
        <pt x="228" y="685" on="0"/>
        <pt x="196" y="685" on="1"/>
        <pt x="176" y="685" on="0"/>
        <pt x="130" y="679" on="0"/>
        <pt x="98" y="673" on="1"/>
        <pt x="104" y="682" on="0"/>
        <pt x="150" y="706" on="0"/>
        <pt x="215" y="728" on="0"/>
        <pt x="290" y="743" on="0"/>
        <pt x="325" y="743" on="1"/>
        <pt x="351" y="743" on="0"/>
        <pt x="399" y="731" on="0"/>
        <pt x="411" y="716" on="1"/>
        <pt x="429" y="717" on="0"/>
        <pt x="471" y="725" on="0"/>
        <pt x="509" y="736" on="0"/>
        <pt x="539" y="747" on="0"/>
        <pt x="544" y="750" on="1"/>
        <pt x="530" y="730" on="0"/>
        <pt x="517" y="675" on="0"/>
        <pt x="517" y="643" on="1"/>
        <pt x="517" y="602" on="0"/>
        <pt x="535" y="513" on="0"/>
        <pt x="560" y="437" on="0"/>
        <pt x="588" y="383" on="0"/>
        <pt x="598" y="377" on="1"/>
        <pt x="598" y="318" on="0"/>
        <pt x="639" y="186" on="0"/>
        <pt x="704" y="66" on="0"/>
        <pt x="785" y="-29" on="0"/>
        <pt x="824" y="-53" on="1"/>
      </contour>
      <contour>
        <pt x="369" y="221" on="1"/>
        <pt x="386" y="244" on="0"/>
        <pt x="429" y="297" on="0"/>
        <pt x="447" y="323" on="1"/>
        <pt x="370" y="573" on="1"/>
        <pt x="291" y="315" on="1"/>
        <pt x="311" y="294" on="0"/>
        <pt x="352" y="242" on="0"/>
      </contour>
      <contour>
        <pt x="540" y="828" on="1"/>
        <pt x="525" y="816" on="0"/>
        <pt x="509" y="800" on="0"/>
        <pt x="494" y="786" on="1"/>
        <pt x="482" y="793" on="0"/>
        <pt x="450" y="808" on="0"/>
        <pt x="416" y="822" on="0"/>
        <pt x="383" y="835" on="0"/>
        <pt x="370" y="840" on="1"/>
        <pt x="356" y="835" on="0"/>
        <pt x="322" y="822" on="0"/>
        <pt x="288" y="807" on="0"/>
        <pt x="257" y="792" on="0"/>
        <pt x="245" y="786" on="1"/>
        <pt x="229" y="799" on="0"/>
        <pt x="214" y="816" on="0"/>
        <pt x="199" y="828" on="1"/>
        <pt x="234" y="854" on="0"/>
        <pt x="327" y="913" on="0"/>
        <pt x="369" y="945" on="1"/>
        <pt x="435" y="900" on="0"/>
        <pt x="526" y="840" on="0"/>
      </contour>
    </TTGlyph>
    <TTGlyph name="Adieresis" xMin="-17" yMin="-56" xMax="824" yMax="945">
      <contour>
        <pt x="823" y="-56" on="1"/>
        <pt x="766" y="-36" on="0"/>
        <pt x="655" y="11" on="0"/>
        <pt x="601" y="43" on="1"/>
        <pt x="588" y="30" on="0"/>
        <pt x="568" y="12" on="0"/>
        <pt x="546" y="-1" on="0"/>
        <pt x="521" y="-10" on="0"/>
        <pt x="504" y="-14" on="1"/>
        <pt x="514" y="-2" on="0"/>
        <pt x="522" y="32" on="0"/>
        <pt x="522" y="50" on="1"/>
        <pt x="522" y="79" on="0"/>
        <pt x="507" y="134" on="0"/>
        <pt x="501" y="153" on="1"/>
        <pt x="477" y="229" on="1"/>
        <pt x="448" y="191" on="0"/>
        <pt x="391" y="99" on="0"/>
        <pt x="370" y="57" on="1"/>
        <pt x="353" y="81" on="0"/>
        <pt x="296" y="169" on="0"/>
        <pt x="261" y="220" on="1"/>
        <pt x="245" y="168" on="1"/>
        <pt x="239" y="148" on="0"/>
        <pt x="232" y="108" on="0"/>
        <pt x="232" y="87" on="1"/>
        <pt x="232" y="56" on="0"/>
        <pt x="248" y="-4" on="0"/>
        <pt x="266" y="-30" on="1"/>
        <pt x="246" y="-23" on="0"/>
        <pt x="219" y="-9" on="0"/>
        <pt x="196" y="9" on="0"/>
        <pt x="173" y="30" on="0"/>
        <pt x="158" y="44" on="1"/>
        <pt x="116" y="4" on="0"/>
        <pt x="34" y="-29" on="0"/>
        <pt x="-17" y="-30" on="1"/>
        <pt x="2" y="-27" on="0"/>
        <pt x="44" y="16" on="0"/>
        <pt x="84" y="85" on="0"/>
        <pt x="121" y="173" on="0"/>
        <pt x="135" y="222" on="1"/>
        <pt x="167" y="334" on="1"/>
        <pt x="132" y="371" on="0"/>
        <pt x="50" y="424" on="0"/>
        <pt x="17" y="424" on="1"/>
        <pt x="15" y="424" on="0"/>
        <pt x="9" y="424" on="0"/>
        <pt x="0" y="423" on="1"/>
        <pt x="-1" y="426" on="1"/>
        <pt x="42" y="448" on="0"/>
        <pt x="79" y="448" on="1"/>
        <pt x="104" y="448" on="0"/>
        <pt x="156" y="429" on="0"/>
        <pt x="190" y="410" on="1"/>
        <pt x="244" y="595" on="1"/>
        <pt x="249" y="612" on="0"/>
        <pt x="253" y="638" on="0"/>
        <pt x="253" y="646" on="1"/>
        <pt x="253" y="667" on="0"/>
        <pt x="228" y="685" on="0"/>
        <pt x="196" y="685" on="1"/>
        <pt x="176" y="685" on="0"/>
        <pt x="130" y="679" on="0"/>
        <pt x="98" y="673" on="1"/>
        <pt x="104" y="682" on="0"/>
        <pt x="150" y="706" on="0"/>
        <pt x="215" y="728" on="0"/>
        <pt x="290" y="743" on="0"/>
        <pt x="325" y="743" on="1"/>
        <pt x="351" y="743" on="0"/>
        <pt x="399" y="731" on="0"/>
        <pt x="411" y="716" on="1"/>
        <pt x="429" y="717" on="0"/>
        <pt x="471" y="725" on="0"/>
        <pt x="509" y="736" on="0"/>
        <pt x="539" y="747" on="0"/>
        <pt x="544" y="750" on="1"/>
        <pt x="530" y="730" on="0"/>
        <pt x="517" y="675" on="0"/>
        <pt x="517" y="643" on="1"/>
        <pt x="517" y="602" on="0"/>
        <pt x="535" y="513" on="0"/>
        <pt x="560" y="437" on="0"/>
        <pt x="588" y="383" on="0"/>
        <pt x="598" y="377" on="1"/>
        <pt x="598" y="318" on="0"/>
        <pt x="639" y="186" on="0"/>
        <pt x="704" y="66" on="0"/>
        <pt x="785" y="-29" on="0"/>
        <pt x="824" y="-53" on="1"/>
      </contour>
      <contour>
        <pt x="369" y="221" on="1"/>
        <pt x="386" y="244" on="0"/>
        <pt x="429" y="297" on="0"/>
        <pt x="447" y="323" on="1"/>
        <pt x="370" y="573" on="1"/>
        <pt x="291" y="315" on="1"/>
        <pt x="311" y="294" on="0"/>
        <pt x="352" y="242" on="0"/>
      </contour>
      <contour>
        <pt x="186" y="854" on="1"/>
        <pt x="202" y="880" on="0"/>
        <pt x="245" y="931" on="0"/>
        <pt x="272" y="945" on="1"/>
        <pt x="278" y="938" on="0"/>
        <pt x="300" y="919" on="0"/>
        <pt x="326" y="899" on="0"/>
        <pt x="350" y="882" on="0"/>
        <pt x="356" y="878" on="1"/>
        <pt x="326" y="856" on="0"/>
        <pt x="283" y="816" on="0"/>
        <pt x="268" y="786" on="1"/>
        <pt x="263" y="793" on="0"/>
        <pt x="241" y="812" on="0"/>
        <pt x="216" y="832" on="0"/>
        <pt x="193" y="849" on="0"/>
      </contour>
      <contour>
        <pt x="385" y="854" on="1"/>
        <pt x="401" y="880" on="0"/>
        <pt x="444" y="931" on="0"/>
        <pt x="471" y="945" on="1"/>
        <pt x="477" y="938" on="0"/>
        <pt x="499" y="919" on="0"/>
        <pt x="525" y="899" on="0"/>
        <pt x="549" y="882" on="0"/>
        <pt x="555" y="878" on="1"/>
        <pt x="525" y="856" on="0"/>
        <pt x="482" y="816" on="0"/>
        <pt x="467" y="786" on="1"/>
        <pt x="462" y="793" on="0"/>
        <pt x="440" y="812" on="0"/>
        <pt x="415" y="832" on="0"/>
        <pt x="392" y="849" on="0"/>
      </contour>
    </TTGlyph>
    <TTGlyph name="Agrave" xMin="-17" yMin="-56" xMax="824" yMax="943">
      <contour>
        <pt x="823" y="-56" on="1"/>
        <pt x="766" y="-36" on="0"/>
        <pt x="655" y="11" on="0"/>
        <pt x="601" y="43" on="1"/>
        <pt x="588" y="30" on="0"/>
        <pt x="568" y="12" on="0"/>
        <pt x="546" y="-1" on="0"/>
        <pt x="521" y="-10" on="0"/>
        <pt x="504" y="-14" on="1"/>
        <pt x="514" y="-2" on="0"/>
        <pt x="522" y="32" on="0"/>
        <pt x="522" y="50" on="1"/>
        <pt x="522" y="79" on="0"/>
        <pt x="507" y="134" on="0"/>
        <pt x="501" y="153" on="1"/>
        <pt x="477" y="229" on="1"/>
        <pt x="448" y="191" on="0"/>
        <pt x="391" y="99" on="0"/>
        <pt x="370" y="57" on="1"/>
        <pt x="353" y="81" on="0"/>
        <pt x="296" y="169" on="0"/>
        <pt x="261" y="220" on="1"/>
        <pt x="245" y="168" on="1"/>
        <pt x="239" y="148" on="0"/>
        <pt x="232" y="108" on="0"/>
        <pt x="232" y="87" on="1"/>
        <pt x="232" y="56" on="0"/>
        <pt x="248" y="-4" on="0"/>
        <pt x="266" y="-30" on="1"/>
        <pt x="246" y="-23" on="0"/>
        <pt x="219" y="-9" on="0"/>
        <pt x="196" y="9" on="0"/>
        <pt x="173" y="30" on="0"/>
        <pt x="158" y="44" on="1"/>
        <pt x="116" y="4" on="0"/>
        <pt x="34" y="-29" on="0"/>
        <pt x="-17" y="-30" on="1"/>
        <pt x="2" y="-27" on="0"/>
        <pt x="44" y="16" on="0"/>
        <pt x="84" y="85" on="0"/>
        <pt x="121" y="173" on="0"/>
        <pt x="135" y="222" on="1"/>
        <pt x="167" y="334" on="1"/>
        <pt x="132" y="371" on="0"/>
        <pt x="50" y="424" on="0"/>
        <pt x="17" y="424" on="1"/>
        <pt x="15" y="424" on="0"/>
        <pt x="9" y="424" on="0"/>
        <pt x="0" y="423" on="1"/>
        <pt x="-1" y="426" on="1"/>
        <pt x="42" y="448" on="0"/>
        <pt x="79" y="448" on="1"/>
        <pt x="104" y="448" on="0"/>
        <pt x="156" y="429" on="0"/>
        <pt x="190" y="410" on="1"/>
        <pt x="244" y="595" on="1"/>
        <pt x="249" y="612" on="0"/>
        <pt x="253" y="638" on="0"/>
        <pt x="253" y="646" on="1"/>
        <pt x="253" y="667" on="0"/>
        <pt x="228" y="685" on="0"/>
        <pt x="196" y="685" on="1"/>
        <pt x="176" y="685" on="0"/>
        <pt x="130" y="679" on="0"/>
        <pt x="98" y="673" on="1"/>
        <pt x="104" y="682" on="0"/>
        <pt x="150" y="706" on="0"/>
        <pt x="215" y="728" on="0"/>
        <pt x="290" y="743" on="0"/>
        <pt x="325" y="743" on="1"/>
        <pt x="351" y="743" on="0"/>
        <pt x="399" y="731" on="0"/>
        <pt x="411" y="716" on="1"/>
        <pt x="429" y="717" on="0"/>
        <pt x="471" y="725" on="0"/>
        <pt x="509" y="736" on="0"/>
        <pt x="539" y="747" on="0"/>
        <pt x="544" y="750" on="1"/>
        <pt x="530" y="730" on="0"/>
        <pt x="517" y="675" on="0"/>
        <pt x="517" y="643" on="1"/>
        <pt x="517" y="602" on="0"/>
        <pt x="535" y="513" on="0"/>
        <pt x="560" y="437" on="0"/>
        <pt x="588" y="383" on="0"/>
        <pt x="598" y="377" on="1"/>
        <pt x="598" y="318" on="0"/>
        <pt x="639" y="186" on="0"/>
        <pt x="704" y="66" on="0"/>
        <pt x="785" y="-29" on="0"/>
        <pt x="824" y="-53" on="1"/>
      </contour>
      <contour>
        <pt x="369" y="221" on="1"/>
        <pt x="386" y="244" on="0"/>
        <pt x="429" y="297" on="0"/>
        <pt x="447" y="323" on="1"/>
        <pt x="370" y="573" on="1"/>
        <pt x="291" y="315" on="1"/>
        <pt x="311" y="294" on="0"/>
        <pt x="352" y="242" on="0"/>
      </contour>
      <contour>
        <pt x="429" y="847" on="1"/>
        <pt x="421" y="830" on="0"/>
        <pt x="416" y="808" on="0"/>
        <pt x="408" y="789" on="1"/>
        <pt x="382" y="796" on="0"/>
        <pt x="315" y="810" on="0"/>
        <pt x="252" y="822" on="0"/>
        <pt x="200" y="831" on="0"/>
        <pt x="190" y="832" on="1"/>
        <pt x="194" y="839" on="0"/>
        <pt x="208" y="868" on="0"/>
        <pt x="222" y="901" on="0"/>
        <pt x="234" y="933" on="0"/>
        <pt x="236" y="943" on="1"/>
        <pt x="252" y="932" on="0"/>
        <pt x="308" y="904" on="0"/>
        <pt x="366" y="877" on="0"/>
        <pt x="417" y="854" on="0"/>
      </contour>
    </TTGlyph>
    <TTGlyph name="Amacron" xMin="-17" yMin="-56" xMax="824" yMax="921">
      <contour>
        <pt x="823" y="-56" on="1"/>
        <pt x="766" y="-36" on="0"/>
        <pt x="655" y="11" on="0"/>
        <pt x="601" y="43" on="1"/>
        <pt x="588" y="30" on="0"/>
        <pt x="568" y="12" on="0"/>
        <pt x="546" y="-1" on="0"/>
        <pt x="521" y="-10" on="0"/>
        <pt x="504" y="-14" on="1"/>
        <pt x="514" y="-2" on="0"/>
        <pt x="522" y="32" on="0"/>
        <pt x="522" y="50" on="1"/>
        <pt x="522" y="79" on="0"/>
        <pt x="507" y="134" on="0"/>
        <pt x="501" y="153" on="1"/>
        <pt x="477" y="229" on="1"/>
        <pt x="448" y="191" on="0"/>
        <pt x="391" y="99" on="0"/>
        <pt x="370" y="57" on="1"/>
        <pt x="353" y="81" on="0"/>
        <pt x="296" y="169" on="0"/>
        <pt x="261" y="220" on="1"/>
        <pt x="245" y="168" on="1"/>
        <pt x="239" y="148" on="0"/>
        <pt x="232" y="108" on="0"/>
        <pt x="232" y="87" on="1"/>
        <pt x="232" y="56" on="0"/>
        <pt x="248" y="-4" on="0"/>
        <pt x="266" y="-30" on="1"/>
        <pt x="246" y="-23" on="0"/>
        <pt x="219" y="-9" on="0"/>
        <pt x="196" y="9" on="0"/>
        <pt x="173" y="30" on="0"/>
        <pt x="158" y="44" on="1"/>
        <pt x="116" y="4" on="0"/>
        <pt x="34" y="-29" on="0"/>
        <pt x="-17" y="-30" on="1"/>
        <pt x="2" y="-27" on="0"/>
        <pt x="44" y="16" on="0"/>
        <pt x="84" y="85" on="0"/>
        <pt x="121" y="173" on="0"/>
        <pt x="135" y="222" on="1"/>
        <pt x="167" y="334" on="1"/>
        <pt x="132" y="371" on="0"/>
        <pt x="50" y="424" on="0"/>
        <pt x="17" y="424" on="1"/>
        <pt x="15" y="424" on="0"/>
        <pt x="9" y="424" on="0"/>
        <pt x="0" y="423" on="1"/>
        <pt x="-1" y="426" on="1"/>
        <pt x="42" y="448" on="0"/>
        <pt x="79" y="448" on="1"/>
        <pt x="104" y="448" on="0"/>
        <pt x="156" y="429" on="0"/>
        <pt x="190" y="410" on="1"/>
        <pt x="244" y="595" on="1"/>
        <pt x="249" y="612" on="0"/>
        <pt x="253" y="638" on="0"/>
        <pt x="253" y="646" on="1"/>
        <pt x="253" y="667" on="0"/>
        <pt x="228" y="685" on="0"/>
        <pt x="196" y="685" on="1"/>
        <pt x="176" y="685" on="0"/>
        <pt x="130" y="679" on="0"/>
        <pt x="98" y="673" on="1"/>
        <pt x="104" y="682" on="0"/>
        <pt x="150" y="706" on="0"/>
        <pt x="215" y="728" on="0"/>
        <pt x="290" y="743" on="0"/>
        <pt x="325" y="743" on="1"/>
        <pt x="351" y="743" on="0"/>
        <pt x="399" y="731" on="0"/>
        <pt x="411" y="716" on="1"/>
        <pt x="429" y="717" on="0"/>
        <pt x="471" y="725" on="0"/>
        <pt x="509" y="736" on="0"/>
        <pt x="539" y="747" on="0"/>
        <pt x="544" y="750" on="1"/>
        <pt x="530" y="730" on="0"/>
        <pt x="517" y="675" on="0"/>
        <pt x="517" y="643" on="1"/>
        <pt x="517" y="602" on="0"/>
        <pt x="535" y="513" on="0"/>
        <pt x="560" y="437" on="0"/>
        <pt x="588" y="383" on="0"/>
        <pt x="598" y="377" on="1"/>
        <pt x="598" y="318" on="0"/>
        <pt x="639" y="186" on="0"/>
        <pt x="704" y="66" on="0"/>
        <pt x="785" y="-29" on="0"/>
        <pt x="824" y="-53" on="1"/>
      </contour>
      <contour>
        <pt x="369" y="221" on="1"/>
        <pt x="386" y="244" on="0"/>
        <pt x="429" y="297" on="0"/>
        <pt x="447" y="323" on="1"/>
        <pt x="370" y="573" on="1"/>
        <pt x="291" y="315" on="1"/>
        <pt x="311" y="294" on="0"/>
        <pt x="352" y="242" on="0"/>
      </contour>
      <contour>
        <pt x="207" y="921" on="1"/>
        <pt x="233" y="908" on="0"/>
        <pt x="292" y="903" on="0"/>
        <pt x="320" y="903" on="1"/>
        <pt x="421" y="903" on="1"/>
        <pt x="449" y="903" on="0"/>
        <pt x="508" y="908" on="0"/>
        <pt x="534" y="921" on="1"/>
        <pt x="532" y="907" on="0"/>
        <pt x="530" y="881" on="0"/>
        <pt x="530" y="867" on="1"/>
        <pt x="530" y="853" on="0"/>
        <pt x="532" y="827" on="0"/>
        <pt x="534" y="813" on="1"/>
        <pt x="509" y="822" on="0"/>
        <pt x="452" y="830" on="0"/>
        <pt x="422" y="830" on="1"/>
        <pt x="319" y="830" on="1"/>
        <pt x="289" y="830" on="0"/>
        <pt x="232" y="822" on="0"/>
        <pt x="207" y="813" on="1"/>
        <pt x="209" y="827" on="0"/>
        <pt x="211" y="853" on="0"/>
        <pt x="211" y="867" on="1"/>
        <pt x="211" y="881" on="0"/>
        <pt x="209" y="907" on="0"/>
      </contour>
    </TTGlyph>
    <TTGlyph name="Aogonek" xMin="-17" yMin="-233" xMax="824" yMax="750">
      <contour>
        <pt x="823" y="-56" on="1"/>
        <pt x="775" y="-39" on="0"/>
        <pt x="679" y="0" on="0"/>
        <pt x="631" y="26" on="1"/>
        <pt x="562" y="-74" on="1"/>
        <pt x="590" y="-164" on="1"/>
        <pt x="596" y="-158" on="0"/>
        <pt x="618" y="-152" on="0"/>
        <pt x="642" y="-149" on="0"/>
        <pt x="665" y="-149" on="0"/>
        <pt x="672" y="-149" on="1"/>
        <pt x="693" y="-149" on="0"/>
        <pt x="734" y="-179" on="0"/>
        <pt x="746" y="-210" on="1"/>
        <pt x="736" y="-205" on="0"/>
        <pt x="717" y="-201" on="0"/>
        <pt x="708" y="-201" on="1"/>
        <pt x="673" y="-201" on="0"/>
        <pt x="647" y="-233" on="1"/>
        <pt x="638" y="-227" on="0"/>
        <pt x="606" y="-215" on="0"/>
        <pt x="569" y="-204" on="0"/>
        <pt x="532" y="-198" on="0"/>
        <pt x="517" y="-198" on="1"/>
        <pt x="477" y="-115" on="1"/>
        <pt x="558" y="7" on="1"/>
        <pt x="538" y="-5" on="0"/>
        <pt x="504" y="-14" on="1"/>
        <pt x="514" y="-2" on="0"/>
        <pt x="522" y="32" on="0"/>
        <pt x="522" y="50" on="1"/>
        <pt x="522" y="79" on="0"/>
        <pt x="507" y="134" on="0"/>
        <pt x="501" y="153" on="1"/>
        <pt x="477" y="229" on="1"/>
        <pt x="448" y="191" on="0"/>
        <pt x="391" y="99" on="0"/>
        <pt x="370" y="57" on="1"/>
        <pt x="353" y="81" on="0"/>
        <pt x="296" y="169" on="0"/>
        <pt x="261" y="220" on="1"/>
        <pt x="245" y="168" on="1"/>
        <pt x="239" y="148" on="0"/>
        <pt x="232" y="108" on="0"/>
        <pt x="232" y="87" on="1"/>
        <pt x="232" y="56" on="0"/>
        <pt x="248" y="-4" on="0"/>
        <pt x="266" y="-30" on="1"/>
        <pt x="246" y="-23" on="0"/>
        <pt x="219" y="-9" on="0"/>
        <pt x="196" y="9" on="0"/>
        <pt x="173" y="30" on="0"/>
        <pt x="158" y="44" on="1"/>
        <pt x="116" y="4" on="0"/>
        <pt x="34" y="-29" on="0"/>
        <pt x="-17" y="-30" on="1"/>
        <pt x="2" y="-27" on="0"/>
        <pt x="44" y="16" on="0"/>
        <pt x="84" y="85" on="0"/>
        <pt x="121" y="173" on="0"/>
        <pt x="135" y="222" on="1"/>
        <pt x="167" y="334" on="1"/>
        <pt x="132" y="371" on="0"/>
        <pt x="50" y="424" on="0"/>
        <pt x="17" y="424" on="1"/>
        <pt x="15" y="424" on="0"/>
        <pt x="9" y="424" on="0"/>
        <pt x="0" y="423" on="1"/>
        <pt x="-1" y="426" on="1"/>
        <pt x="42" y="448" on="0"/>
        <pt x="79" y="448" on="1"/>
        <pt x="104" y="448" on="0"/>
        <pt x="156" y="429" on="0"/>
        <pt x="190" y="410" on="1"/>
        <pt x="244" y="595" on="1"/>
        <pt x="249" y="612" on="0"/>
        <pt x="253" y="638" on="0"/>
        <pt x="253" y="646" on="1"/>
        <pt x="253" y="667" on="0"/>
        <pt x="228" y="685" on="0"/>
        <pt x="196" y="685" on="1"/>
        <pt x="176" y="685" on="0"/>
        <pt x="130" y="679" on="0"/>
        <pt x="98" y="673" on="1"/>
        <pt x="104" y="682" on="0"/>
        <pt x="150" y="706" on="0"/>
        <pt x="215" y="728" on="0"/>
        <pt x="290" y="743" on="0"/>
        <pt x="325" y="743" on="1"/>
        <pt x="351" y="743" on="0"/>
        <pt x="399" y="731" on="0"/>
        <pt x="411" y="716" on="1"/>
        <pt x="429" y="717" on="0"/>
        <pt x="471" y="725" on="0"/>
        <pt x="509" y="736" on="0"/>
        <pt x="539" y="747" on="0"/>
        <pt x="544" y="750" on="1"/>
        <pt x="530" y="730" on="0"/>
        <pt x="517" y="675" on="0"/>
        <pt x="517" y="643" on="1"/>
        <pt x="517" y="602" on="0"/>
        <pt x="535" y="513" on="0"/>
        <pt x="560" y="437" on="0"/>
        <pt x="588" y="383" on="0"/>
        <pt x="598" y="377" on="1"/>
        <pt x="598" y="318" on="0"/>
        <pt x="639" y="186" on="0"/>
        <pt x="704" y="66" on="0"/>
        <pt x="785" y="-29" on="0"/>
        <pt x="824" y="-53" on="1"/>
      </contour>
      <contour>
        <pt x="369" y="221" on="1"/>
        <pt x="386" y="244" on="0"/>
        <pt x="429" y="297" on="0"/>
        <pt x="447" y="323" on="1"/>
        <pt x="370" y="573" on="1"/>
        <pt x="291" y="315" on="1"/>
        <pt x="311" y="294" on="0"/>
        <pt x="352" y="242" on="0"/>
      </contour>
    </TTGlyph>
    <TTGlyph name="Aring" xMin="-17" yMin="-56" xMax="824" yMax="945">
      <contour>
        <pt x="823" y="-56" on="1"/>
        <pt x="766" y="-36" on="0"/>
        <pt x="655" y="11" on="0"/>
        <pt x="601" y="43" on="1"/>
        <pt x="588" y="30" on="0"/>
        <pt x="568" y="12" on="0"/>
        <pt x="546" y="-1" on="0"/>
        <pt x="521" y="-10" on="0"/>
        <pt x="504" y="-14" on="1"/>
        <pt x="514" y="-2" on="0"/>
        <pt x="522" y="32" on="0"/>
        <pt x="522" y="50" on="1"/>
        <pt x="522" y="79" on="0"/>
        <pt x="507" y="134" on="0"/>
        <pt x="501" y="153" on="1"/>
        <pt x="477" y="229" on="1"/>
        <pt x="448" y="191" on="0"/>
        <pt x="391" y="99" on="0"/>
        <pt x="370" y="57" on="1"/>
        <pt x="353" y="81" on="0"/>
        <pt x="296" y="169" on="0"/>
        <pt x="261" y="220" on="1"/>
        <pt x="245" y="168" on="1"/>
        <pt x="239" y="148" on="0"/>
        <pt x="232" y="108" on="0"/>
        <pt x="232" y="87" on="1"/>
        <pt x="232" y="56" on="0"/>
        <pt x="248" y="-4" on="0"/>
        <pt x="266" y="-30" on="1"/>
        <pt x="246" y="-23" on="0"/>
        <pt x="219" y="-9" on="0"/>
        <pt x="196" y="9" on="0"/>
        <pt x="173" y="30" on="0"/>
        <pt x="158" y="44" on="1"/>
        <pt x="116" y="4" on="0"/>
        <pt x="34" y="-29" on="0"/>
        <pt x="-17" y="-30" on="1"/>
        <pt x="2" y="-27" on="0"/>
        <pt x="44" y="16" on="0"/>
        <pt x="84" y="85" on="0"/>
        <pt x="121" y="173" on="0"/>
        <pt x="135" y="222" on="1"/>
        <pt x="167" y="334" on="1"/>
        <pt x="132" y="371" on="0"/>
        <pt x="50" y="424" on="0"/>
        <pt x="17" y="424" on="1"/>
        <pt x="15" y="424" on="0"/>
        <pt x="9" y="424" on="0"/>
        <pt x="0" y="423" on="1"/>
        <pt x="-1" y="426" on="1"/>
        <pt x="42" y="448" on="0"/>
        <pt x="79" y="448" on="1"/>
        <pt x="104" y="448" on="0"/>
        <pt x="156" y="429" on="0"/>
        <pt x="190" y="410" on="1"/>
        <pt x="244" y="595" on="1"/>
        <pt x="249" y="612" on="0"/>
        <pt x="253" y="638" on="0"/>
        <pt x="253" y="646" on="1"/>
        <pt x="253" y="667" on="0"/>
        <pt x="228" y="685" on="0"/>
        <pt x="196" y="685" on="1"/>
        <pt x="176" y="685" on="0"/>
        <pt x="130" y="679" on="0"/>
        <pt x="98" y="673" on="1"/>
        <pt x="104" y="682" on="0"/>
        <pt x="150" y="706" on="0"/>
        <pt x="215" y="728" on="0"/>
        <pt x="290" y="743" on="0"/>
        <pt x="325" y="743" on="1"/>
        <pt x="351" y="743" on="0"/>
        <pt x="399" y="731" on="0"/>
        <pt x="411" y="716" on="1"/>
        <pt x="429" y="717" on="0"/>
        <pt x="471" y="725" on="0"/>
        <pt x="509" y="736" on="0"/>
        <pt x="539" y="747" on="0"/>
        <pt x="544" y="750" on="1"/>
        <pt x="530" y="730" on="0"/>
        <pt x="517" y="675" on="0"/>
        <pt x="517" y="643" on="1"/>
        <pt x="517" y="602" on="0"/>
        <pt x="535" y="513" on="0"/>
        <pt x="560" y="437" on="0"/>
        <pt x="588" y="383" on="0"/>
        <pt x="598" y="377" on="1"/>
        <pt x="598" y="318" on="0"/>
        <pt x="639" y="186" on="0"/>
        <pt x="704" y="66" on="0"/>
        <pt x="785" y="-29" on="0"/>
        <pt x="824" y="-53" on="1"/>
      </contour>
      <contour>
        <pt x="369" y="221" on="1"/>
        <pt x="386" y="244" on="0"/>
        <pt x="429" y="297" on="0"/>
        <pt x="447" y="323" on="1"/>
        <pt x="370" y="573" on="1"/>
        <pt x="291" y="315" on="1"/>
        <pt x="311" y="294" on="0"/>
        <pt x="352" y="242" on="0"/>
      </contour>
      <contour>
        <pt x="370" y="945" on="1"/>
        <pt x="412" y="945" on="0"/>
        <pt x="453" y="896" on="0"/>
        <pt x="453" y="867" on="1"/>
        <pt x="453" y="836" on="0"/>
        <pt x="413" y="786" on="0"/>
        <pt x="373" y="786" on="1"/>
        <pt x="328" y="786" on="0"/>
        <pt x="287" y="835" on="0"/>
        <pt x="287" y="865" on="1"/>
        <pt x="287" y="895" on="0"/>
        <pt x="328" y="945" on="0"/>
      </contour>
      <contour>
        <pt x="370" y="886" on="1"/>
        <pt x="359" y="886" on="0"/>
        <pt x="348" y="873" on="0"/>
        <pt x="348" y="865" on="1"/>
        <pt x="348" y="857" on="0"/>
        <pt x="360" y="845" on="0"/>
        <pt x="371" y="845" on="1"/>
        <pt x="380" y="845" on="0"/>
        <pt x="390" y="858" on="0"/>
        <pt x="390" y="866" on="1"/>
        <pt x="390" y="873" on="0"/>
        <pt x="381" y="886" on="0"/>
      </contour>
    </TTGlyph>
    <TTGlyph name="Aringacute" xMin="-17" yMin="-56" xMax="824" yMax="944">
      <contour>
        <pt x="375" y="927" on="1"/>
        <pt x="416" y="927" on="0"/>
        <pt x="439" y="901" on="1"/>
        <pt x="462" y="912" on="0"/>
        <pt x="505" y="934" on="0"/>
        <pt x="519" y="944" on="1"/>
        <pt x="521" y="934" on="0"/>
        <pt x="533" y="902" on="0"/>
        <pt x="547" y="869" on="0"/>
        <pt x="561" y="840" on="0"/>
        <pt x="565" y="833" on="1"/>
        <pt x="552" y="831" on="0"/>
        <pt x="489" y="822" on="0"/>
        <pt x="451" y="814" on="1"/>
        <pt x="443" y="794" on="0"/>
        <pt x="406" y="768" on="0"/>
        <pt x="378" y="768" on="1"/>
        <pt x="341" y="768" on="0"/>
        <pt x="319" y="787" on="1"/>
        <pt x="296" y="782" on="0"/>
        <pt x="254" y="772" on="0"/>
        <pt x="237" y="767" on="1"/>
        <pt x="229" y="786" on="0"/>
        <pt x="224" y="808" on="0"/>
        <pt x="216" y="825" on="1"/>
        <pt x="227" y="830" on="0"/>
        <pt x="268" y="851" on="0"/>
        <pt x="293" y="862" on="1"/>
        <pt x="298" y="888" on="0"/>
        <pt x="339" y="927" on="0"/>
      </contour>
      <contour>
        <pt x="375" y="868" on="1"/>
        <pt x="364" y="868" on="0"/>
        <pt x="353" y="855" on="0"/>
        <pt x="353" y="847" on="1"/>
        <pt x="353" y="839" on="0"/>
        <pt x="365" y="827" on="0"/>
        <pt x="376" y="827" on="1"/>
        <pt x="385" y="827" on="0"/>
        <pt x="395" y="840" on="0"/>
        <pt x="395" y="848" on="1"/>
        <pt x="395" y="855" on="0"/>
        <pt x="386" y="868" on="0"/>
      </contour>
      <contour>
        <pt x="823" y="-56" on="1"/>
        <pt x="766" y="-36" on="0"/>
        <pt x="655" y="11" on="0"/>
        <pt x="601" y="43" on="1"/>
        <pt x="588" y="30" on="0"/>
        <pt x="568" y="12" on="0"/>
        <pt x="546" y="-1" on="0"/>
        <pt x="521" y="-10" on="0"/>
        <pt x="504" y="-14" on="1"/>
        <pt x="514" y="-2" on="0"/>
        <pt x="522" y="32" on="0"/>
        <pt x="522" y="50" on="1"/>
        <pt x="522" y="79" on="0"/>
        <pt x="507" y="134" on="0"/>
        <pt x="501" y="153" on="1"/>
        <pt x="477" y="229" on="1"/>
        <pt x="448" y="191" on="0"/>
        <pt x="391" y="99" on="0"/>
        <pt x="370" y="57" on="1"/>
        <pt x="353" y="81" on="0"/>
        <pt x="296" y="169" on="0"/>
        <pt x="261" y="220" on="1"/>
        <pt x="245" y="168" on="1"/>
        <pt x="239" y="148" on="0"/>
        <pt x="232" y="108" on="0"/>
        <pt x="232" y="87" on="1"/>
        <pt x="232" y="56" on="0"/>
        <pt x="248" y="-4" on="0"/>
        <pt x="266" y="-30" on="1"/>
        <pt x="246" y="-23" on="0"/>
        <pt x="219" y="-9" on="0"/>
        <pt x="196" y="9" on="0"/>
        <pt x="173" y="30" on="0"/>
        <pt x="158" y="44" on="1"/>
        <pt x="116" y="4" on="0"/>
        <pt x="34" y="-29" on="0"/>
        <pt x="-17" y="-30" on="1"/>
        <pt x="2" y="-27" on="0"/>
        <pt x="44" y="16" on="0"/>
        <pt x="84" y="85" on="0"/>
        <pt x="121" y="173" on="0"/>
        <pt x="135" y="222" on="1"/>
        <pt x="167" y="334" on="1"/>
        <pt x="132" y="371" on="0"/>
        <pt x="50" y="424" on="0"/>
        <pt x="17" y="424" on="1"/>
        <pt x="15" y="424" on="0"/>
        <pt x="9" y="424" on="0"/>
        <pt x="0" y="423" on="1"/>
        <pt x="-1" y="426" on="1"/>
        <pt x="42" y="448" on="0"/>
        <pt x="79" y="448" on="1"/>
        <pt x="104" y="448" on="0"/>
        <pt x="156" y="429" on="0"/>
        <pt x="190" y="410" on="1"/>
        <pt x="244" y="595" on="1"/>
        <pt x="249" y="612" on="0"/>
        <pt x="253" y="638" on="0"/>
        <pt x="253" y="646" on="1"/>
        <pt x="253" y="667" on="0"/>
        <pt x="228" y="685" on="0"/>
        <pt x="196" y="685" on="1"/>
        <pt x="176" y="685" on="0"/>
        <pt x="130" y="679" on="0"/>
        <pt x="98" y="673" on="1"/>
        <pt x="104" y="682" on="0"/>
        <pt x="150" y="706" on="0"/>
        <pt x="215" y="728" on="0"/>
        <pt x="290" y="743" on="0"/>
        <pt x="325" y="743" on="1"/>
        <pt x="351" y="743" on="0"/>
        <pt x="399" y="731" on="0"/>
        <pt x="411" y="716" on="1"/>
        <pt x="429" y="717" on="0"/>
        <pt x="471" y="725" on="0"/>
        <pt x="509" y="736" on="0"/>
        <pt x="539" y="747" on="0"/>
        <pt x="544" y="750" on="1"/>
        <pt x="530" y="730" on="0"/>
        <pt x="517" y="675" on="0"/>
        <pt x="517" y="643" on="1"/>
        <pt x="517" y="602" on="0"/>
        <pt x="535" y="513" on="0"/>
        <pt x="560" y="437" on="0"/>
        <pt x="588" y="383" on="0"/>
        <pt x="598" y="377" on="1"/>
        <pt x="598" y="318" on="0"/>
        <pt x="639" y="186" on="0"/>
        <pt x="704" y="66" on="0"/>
        <pt x="785" y="-29" on="0"/>
        <pt x="824" y="-53" on="1"/>
      </contour>
      <contour>
        <pt x="369" y="221" on="1"/>
        <pt x="386" y="244" on="0"/>
        <pt x="429" y="297" on="0"/>
        <pt x="447" y="323" on="1"/>
        <pt x="370" y="573" on="1"/>
        <pt x="291" y="315" on="1"/>
        <pt x="311" y="294" on="0"/>
        <pt x="352" y="242" on="0"/>
      </contour>
    </TTGlyph>
    <TTGlyph name="Atilde" xMin="-17" yMin="-56" xMax="824" yMax="943">
      <contour>
        <pt x="823" y="-56" on="1"/>
        <pt x="766" y="-36" on="0"/>
        <pt x="655" y="11" on="0"/>
        <pt x="601" y="43" on="1"/>
        <pt x="588" y="30" on="0"/>
        <pt x="568" y="12" on="0"/>
        <pt x="546" y="-1" on="0"/>
        <pt x="521" y="-10" on="0"/>
        <pt x="504" y="-14" on="1"/>
        <pt x="514" y="-2" on="0"/>
        <pt x="522" y="32" on="0"/>
        <pt x="522" y="50" on="1"/>
        <pt x="522" y="79" on="0"/>
        <pt x="507" y="134" on="0"/>
        <pt x="501" y="153" on="1"/>
        <pt x="477" y="229" on="1"/>
        <pt x="448" y="191" on="0"/>
        <pt x="391" y="99" on="0"/>
        <pt x="370" y="57" on="1"/>
        <pt x="353" y="81" on="0"/>
        <pt x="296" y="169" on="0"/>
        <pt x="261" y="220" on="1"/>
        <pt x="245" y="168" on="1"/>
        <pt x="239" y="148" on="0"/>
        <pt x="232" y="108" on="0"/>
        <pt x="232" y="87" on="1"/>
        <pt x="232" y="56" on="0"/>
        <pt x="248" y="-4" on="0"/>
        <pt x="266" y="-30" on="1"/>
        <pt x="246" y="-23" on="0"/>
        <pt x="219" y="-9" on="0"/>
        <pt x="196" y="9" on="0"/>
        <pt x="173" y="30" on="0"/>
        <pt x="158" y="44" on="1"/>
        <pt x="116" y="4" on="0"/>
        <pt x="34" y="-29" on="0"/>
        <pt x="-17" y="-30" on="1"/>
        <pt x="2" y="-27" on="0"/>
        <pt x="44" y="16" on="0"/>
        <pt x="84" y="85" on="0"/>
        <pt x="121" y="173" on="0"/>
        <pt x="135" y="222" on="1"/>
        <pt x="167" y="334" on="1"/>
        <pt x="132" y="371" on="0"/>
        <pt x="50" y="424" on="0"/>
        <pt x="17" y="424" on="1"/>
        <pt x="15" y="424" on="0"/>
        <pt x="9" y="424" on="0"/>
        <pt x="0" y="423" on="1"/>
        <pt x="-1" y="426" on="1"/>
        <pt x="42" y="448" on="0"/>
        <pt x="79" y="448" on="1"/>
        <pt x="104" y="448" on="0"/>
        <pt x="156" y="429" on="0"/>
        <pt x="190" y="410" on="1"/>
        <pt x="244" y="595" on="1"/>
        <pt x="249" y="612" on="0"/>
        <pt x="253" y="638" on="0"/>
        <pt x="253" y="646" on="1"/>
        <pt x="253" y="667" on="0"/>
        <pt x="228" y="685" on="0"/>
        <pt x="196" y="685" on="1"/>
        <pt x="176" y="685" on="0"/>
        <pt x="130" y="679" on="0"/>
        <pt x="98" y="673" on="1"/>
        <pt x="104" y="682" on="0"/>
        <pt x="150" y="706" on="0"/>
        <pt x="215" y="728" on="0"/>
        <pt x="290" y="743" on="0"/>
        <pt x="325" y="743" on="1"/>
        <pt x="351" y="743" on="0"/>
        <pt x="399" y="731" on="0"/>
        <pt x="411" y="716" on="1"/>
        <pt x="429" y="717" on="0"/>
        <pt x="471" y="725" on="0"/>
        <pt x="509" y="736" on="0"/>
        <pt x="539" y="747" on="0"/>
        <pt x="544" y="750" on="1"/>
        <pt x="530" y="730" on="0"/>
        <pt x="517" y="675" on="0"/>
        <pt x="517" y="643" on="1"/>
        <pt x="517" y="602" on="0"/>
        <pt x="535" y="513" on="0"/>
        <pt x="560" y="437" on="0"/>
        <pt x="588" y="383" on="0"/>
        <pt x="598" y="377" on="1"/>
        <pt x="598" y="318" on="0"/>
        <pt x="639" y="186" on="0"/>
        <pt x="704" y="66" on="0"/>
        <pt x="785" y="-29" on="0"/>
        <pt x="824" y="-53" on="1"/>
      </contour>
      <contour>
        <pt x="369" y="221" on="1"/>
        <pt x="386" y="244" on="0"/>
        <pt x="429" y="297" on="0"/>
        <pt x="447" y="323" on="1"/>
        <pt x="370" y="573" on="1"/>
        <pt x="291" y="315" on="1"/>
        <pt x="311" y="294" on="0"/>
        <pt x="352" y="242" on="0"/>
      </contour>
      <contour>
        <pt x="202" y="899" on="1"/>
        <pt x="233" y="901" on="0"/>
        <pt x="302" y="928" on="0"/>
        <pt x="325" y="942" on="1"/>
        <pt x="416" y="898" on="1"/>
        <pt x="451" y="900" on="0"/>
        <pt x="511" y="928" on="0"/>
        <pt x="539" y="943" on="1"/>
        <pt x="539" y="825" on="1"/>
        <pt x="497" y="824" on="0"/>
        <pt x="436" y="801" on="0"/>
        <pt x="417" y="783" on="1"/>
        <pt x="324" y="827" on="1"/>
        <pt x="272" y="826" on="0"/>
        <pt x="217" y="797" on="0"/>
        <pt x="202" y="783" on="1"/>
      </contour>
    </TTGlyph>
    <TTGlyph name="B" xMin="29" yMin="-90" xMax="645" yMax="767">
      <contour>
        <pt x="267" y="632" on="1"/>
        <pt x="265" y="591" on="0"/>
        <pt x="265" y="511" on="0"/>
        <pt x="265" y="471" on="1"/>
        <pt x="265" y="452" on="0"/>
        <pt x="265" y="415" on="0"/>
        <pt x="267" y="395" on="1"/>
        <pt x="328" y="409" on="0"/>
        <pt x="421" y="451" on="0"/>
        <pt x="460" y="484" on="1"/>
        <pt x="459" y="496" on="0"/>
        <pt x="458" y="539" on="0"/>
        <pt x="458" y="548" on="1"/>
        <pt x="458" y="559" on="0"/>
        <pt x="460" y="579" on="0"/>
        <pt x="462" y="593" on="1"/>
        <pt x="402" y="594" on="0"/>
        <pt x="309" y="612" on="0"/>
      </contour>
      <contour>
        <pt x="627" y="356" on="1"/>
        <pt x="602" y="296" on="0"/>
        <pt x="602" y="222" on="1"/>
        <pt x="602" y="199" on="0"/>
        <pt x="607" y="148" on="0"/>
        <pt x="618" y="98" on="0"/>
        <pt x="634" y="52" on="0"/>
        <pt x="645" y="34" on="1"/>
        <pt x="617" y="29" on="0"/>
        <pt x="543" y="14" on="0"/>
        <pt x="462" y="-13" on="0"/>
        <pt x="382" y="-57" on="0"/>
        <pt x="349" y="-90" on="1"/>
        <pt x="317" y="-62" on="0"/>
        <pt x="242" y="-21" on="0"/>
        <pt x="161" y="7" on="0"/>
        <pt x="77" y="25" on="0"/>
        <pt x="37" y="29" on="1"/>
        <pt x="35" y="33" on="1"/>
        <pt x="58" y="40" on="0"/>
        <pt x="92" y="79" on="0"/>
        <pt x="115" y="129" on="0"/>
        <pt x="126" y="184" on="0"/>
        <pt x="126" y="208" on="1"/>
        <pt x="126" y="224" on="0"/>
        <pt x="122" y="264" on="0"/>
        <pt x="114" y="303" on="0"/>
        <pt x="105" y="336" on="0"/>
        <pt x="100" y="346" on="1"/>
        <pt x="117" y="377" on="0"/>
        <pt x="130" y="449" on="0"/>
        <pt x="130" y="485" on="1"/>
        <pt x="130" y="520" on="0"/>
        <pt x="120" y="584" on="0"/>
        <pt x="112" y="610" on="1"/>
        <pt x="77" y="621" on="0"/>
        <pt x="34" y="671" on="0"/>
        <pt x="29" y="722" on="1"/>
        <pt x="61" y="717" on="0"/>
        <pt x="122" y="709" on="0"/>
        <pt x="152" y="709" on="1"/>
        <pt x="197" y="709" on="0"/>
        <pt x="276" y="734" on="0"/>
        <pt x="318" y="767" on="1"/>
        <pt x="327" y="758" on="0"/>
        <pt x="380" y="730" on="0"/>
        <pt x="451" y="704" on="0"/>
        <pt x="532" y="685" on="0"/>
        <pt x="568" y="685" on="1"/>
        <pt x="582" y="685" on="0"/>
        <pt x="608" y="687" on="0"/>
        <pt x="622" y="689" on="1"/>
        <pt x="619" y="680" on="0"/>
        <pt x="612" y="655" on="0"/>
        <pt x="601" y="630" on="0"/>
        <pt x="588" y="609" on="0"/>
        <pt x="579" y="604" on="1"/>
        <pt x="578" y="595" on="0"/>
        <pt x="577" y="576" on="0"/>
        <pt x="577" y="566" on="1"/>
        <pt x="577" y="538" on="0"/>
        <pt x="585" y="479" on="0"/>
        <pt x="595" y="447" on="1"/>
        <pt x="568" y="436" on="0"/>
        <pt x="491" y="390" on="0"/>
        <pt x="446" y="373" on="1"/>
        <pt x="481" y="366" on="0"/>
        <pt x="547" y="358" on="0"/>
        <pt x="581" y="358" on="1"/>
        <pt x="604" y="358" on="0"/>
        <pt x="624" y="361" on="1"/>
      </contour>
      <contour>
        <pt x="465" y="265" on="1"/>
        <pt x="432" y="275" on="0"/>
        <pt x="383" y="290" on="0"/>
        <pt x="338" y="302" on="0"/>
        <pt x="292" y="311" on="0"/>
        <pt x="263" y="316" on="1"/>
        <pt x="260" y="289" on="0"/>
        <pt x="257" y="227" on="0"/>
        <pt x="257" y="201" on="1"/>
        <pt x="257" y="171" on="0"/>
        <pt x="260" y="123" on="0"/>
        <pt x="265" y="93" on="1"/>
        <pt x="275" y="90" on="0"/>
        <pt x="303" y="79" on="0"/>
        <pt x="331" y="67" on="0"/>
        <pt x="357" y="53" on="0"/>
        <pt x="366" y="47" on="1"/>
        <pt x="393" y="67" on="0"/>
        <pt x="441" y="92" on="0"/>
        <pt x="477" y="106" on="1"/>
        <pt x="472" y="137" on="0"/>
        <pt x="467" y="223" on="0"/>
      </contour>
    </TTGlyph>
    <TTGlyph name="C" xMin="39" yMin="-43" xMax="577" yMax="746">
      <contour>
        <pt x="46" y="0" on="1"/>
        <pt x="61" y="9" on="0"/>
        <pt x="84" y="59" on="0"/>
        <pt x="101" y="123" on="0"/>
        <pt x="109" y="192" on="0"/>
        <pt x="109" y="221" on="1"/>
        <pt x="109" y="266" on="0"/>
        <pt x="90" y="348" on="0"/>
        <pt x="73" y="369" on="1"/>
        <pt x="89" y="385" on="0"/>
        <pt x="110" y="438" on="0"/>
        <pt x="122" y="499" on="0"/>
        <pt x="126" y="563" on="0"/>
        <pt x="126" y="591" on="1"/>
        <pt x="126" y="614" on="0"/>
        <pt x="124" y="648" on="0"/>
        <pt x="123" y="657" on="1"/>
        <pt x="100" y="665" on="0"/>
        <pt x="51" y="715" on="0"/>
        <pt x="39" y="744" on="1"/>
        <pt x="103" y="737" on="0"/>
        <pt x="218" y="732" on="0"/>
        <pt x="269" y="732" on="1"/>
        <pt x="378" y="732" on="0"/>
        <pt x="512" y="746" on="0"/>
        <pt x="551" y="746" on="1"/>
        <pt x="559" y="746" on="0"/>
        <pt x="571" y="745" on="0"/>
        <pt x="576" y="744" on="1"/>
        <pt x="570" y="732" on="0"/>
        <pt x="557" y="666" on="0"/>
        <pt x="545" y="588" on="0"/>
        <pt x="536" y="514" on="0"/>
        <pt x="534" y="495" on="1"/>
        <pt x="527" y="492" on="1"/>
        <pt x="492" y="518" on="0"/>
        <pt x="461" y="581" on="0"/>
        <pt x="453" y="627" on="1"/>
        <pt x="439" y="638" on="0"/>
        <pt x="397" y="644" on="0"/>
        <pt x="365" y="644" on="1"/>
        <pt x="339" y="644" on="0"/>
        <pt x="291" y="642" on="0"/>
        <pt x="277" y="642" on="1"/>
        <pt x="272" y="613" on="0"/>
        <pt x="265" y="537" on="0"/>
        <pt x="260" y="451" on="0"/>
        <pt x="257" y="358" on="0"/>
        <pt x="257" y="312" on="1"/>
        <pt x="257" y="249" on="0"/>
        <pt x="260" y="136" on="0"/>
        <pt x="264" y="94" on="1"/>
        <pt x="433" y="77" on="1"/>
        <pt x="447" y="139" on="0"/>
        <pt x="518" y="235" on="0"/>
        <pt x="559" y="280" on="1"/>
        <pt x="565" y="278" on="1"/>
        <pt x="562" y="255" on="0"/>
        <pt x="560" y="210" on="0"/>
        <pt x="560" y="189" on="1"/>
        <pt x="560" y="137" on="0"/>
        <pt x="570" y="53" on="0"/>
        <pt x="577" y="32" on="1"/>
        <pt x="560" y="30" on="0"/>
        <pt x="527" y="23" on="0"/>
        <pt x="489" y="7" on="0"/>
        <pt x="446" y="-21" on="0"/>
        <pt x="420" y="-43" on="1"/>
        <pt x="336" y="-18" on="0"/>
        <pt x="172" y="7" on="0"/>
        <pt x="106" y="7" on="1"/>
        <pt x="74" y="7" on="0"/>
        <pt x="47" y="-3" on="1"/>
      </contour>
    </TTGlyph>
    <TTGlyph name="Cacute" xMin="39" yMin="-43" xMax="577" yMax="943">
      <contour>
        <pt x="46" y="0" on="1"/>
        <pt x="61" y="9" on="0"/>
        <pt x="84" y="59" on="0"/>
        <pt x="101" y="123" on="0"/>
        <pt x="109" y="192" on="0"/>
        <pt x="109" y="221" on="1"/>
        <pt x="109" y="266" on="0"/>
        <pt x="90" y="348" on="0"/>
        <pt x="73" y="369" on="1"/>
        <pt x="89" y="385" on="0"/>
        <pt x="110" y="438" on="0"/>
        <pt x="122" y="499" on="0"/>
        <pt x="126" y="563" on="0"/>
        <pt x="126" y="591" on="1"/>
        <pt x="126" y="614" on="0"/>
        <pt x="124" y="648" on="0"/>
        <pt x="123" y="657" on="1"/>
        <pt x="100" y="665" on="0"/>
        <pt x="51" y="715" on="0"/>
        <pt x="39" y="744" on="1"/>
        <pt x="103" y="737" on="0"/>
        <pt x="218" y="732" on="0"/>
        <pt x="269" y="732" on="1"/>
        <pt x="378" y="732" on="0"/>
        <pt x="512" y="746" on="0"/>
        <pt x="551" y="746" on="1"/>
        <pt x="559" y="746" on="0"/>
        <pt x="571" y="745" on="0"/>
        <pt x="576" y="744" on="1"/>
        <pt x="570" y="732" on="0"/>
        <pt x="557" y="666" on="0"/>
        <pt x="545" y="588" on="0"/>
        <pt x="536" y="514" on="0"/>
        <pt x="534" y="495" on="1"/>
        <pt x="527" y="492" on="1"/>
        <pt x="492" y="518" on="0"/>
        <pt x="461" y="581" on="0"/>
        <pt x="453" y="627" on="1"/>
        <pt x="439" y="638" on="0"/>
        <pt x="397" y="644" on="0"/>
        <pt x="365" y="644" on="1"/>
        <pt x="339" y="644" on="0"/>
        <pt x="291" y="642" on="0"/>
        <pt x="277" y="642" on="1"/>
        <pt x="272" y="613" on="0"/>
        <pt x="265" y="537" on="0"/>
        <pt x="260" y="451" on="0"/>
        <pt x="257" y="358" on="0"/>
        <pt x="257" y="312" on="1"/>
        <pt x="257" y="249" on="0"/>
        <pt x="260" y="136" on="0"/>
        <pt x="264" y="94" on="1"/>
        <pt x="433" y="77" on="1"/>
        <pt x="447" y="139" on="0"/>
        <pt x="518" y="235" on="0"/>
        <pt x="559" y="280" on="1"/>
        <pt x="565" y="278" on="1"/>
        <pt x="562" y="255" on="0"/>
        <pt x="560" y="210" on="0"/>
        <pt x="560" y="189" on="1"/>
        <pt x="560" y="137" on="0"/>
        <pt x="570" y="53" on="0"/>
        <pt x="577" y="32" on="1"/>
        <pt x="560" y="30" on="0"/>
        <pt x="527" y="23" on="0"/>
        <pt x="489" y="7" on="0"/>
        <pt x="446" y="-21" on="0"/>
        <pt x="420" y="-43" on="1"/>
        <pt x="336" y="-18" on="0"/>
        <pt x="172" y="7" on="0"/>
        <pt x="106" y="7" on="1"/>
        <pt x="74" y="7" on="0"/>
        <pt x="47" y="-3" on="1"/>
      </contour>
      <contour>
        <pt x="250" y="847" on="1"/>
        <pt x="262" y="854" on="0"/>
        <pt x="313" y="878" on="0"/>
        <pt x="371" y="905" on="0"/>
        <pt x="426" y="932" on="0"/>
        <pt x="443" y="943" on="1"/>
        <pt x="445" y="933" on="0"/>
        <pt x="457" y="901" on="0"/>
        <pt x="471" y="868" on="0"/>
        <pt x="485" y="839" on="0"/>
        <pt x="489" y="832" on="1"/>
        <pt x="478" y="831" on="0"/>
        <pt x="427" y="822" on="0"/>
        <pt x="363" y="810" on="0"/>
        <pt x="296" y="796" on="0"/>
        <pt x="271" y="789" on="1"/>
        <pt x="263" y="808" on="0"/>
        <pt x="258" y="830" on="0"/>
      </contour>
    </TTGlyph>
    <TTGlyph name="Ccaron" xMin="39" yMin="-43" xMax="577" yMax="945">
      <contour>
        <pt x="46" y="0" on="1"/>
        <pt x="61" y="9" on="0"/>
        <pt x="84" y="59" on="0"/>
        <pt x="101" y="123" on="0"/>
        <pt x="109" y="192" on="0"/>
        <pt x="109" y="221" on="1"/>
        <pt x="109" y="266" on="0"/>
        <pt x="90" y="348" on="0"/>
        <pt x="73" y="369" on="1"/>
        <pt x="89" y="385" on="0"/>
        <pt x="110" y="438" on="0"/>
        <pt x="122" y="499" on="0"/>
        <pt x="126" y="563" on="0"/>
        <pt x="126" y="591" on="1"/>
        <pt x="126" y="614" on="0"/>
        <pt x="124" y="648" on="0"/>
        <pt x="123" y="657" on="1"/>
        <pt x="100" y="665" on="0"/>
        <pt x="51" y="715" on="0"/>
        <pt x="39" y="744" on="1"/>
        <pt x="103" y="737" on="0"/>
        <pt x="218" y="732" on="0"/>
        <pt x="269" y="732" on="1"/>
        <pt x="378" y="732" on="0"/>
        <pt x="512" y="746" on="0"/>
        <pt x="551" y="746" on="1"/>
        <pt x="559" y="746" on="0"/>
        <pt x="571" y="745" on="0"/>
        <pt x="576" y="744" on="1"/>
        <pt x="570" y="732" on="0"/>
        <pt x="557" y="666" on="0"/>
        <pt x="545" y="588" on="0"/>
        <pt x="536" y="514" on="0"/>
        <pt x="534" y="495" on="1"/>
        <pt x="527" y="492" on="1"/>
        <pt x="492" y="518" on="0"/>
        <pt x="461" y="581" on="0"/>
        <pt x="453" y="627" on="1"/>
        <pt x="439" y="638" on="0"/>
        <pt x="397" y="644" on="0"/>
        <pt x="365" y="644" on="1"/>
        <pt x="339" y="644" on="0"/>
        <pt x="291" y="642" on="0"/>
        <pt x="277" y="642" on="1"/>
        <pt x="272" y="613" on="0"/>
        <pt x="265" y="537" on="0"/>
        <pt x="260" y="451" on="0"/>
        <pt x="257" y="358" on="0"/>
        <pt x="257" y="312" on="1"/>
        <pt x="257" y="249" on="0"/>
        <pt x="260" y="136" on="0"/>
        <pt x="264" y="94" on="1"/>
        <pt x="433" y="77" on="1"/>
        <pt x="447" y="139" on="0"/>
        <pt x="518" y="235" on="0"/>
        <pt x="559" y="280" on="1"/>
        <pt x="565" y="278" on="1"/>
        <pt x="562" y="255" on="0"/>
        <pt x="560" y="210" on="0"/>
        <pt x="560" y="189" on="1"/>
        <pt x="560" y="137" on="0"/>
        <pt x="570" y="53" on="0"/>
        <pt x="577" y="32" on="1"/>
        <pt x="560" y="30" on="0"/>
        <pt x="527" y="23" on="0"/>
        <pt x="489" y="7" on="0"/>
        <pt x="446" y="-21" on="0"/>
        <pt x="420" y="-43" on="1"/>
        <pt x="336" y="-18" on="0"/>
        <pt x="172" y="7" on="0"/>
        <pt x="106" y="7" on="1"/>
        <pt x="74" y="7" on="0"/>
        <pt x="47" y="-3" on="1"/>
      </contour>
      <contour>
        <pt x="490" y="903" on="1"/>
        <pt x="476" y="891" on="0"/>
        <pt x="385" y="831" on="0"/>
        <pt x="319" y="786" on="1"/>
        <pt x="277" y="818" on="0"/>
        <pt x="184" y="877" on="0"/>
        <pt x="149" y="903" on="1"/>
        <pt x="164" y="916" on="0"/>
        <pt x="179" y="931" on="0"/>
        <pt x="195" y="945" on="1"/>
        <pt x="207" y="939" on="0"/>
        <pt x="238" y="924" on="0"/>
        <pt x="272" y="909" on="0"/>
        <pt x="306" y="896" on="0"/>
        <pt x="320" y="891" on="1"/>
        <pt x="333" y="895" on="0"/>
        <pt x="366" y="908" on="0"/>
        <pt x="400" y="923" on="0"/>
        <pt x="432" y="938" on="0"/>
        <pt x="444" y="945" on="1"/>
        <pt x="459" y="931" on="0"/>
        <pt x="475" y="915" on="0"/>
      </contour>
    </TTGlyph>
    <TTGlyph name="Ccedilla" xMin="41" yMin="-283" xMax="579" yMax="746">
      <contour>
        <pt x="284" y="-116" on="1"/>
        <pt x="284" y="-110" on="0"/>
        <pt x="284" y="-97" on="0"/>
        <pt x="285" y="-74" on="0"/>
        <pt x="285" y="-38" on="0"/>
        <pt x="285" y="-10" on="1"/>
        <pt x="237" y="-2" on="0"/>
        <pt x="146" y="7" on="0"/>
        <pt x="108" y="7" on="1"/>
        <pt x="76" y="7" on="0"/>
        <pt x="49" y="-3" on="1"/>
        <pt x="48" y="0" on="1"/>
        <pt x="63" y="9" on="0"/>
        <pt x="86" y="59" on="0"/>
        <pt x="103" y="123" on="0"/>
        <pt x="111" y="192" on="0"/>
        <pt x="111" y="221" on="1"/>
        <pt x="111" y="266" on="0"/>
        <pt x="92" y="348" on="0"/>
        <pt x="75" y="369" on="1"/>
        <pt x="91" y="385" on="0"/>
        <pt x="112" y="438" on="0"/>
        <pt x="124" y="499" on="0"/>
        <pt x="128" y="563" on="0"/>
        <pt x="128" y="591" on="1"/>
        <pt x="128" y="614" on="0"/>
        <pt x="126" y="648" on="0"/>
        <pt x="125" y="657" on="1"/>
        <pt x="102" y="665" on="0"/>
        <pt x="53" y="715" on="0"/>
        <pt x="41" y="744" on="1"/>
        <pt x="105" y="737" on="0"/>
        <pt x="220" y="732" on="0"/>
        <pt x="271" y="732" on="1"/>
        <pt x="380" y="732" on="0"/>
        <pt x="514" y="746" on="0"/>
        <pt x="553" y="746" on="1"/>
        <pt x="561" y="746" on="0"/>
        <pt x="573" y="745" on="0"/>
        <pt x="578" y="744" on="1"/>
        <pt x="572" y="732" on="0"/>
        <pt x="559" y="666" on="0"/>
        <pt x="547" y="588" on="0"/>
        <pt x="538" y="514" on="0"/>
        <pt x="536" y="495" on="1"/>
        <pt x="529" y="492" on="1"/>
        <pt x="494" y="518" on="0"/>
        <pt x="463" y="581" on="0"/>
        <pt x="455" y="627" on="1"/>
        <pt x="441" y="638" on="0"/>
        <pt x="399" y="644" on="0"/>
        <pt x="367" y="644" on="1"/>
        <pt x="341" y="644" on="0"/>
        <pt x="293" y="642" on="0"/>
        <pt x="279" y="642" on="1"/>
        <pt x="274" y="613" on="0"/>
        <pt x="267" y="537" on="0"/>
        <pt x="262" y="451" on="0"/>
        <pt x="259" y="358" on="0"/>
        <pt x="259" y="312" on="1"/>
        <pt x="259" y="249" on="0"/>
        <pt x="262" y="136" on="0"/>
        <pt x="266" y="94" on="1"/>
        <pt x="435" y="77" on="1"/>
        <pt x="449" y="139" on="0"/>
        <pt x="520" y="235" on="0"/>
        <pt x="561" y="280" on="1"/>
        <pt x="567" y="278" on="1"/>
        <pt x="564" y="255" on="0"/>
        <pt x="562" y="210" on="0"/>
        <pt x="562" y="189" on="1"/>
        <pt x="562" y="137" on="0"/>
        <pt x="572" y="53" on="0"/>
        <pt x="579" y="32" on="1"/>
        <pt x="562" y="30" on="0"/>
        <pt x="529" y="23" on="0"/>
        <pt x="491" y="7" on="0"/>
        <pt x="448" y="-21" on="0"/>
        <pt x="422" y="-43" on="1"/>
        <pt x="406" y="-38" on="0"/>
        <pt x="375" y="-30" on="0"/>
        <pt x="359" y="-26" on="1"/>
        <pt x="359" y="-79" on="1"/>
        <pt x="420" y="-79" on="1"/>
        <pt x="462" y="-110" on="1"/>
        <pt x="462" y="-118" on="0"/>
        <pt x="462" y="-161" on="0"/>
        <pt x="463" y="-208" on="0"/>
        <pt x="465" y="-246" on="0"/>
        <pt x="467" y="-248" on="1"/>
        <pt x="452" y="-248" on="0"/>
        <pt x="415" y="-254" on="0"/>
        <pt x="378" y="-265" on="0"/>
        <pt x="346" y="-277" on="0"/>
        <pt x="337" y="-283" on="1"/>
        <pt x="311" y="-251" on="0"/>
        <pt x="276" y="-251" on="1"/>
        <pt x="267" y="-251" on="0"/>
        <pt x="248" y="-255" on="0"/>
        <pt x="238" y="-260" on="1"/>
        <pt x="250" y="-229" on="0"/>
        <pt x="291" y="-199" on="0"/>
        <pt x="312" y="-199" on="1"/>
        <pt x="319" y="-199" on="0"/>
        <pt x="340" y="-202" on="0"/>
        <pt x="362" y="-207" on="0"/>
        <pt x="382" y="-215" on="0"/>
        <pt x="388" y="-221" on="1"/>
        <pt x="388" y="-218" on="0"/>
        <pt x="387" y="-201" on="0"/>
        <pt x="387" y="-177" on="0"/>
        <pt x="386" y="-149" on="0"/>
        <pt x="386" y="-135" on="1"/>
        <pt x="366" y="-131" on="0"/>
        <pt x="341" y="-131" on="1"/>
        <pt x="317" y="-131" on="0"/>
        <pt x="302" y="-135" on="1"/>
      </contour>
    </TTGlyph>
    <TTGlyph name="Ccircumflex" xMin="39" yMin="-43" xMax="577" yMax="945">
      <contour>
        <pt x="46" y="0" on="1"/>
        <pt x="61" y="9" on="0"/>
        <pt x="84" y="59" on="0"/>
        <pt x="101" y="123" on="0"/>
        <pt x="109" y="192" on="0"/>
        <pt x="109" y="221" on="1"/>
        <pt x="109" y="266" on="0"/>
        <pt x="90" y="348" on="0"/>
        <pt x="73" y="369" on="1"/>
        <pt x="89" y="385" on="0"/>
        <pt x="110" y="438" on="0"/>
        <pt x="122" y="499" on="0"/>
        <pt x="126" y="563" on="0"/>
        <pt x="126" y="591" on="1"/>
        <pt x="126" y="614" on="0"/>
        <pt x="124" y="648" on="0"/>
        <pt x="123" y="657" on="1"/>
        <pt x="100" y="665" on="0"/>
        <pt x="51" y="715" on="0"/>
        <pt x="39" y="744" on="1"/>
        <pt x="103" y="737" on="0"/>
        <pt x="218" y="732" on="0"/>
        <pt x="269" y="732" on="1"/>
        <pt x="378" y="732" on="0"/>
        <pt x="512" y="746" on="0"/>
        <pt x="551" y="746" on="1"/>
        <pt x="559" y="746" on="0"/>
        <pt x="571" y="745" on="0"/>
        <pt x="576" y="744" on="1"/>
        <pt x="570" y="732" on="0"/>
        <pt x="557" y="666" on="0"/>
        <pt x="545" y="588" on="0"/>
        <pt x="536" y="514" on="0"/>
        <pt x="534" y="495" on="1"/>
        <pt x="527" y="492" on="1"/>
        <pt x="492" y="518" on="0"/>
        <pt x="461" y="581" on="0"/>
        <pt x="453" y="627" on="1"/>
        <pt x="439" y="638" on="0"/>
        <pt x="397" y="644" on="0"/>
        <pt x="365" y="644" on="1"/>
        <pt x="339" y="644" on="0"/>
        <pt x="291" y="642" on="0"/>
        <pt x="277" y="642" on="1"/>
        <pt x="272" y="613" on="0"/>
        <pt x="265" y="537" on="0"/>
        <pt x="260" y="451" on="0"/>
        <pt x="257" y="358" on="0"/>
        <pt x="257" y="312" on="1"/>
        <pt x="257" y="249" on="0"/>
        <pt x="260" y="136" on="0"/>
        <pt x="264" y="94" on="1"/>
        <pt x="433" y="77" on="1"/>
        <pt x="447" y="139" on="0"/>
        <pt x="518" y="235" on="0"/>
        <pt x="559" y="280" on="1"/>
        <pt x="565" y="278" on="1"/>
        <pt x="562" y="255" on="0"/>
        <pt x="560" y="210" on="0"/>
        <pt x="560" y="189" on="1"/>
        <pt x="560" y="137" on="0"/>
        <pt x="570" y="53" on="0"/>
        <pt x="577" y="32" on="1"/>
        <pt x="560" y="30" on="0"/>
        <pt x="527" y="23" on="0"/>
        <pt x="489" y="7" on="0"/>
        <pt x="446" y="-21" on="0"/>
        <pt x="420" y="-43" on="1"/>
        <pt x="336" y="-18" on="0"/>
        <pt x="172" y="7" on="0"/>
        <pt x="106" y="7" on="1"/>
        <pt x="74" y="7" on="0"/>
        <pt x="47" y="-3" on="1"/>
      </contour>
      <contour>
        <pt x="490" y="828" on="1"/>
        <pt x="475" y="816" on="0"/>
        <pt x="459" y="800" on="0"/>
        <pt x="444" y="786" on="1"/>
        <pt x="432" y="793" on="0"/>
        <pt x="400" y="808" on="0"/>
        <pt x="366" y="822" on="0"/>
        <pt x="333" y="835" on="0"/>
        <pt x="320" y="840" on="1"/>
        <pt x="306" y="835" on="0"/>
        <pt x="272" y="822" on="0"/>
        <pt x="238" y="807" on="0"/>
        <pt x="207" y="792" on="0"/>
        <pt x="195" y="786" on="1"/>
        <pt x="179" y="799" on="0"/>
        <pt x="164" y="816" on="0"/>
        <pt x="149" y="828" on="1"/>
        <pt x="184" y="854" on="0"/>
        <pt x="277" y="913" on="0"/>
        <pt x="319" y="945" on="1"/>
        <pt x="385" y="900" on="0"/>
        <pt x="476" y="840" on="0"/>
      </contour>
    </TTGlyph>
    <TTGlyph name="Cdotaccent" xMin="39" yMin="-43" xMax="577" yMax="945">
      <contour>
        <pt x="46" y="0" on="1"/>
        <pt x="61" y="9" on="0"/>
        <pt x="84" y="59" on="0"/>
        <pt x="101" y="123" on="0"/>
        <pt x="109" y="192" on="0"/>
        <pt x="109" y="221" on="1"/>
        <pt x="109" y="266" on="0"/>
        <pt x="90" y="348" on="0"/>
        <pt x="73" y="369" on="1"/>
        <pt x="89" y="385" on="0"/>
        <pt x="110" y="438" on="0"/>
        <pt x="122" y="499" on="0"/>
        <pt x="126" y="563" on="0"/>
        <pt x="126" y="591" on="1"/>
        <pt x="126" y="614" on="0"/>
        <pt x="124" y="648" on="0"/>
        <pt x="123" y="657" on="1"/>
        <pt x="100" y="665" on="0"/>
        <pt x="51" y="715" on="0"/>
        <pt x="39" y="744" on="1"/>
        <pt x="103" y="737" on="0"/>
        <pt x="218" y="732" on="0"/>
        <pt x="269" y="732" on="1"/>
        <pt x="378" y="732" on="0"/>
        <pt x="512" y="746" on="0"/>
        <pt x="551" y="746" on="1"/>
        <pt x="559" y="746" on="0"/>
        <pt x="571" y="745" on="0"/>
        <pt x="576" y="744" on="1"/>
        <pt x="570" y="732" on="0"/>
        <pt x="557" y="666" on="0"/>
        <pt x="545" y="588" on="0"/>
        <pt x="536" y="514" on="0"/>
        <pt x="534" y="495" on="1"/>
        <pt x="527" y="492" on="1"/>
        <pt x="492" y="518" on="0"/>
        <pt x="461" y="581" on="0"/>
        <pt x="453" y="627" on="1"/>
        <pt x="439" y="638" on="0"/>
        <pt x="397" y="644" on="0"/>
        <pt x="365" y="644" on="1"/>
        <pt x="339" y="644" on="0"/>
        <pt x="291" y="642" on="0"/>
        <pt x="277" y="642" on="1"/>
        <pt x="272" y="613" on="0"/>
        <pt x="265" y="537" on="0"/>
        <pt x="260" y="451" on="0"/>
        <pt x="257" y="358" on="0"/>
        <pt x="257" y="312" on="1"/>
        <pt x="257" y="249" on="0"/>
        <pt x="260" y="136" on="0"/>
        <pt x="264" y="94" on="1"/>
        <pt x="433" y="77" on="1"/>
        <pt x="447" y="139" on="0"/>
        <pt x="518" y="235" on="0"/>
        <pt x="559" y="280" on="1"/>
        <pt x="565" y="278" on="1"/>
        <pt x="562" y="255" on="0"/>
        <pt x="560" y="210" on="0"/>
        <pt x="560" y="189" on="1"/>
        <pt x="560" y="137" on="0"/>
        <pt x="570" y="53" on="0"/>
        <pt x="577" y="32" on="1"/>
        <pt x="560" y="30" on="0"/>
        <pt x="527" y="23" on="0"/>
        <pt x="489" y="7" on="0"/>
        <pt x="446" y="-21" on="0"/>
        <pt x="420" y="-43" on="1"/>
        <pt x="336" y="-18" on="0"/>
        <pt x="172" y="7" on="0"/>
        <pt x="106" y="7" on="1"/>
        <pt x="74" y="7" on="0"/>
        <pt x="47" y="-3" on="1"/>
      </contour>
      <contour>
        <pt x="238" y="854" on="1"/>
        <pt x="254" y="880" on="0"/>
        <pt x="297" y="931" on="0"/>
        <pt x="324" y="945" on="1"/>
        <pt x="330" y="938" on="0"/>
        <pt x="352" y="919" on="0"/>
        <pt x="378" y="899" on="0"/>
        <pt x="402" y="882" on="0"/>
        <pt x="408" y="878" on="1"/>
        <pt x="378" y="856" on="0"/>
        <pt x="335" y="816" on="0"/>
        <pt x="320" y="786" on="1"/>
        <pt x="315" y="793" on="0"/>
        <pt x="293" y="812" on="0"/>
        <pt x="268" y="832" on="0"/>
        <pt x="245" y="849" on="0"/>
      </contour>
    </TTGlyph>
    <TTGlyph name="D" xMin="15" yMin="-54" xMax="662" yMax="755">
      <contour>
        <pt x="596" y="683" on="1"/>
        <pt x="599" y="635" on="0"/>
        <pt x="610" y="570" on="0"/>
        <pt x="626" y="511" on="0"/>
        <pt x="648" y="444" on="0"/>
        <pt x="662" y="394" on="1"/>
        <pt x="652" y="374" on="0"/>
        <pt x="637" y="313" on="0"/>
        <pt x="626" y="247" on="0"/>
        <pt x="621" y="183" on="0"/>
        <pt x="621" y="159" on="1"/>
        <pt x="621" y="140" on="0"/>
        <pt x="624" y="104" on="0"/>
        <pt x="629" y="88" on="1"/>
        <pt x="571" y="77" on="0"/>
        <pt x="485" y="0" on="0"/>
        <pt x="443" y="-54" on="1"/>
        <pt x="362" y="-19" on="0"/>
        <pt x="149" y="10" on="0"/>
        <pt x="28" y="10" on="1"/>
        <pt x="39" y="16" on="0"/>
        <pt x="73" y="49" on="0"/>
        <pt x="105" y="92" on="0"/>
        <pt x="128" y="139" on="0"/>
        <pt x="128" y="159" on="1"/>
        <pt x="128" y="179" on="0"/>
        <pt x="127" y="229" on="0"/>
        <pt x="120" y="281" on="0"/>
        <pt x="105" y="330" on="0"/>
        <pt x="92" y="348" on="1"/>
        <pt x="103" y="360" on="0"/>
        <pt x="117" y="409" on="0"/>
        <pt x="124" y="468" on="0"/>
        <pt x="126" y="531" on="0"/>
        <pt x="126" y="557" on="1"/>
        <pt x="126" y="589" on="0"/>
        <pt x="116" y="635" on="0"/>
        <pt x="91" y="674" on="0"/>
        <pt x="48" y="712" on="0"/>
        <pt x="15" y="737" on="1"/>
        <pt x="86" y="737" on="0"/>
        <pt x="199" y="738" on="0"/>
        <pt x="295" y="741" on="0"/>
        <pt x="379" y="748" on="0"/>
        <pt x="421" y="755" on="1"/>
        <pt x="452" y="736" on="0"/>
        <pt x="548" y="696" on="0"/>
      </contour>
      <contour>
        <pt x="484" y="144" on="1"/>
        <pt x="484" y="166" on="0"/>
        <pt x="490" y="239" on="0"/>
        <pt x="501" y="314" on="0"/>
        <pt x="516" y="380" on="0"/>
        <pt x="525" y="396" on="1"/>
        <pt x="518" y="416" on="0"/>
        <pt x="500" y="477" on="0"/>
        <pt x="482" y="544" on="0"/>
        <pt x="468" y="611" on="0"/>
        <pt x="465" y="637" on="1"/>
        <pt x="449" y="637" on="0"/>
        <pt x="400" y="634" on="0"/>
        <pt x="343" y="627" on="0"/>
        <pt x="286" y="616" on="0"/>
        <pt x="262" y="608" on="1"/>
        <pt x="260" y="563" on="0"/>
        <pt x="258" y="446" on="0"/>
        <pt x="258" y="380" on="1"/>
        <pt x="258" y="316" on="0"/>
        <pt x="263" y="175" on="0"/>
        <pt x="269" y="100" on="1"/>
        <pt x="279" y="97" on="0"/>
        <pt x="312" y="89" on="0"/>
        <pt x="348" y="81" on="0"/>
        <pt x="383" y="74" on="0"/>
        <pt x="396" y="72" on="1"/>
        <pt x="410" y="95" on="0"/>
        <pt x="458" y="133" on="0"/>
      </contour>
    </TTGlyph>
    <TTGlyph name="Dcaron" xMin="15" yMin="-54" xMax="662" yMax="945">
      <contour>
        <pt x="596" y="683" on="1"/>
        <pt x="599" y="635" on="0"/>
        <pt x="610" y="570" on="0"/>
        <pt x="626" y="511" on="0"/>
        <pt x="648" y="444" on="0"/>
        <pt x="662" y="394" on="1"/>
        <pt x="652" y="374" on="0"/>
        <pt x="637" y="313" on="0"/>
        <pt x="626" y="247" on="0"/>
        <pt x="621" y="183" on="0"/>
        <pt x="621" y="159" on="1"/>
        <pt x="621" y="140" on="0"/>
        <pt x="624" y="104" on="0"/>
        <pt x="629" y="88" on="1"/>
        <pt x="571" y="77" on="0"/>
        <pt x="485" y="0" on="0"/>
        <pt x="443" y="-54" on="1"/>
        <pt x="362" y="-19" on="0"/>
        <pt x="149" y="10" on="0"/>
        <pt x="28" y="10" on="1"/>
        <pt x="39" y="16" on="0"/>
        <pt x="73" y="49" on="0"/>
        <pt x="105" y="92" on="0"/>
        <pt x="128" y="139" on="0"/>
        <pt x="128" y="159" on="1"/>
        <pt x="128" y="179" on="0"/>
        <pt x="127" y="229" on="0"/>
        <pt x="120" y="281" on="0"/>
        <pt x="105" y="330" on="0"/>
        <pt x="92" y="348" on="1"/>
        <pt x="103" y="360" on="0"/>
        <pt x="117" y="409" on="0"/>
        <pt x="124" y="468" on="0"/>
        <pt x="126" y="531" on="0"/>
        <pt x="126" y="557" on="1"/>
        <pt x="126" y="589" on="0"/>
        <pt x="116" y="635" on="0"/>
        <pt x="91" y="674" on="0"/>
        <pt x="48" y="712" on="0"/>
        <pt x="15" y="737" on="1"/>
        <pt x="86" y="737" on="0"/>
        <pt x="199" y="738" on="0"/>
        <pt x="295" y="741" on="0"/>
        <pt x="379" y="748" on="0"/>
        <pt x="421" y="755" on="1"/>
        <pt x="452" y="736" on="0"/>
        <pt x="548" y="696" on="0"/>
      </contour>
      <contour>
        <pt x="484" y="144" on="1"/>
        <pt x="484" y="166" on="0"/>
        <pt x="490" y="239" on="0"/>
        <pt x="501" y="314" on="0"/>
        <pt x="516" y="380" on="0"/>
        <pt x="525" y="396" on="1"/>
        <pt x="518" y="416" on="0"/>
        <pt x="500" y="477" on="0"/>
        <pt x="482" y="544" on="0"/>
        <pt x="468" y="611" on="0"/>
        <pt x="465" y="637" on="1"/>
        <pt x="449" y="637" on="0"/>
        <pt x="400" y="634" on="0"/>
        <pt x="343" y="627" on="0"/>
        <pt x="286" y="616" on="0"/>
        <pt x="262" y="608" on="1"/>
        <pt x="260" y="563" on="0"/>
        <pt x="258" y="446" on="0"/>
        <pt x="258" y="380" on="1"/>
        <pt x="258" y="316" on="0"/>
        <pt x="263" y="175" on="0"/>
        <pt x="269" y="100" on="1"/>
        <pt x="279" y="97" on="0"/>
        <pt x="312" y="89" on="0"/>
        <pt x="348" y="81" on="0"/>
        <pt x="383" y="74" on="0"/>
        <pt x="396" y="72" on="1"/>
        <pt x="410" y="95" on="0"/>
        <pt x="458" y="133" on="0"/>
      </contour>
      <contour>
        <pt x="532" y="903" on="1"/>
        <pt x="518" y="891" on="0"/>
        <pt x="427" y="831" on="0"/>
        <pt x="361" y="786" on="1"/>
        <pt x="319" y="818" on="0"/>
        <pt x="226" y="877" on="0"/>
        <pt x="191" y="903" on="1"/>
        <pt x="206" y="916" on="0"/>
        <pt x="221" y="931" on="0"/>
        <pt x="237" y="945" on="1"/>
        <pt x="249" y="939" on="0"/>
        <pt x="280" y="924" on="0"/>
        <pt x="314" y="909" on="0"/>
        <pt x="348" y="896" on="0"/>
        <pt x="362" y="891" on="1"/>
        <pt x="375" y="895" on="0"/>
        <pt x="408" y="908" on="0"/>
        <pt x="442" y="923" on="0"/>
        <pt x="474" y="938" on="0"/>
        <pt x="486" y="945" on="1"/>
        <pt x="501" y="931" on="0"/>
        <pt x="517" y="915" on="0"/>
      </contour>
    </TTGlyph>
    <TTGlyph name="Dcroat" xMin="27" yMin="-54" xMax="678" yMax="755">
      <contour>
        <pt x="612" y="683" on="1"/>
        <pt x="615" y="635" on="0"/>
        <pt x="626" y="570" on="0"/>
        <pt x="642" y="511" on="0"/>
        <pt x="664" y="444" on="0"/>
        <pt x="678" y="394" on="1"/>
        <pt x="668" y="374" on="0"/>
        <pt x="653" y="313" on="0"/>
        <pt x="642" y="247" on="0"/>
        <pt x="637" y="183" on="0"/>
        <pt x="637" y="159" on="1"/>
        <pt x="637" y="140" on="0"/>
        <pt x="640" y="104" on="0"/>
        <pt x="645" y="88" on="1"/>
        <pt x="587" y="77" on="0"/>
        <pt x="501" y="0" on="0"/>
        <pt x="459" y="-54" on="1"/>
        <pt x="378" y="-19" on="0"/>
        <pt x="165" y="10" on="0"/>
        <pt x="44" y="10" on="1"/>
        <pt x="55" y="16" on="0"/>
        <pt x="89" y="49" on="0"/>
        <pt x="121" y="92" on="0"/>
        <pt x="144" y="139" on="0"/>
        <pt x="144" y="159" on="1"/>
        <pt x="144" y="188" on="0"/>
        <pt x="141" y="264" on="0"/>
        <pt x="131" y="299" on="1"/>
        <pt x="103" y="298" on="0"/>
        <pt x="50" y="290" on="0"/>
        <pt x="27" y="282" on="1"/>
        <pt x="27" y="412" on="1"/>
        <pt x="50" y="400" on="0"/>
        <pt x="102" y="394" on="0"/>
        <pt x="128" y="394" on="1"/>
        <pt x="136" y="430" on="0"/>
        <pt x="142" y="519" on="0"/>
        <pt x="142" y="557" on="1"/>
        <pt x="142" y="589" on="0"/>
        <pt x="132" y="635" on="0"/>
        <pt x="107" y="674" on="0"/>
        <pt x="64" y="712" on="0"/>
        <pt x="31" y="737" on="1"/>
        <pt x="102" y="737" on="0"/>
        <pt x="215" y="738" on="0"/>
        <pt x="311" y="741" on="0"/>
        <pt x="395" y="748" on="0"/>
        <pt x="437" y="755" on="1"/>
        <pt x="468" y="736" on="0"/>
        <pt x="564" y="696" on="0"/>
      </contour>
      <contour>
        <pt x="500" y="144" on="1"/>
        <pt x="500" y="166" on="0"/>
        <pt x="506" y="239" on="0"/>
        <pt x="517" y="314" on="0"/>
        <pt x="532" y="380" on="0"/>
        <pt x="541" y="396" on="1"/>
        <pt x="534" y="416" on="0"/>
        <pt x="516" y="477" on="0"/>
        <pt x="498" y="544" on="0"/>
        <pt x="484" y="611" on="0"/>
        <pt x="481" y="637" on="1"/>
        <pt x="465" y="637" on="0"/>
        <pt x="416" y="634" on="0"/>
        <pt x="359" y="627" on="0"/>
        <pt x="302" y="616" on="0"/>
        <pt x="278" y="608" on="1"/>
        <pt x="276" y="566" on="0"/>
        <pt x="274" y="457" on="0"/>
        <pt x="274" y="394" on="1"/>
        <pt x="294" y="396" on="0"/>
        <pt x="334" y="403" on="0"/>
        <pt x="353" y="412" on="1"/>
        <pt x="353" y="282" on="1"/>
        <pt x="335" y="288" on="0"/>
        <pt x="295" y="296" on="0"/>
        <pt x="274" y="298" on="1"/>
        <pt x="276" y="250" on="0"/>
        <pt x="280" y="152" on="0"/>
        <pt x="285" y="100" on="1"/>
        <pt x="295" y="97" on="0"/>
        <pt x="328" y="89" on="0"/>
        <pt x="364" y="81" on="0"/>
        <pt x="399" y="74" on="0"/>
        <pt x="412" y="72" on="1"/>
        <pt x="426" y="95" on="0"/>
        <pt x="474" y="133" on="0"/>
      </contour>
    </TTGlyph>
    <TTGlyph name="Ddotbelow" xMin="15" yMin="-273" xMax="662" yMax="755">
      <contour>
        <pt x="596" y="683" on="1"/>
        <pt x="599" y="635" on="0"/>
        <pt x="610" y="570" on="0"/>
        <pt x="626" y="511" on="0"/>
        <pt x="648" y="444" on="0"/>
        <pt x="662" y="394" on="1"/>
        <pt x="652" y="374" on="0"/>
        <pt x="637" y="313" on="0"/>
        <pt x="626" y="247" on="0"/>
        <pt x="621" y="183" on="0"/>
        <pt x="621" y="159" on="1"/>
        <pt x="621" y="140" on="0"/>
        <pt x="624" y="104" on="0"/>
        <pt x="629" y="88" on="1"/>
        <pt x="571" y="77" on="0"/>
        <pt x="485" y="0" on="0"/>
        <pt x="443" y="-54" on="1"/>
        <pt x="362" y="-19" on="0"/>
        <pt x="149" y="10" on="0"/>
        <pt x="28" y="10" on="1"/>
        <pt x="39" y="16" on="0"/>
        <pt x="73" y="49" on="0"/>
        <pt x="105" y="92" on="0"/>
        <pt x="128" y="139" on="0"/>
        <pt x="128" y="159" on="1"/>
        <pt x="128" y="179" on="0"/>
        <pt x="127" y="229" on="0"/>
        <pt x="120" y="281" on="0"/>
        <pt x="105" y="330" on="0"/>
        <pt x="92" y="348" on="1"/>
        <pt x="103" y="360" on="0"/>
        <pt x="117" y="409" on="0"/>
        <pt x="124" y="468" on="0"/>
        <pt x="126" y="531" on="0"/>
        <pt x="126" y="557" on="1"/>
        <pt x="126" y="589" on="0"/>
        <pt x="116" y="635" on="0"/>
        <pt x="91" y="674" on="0"/>
        <pt x="48" y="712" on="0"/>
        <pt x="15" y="737" on="1"/>
        <pt x="86" y="737" on="0"/>
        <pt x="199" y="738" on="0"/>
        <pt x="295" y="741" on="0"/>
        <pt x="379" y="748" on="0"/>
        <pt x="421" y="755" on="1"/>
        <pt x="452" y="736" on="0"/>
        <pt x="548" y="696" on="0"/>
      </contour>
      <contour>
        <pt x="484" y="144" on="1"/>
        <pt x="484" y="166" on="0"/>
        <pt x="490" y="239" on="0"/>
        <pt x="501" y="314" on="0"/>
        <pt x="516" y="380" on="0"/>
        <pt x="525" y="396" on="1"/>
        <pt x="518" y="416" on="0"/>
        <pt x="500" y="477" on="0"/>
        <pt x="482" y="544" on="0"/>
        <pt x="468" y="611" on="0"/>
        <pt x="465" y="637" on="1"/>
        <pt x="449" y="637" on="0"/>
        <pt x="400" y="634" on="0"/>
        <pt x="343" y="627" on="0"/>
        <pt x="286" y="616" on="0"/>
        <pt x="262" y="608" on="1"/>
        <pt x="260" y="563" on="0"/>
        <pt x="258" y="446" on="0"/>
        <pt x="258" y="380" on="1"/>
        <pt x="258" y="316" on="0"/>
        <pt x="263" y="175" on="0"/>
        <pt x="269" y="100" on="1"/>
        <pt x="279" y="97" on="0"/>
        <pt x="312" y="89" on="0"/>
        <pt x="348" y="81" on="0"/>
        <pt x="383" y="74" on="0"/>
        <pt x="396" y="72" on="1"/>
        <pt x="410" y="95" on="0"/>
        <pt x="458" y="133" on="0"/>
      </contour>
      <contour>
        <pt x="290" y="-197" on="1"/>
        <pt x="307" y="-168" on="0"/>
        <pt x="356" y="-111" on="0"/>
        <pt x="386" y="-95" on="1"/>
        <pt x="392" y="-103" on="0"/>
        <pt x="417" y="-125" on="0"/>
        <pt x="446" y="-147" on="0"/>
        <pt x="473" y="-166" on="0"/>
        <pt x="480" y="-170" on="1"/>
        <pt x="446" y="-194" on="0"/>
        <pt x="399" y="-239" on="0"/>
        <pt x="382" y="-273" on="1"/>
        <pt x="376" y="-266" on="0"/>
        <pt x="351" y="-245" on="0"/>
        <pt x="323" y="-223" on="0"/>
        <pt x="297" y="-203" on="0"/>
      </contour>
    </TTGlyph>
    <TTGlyph name="E" xMin="39" yMin="-43" xMax="577" yMax="746">
      <contour>
        <pt x="46" y="0" on="1"/>
        <pt x="61" y="9" on="0"/>
        <pt x="84" y="59" on="0"/>
        <pt x="101" y="123" on="0"/>
        <pt x="109" y="192" on="0"/>
        <pt x="109" y="221" on="1"/>
        <pt x="109" y="266" on="0"/>
        <pt x="90" y="348" on="0"/>
        <pt x="73" y="369" on="1"/>
        <pt x="89" y="385" on="0"/>
        <pt x="110" y="438" on="0"/>
        <pt x="122" y="499" on="0"/>
        <pt x="126" y="563" on="0"/>
        <pt x="126" y="591" on="1"/>
        <pt x="126" y="614" on="0"/>
        <pt x="124" y="648" on="0"/>
        <pt x="123" y="657" on="1"/>
        <pt x="100" y="665" on="0"/>
        <pt x="51" y="715" on="0"/>
        <pt x="39" y="744" on="1"/>
        <pt x="103" y="737" on="0"/>
        <pt x="218" y="732" on="0"/>
        <pt x="269" y="732" on="1"/>
        <pt x="378" y="732" on="0"/>
        <pt x="512" y="746" on="0"/>
        <pt x="551" y="746" on="1"/>
        <pt x="559" y="746" on="0"/>
        <pt x="571" y="745" on="0"/>
        <pt x="576" y="744" on="1"/>
        <pt x="570" y="733" on="0"/>
        <pt x="557" y="675" on="0"/>
        <pt x="545" y="606" on="0"/>
        <pt x="536" y="541" on="0"/>
        <pt x="534" y="525" on="1"/>
        <pt x="527" y="522" on="1"/>
        <pt x="492" y="542" on="0"/>
        <pt x="461" y="592" on="0"/>
        <pt x="453" y="627" on="1"/>
        <pt x="439" y="638" on="0"/>
        <pt x="397" y="644" on="0"/>
        <pt x="365" y="644" on="1"/>
        <pt x="339" y="644" on="0"/>
        <pt x="291" y="642" on="0"/>
        <pt x="277" y="642" on="1"/>
        <pt x="269" y="603" on="0"/>
        <pt x="261" y="491" on="0"/>
        <pt x="259" y="428" on="1"/>
        <pt x="273" y="426" on="0"/>
        <pt x="302" y="425" on="0"/>
        <pt x="310" y="425" on="1"/>
        <pt x="331" y="425" on="0"/>
        <pt x="372" y="458" on="0"/>
        <pt x="391" y="484" on="1"/>
        <pt x="396" y="472" on="0"/>
        <pt x="406" y="441" on="0"/>
        <pt x="419" y="410" on="0"/>
        <pt x="435" y="382" on="0"/>
        <pt x="446" y="375" on="1"/>
        <pt x="437" y="366" on="0"/>
        <pt x="420" y="338" on="0"/>
        <pt x="405" y="306" on="0"/>
        <pt x="392" y="274" on="0"/>
        <pt x="387" y="261" on="1"/>
        <pt x="381" y="272" on="0"/>
        <pt x="365" y="298" on="0"/>
        <pt x="347" y="320" on="0"/>
        <pt x="326" y="335" on="0"/>
        <pt x="314" y="335" on="1"/>
        <pt x="305" y="335" on="0"/>
        <pt x="271" y="333" on="0"/>
        <pt x="257" y="330" on="1"/>
        <pt x="257" y="312" on="1"/>
        <pt x="257" y="249" on="0"/>
        <pt x="260" y="136" on="0"/>
        <pt x="264" y="94" on="1"/>
        <pt x="433" y="77" on="1"/>
        <pt x="447" y="139" on="0"/>
        <pt x="518" y="235" on="0"/>
        <pt x="559" y="280" on="1"/>
        <pt x="565" y="278" on="1"/>
        <pt x="562" y="255" on="0"/>
        <pt x="560" y="210" on="0"/>
        <pt x="560" y="189" on="1"/>
        <pt x="560" y="137" on="0"/>
        <pt x="570" y="53" on="0"/>
        <pt x="577" y="32" on="1"/>
        <pt x="560" y="30" on="0"/>
        <pt x="527" y="23" on="0"/>
        <pt x="489" y="7" on="0"/>
        <pt x="446" y="-21" on="0"/>
        <pt x="420" y="-43" on="1"/>
        <pt x="336" y="-18" on="0"/>
        <pt x="172" y="7" on="0"/>
        <pt x="106" y="7" on="1"/>
        <pt x="74" y="7" on="0"/>
        <pt x="47" y="-3" on="1"/>
      </contour>
    </TTGlyph>
    <TTGlyph name="Eacute" xMin="39" yMin="-43" xMax="577" yMax="943">
      <contour>
        <pt x="46" y="0" on="1"/>
        <pt x="61" y="9" on="0"/>
        <pt x="84" y="59" on="0"/>
        <pt x="101" y="123" on="0"/>
        <pt x="109" y="192" on="0"/>
        <pt x="109" y="221" on="1"/>
        <pt x="109" y="266" on="0"/>
        <pt x="90" y="348" on="0"/>
        <pt x="73" y="369" on="1"/>
        <pt x="89" y="385" on="0"/>
        <pt x="110" y="438" on="0"/>
        <pt x="122" y="499" on="0"/>
        <pt x="126" y="563" on="0"/>
        <pt x="126" y="591" on="1"/>
        <pt x="126" y="614" on="0"/>
        <pt x="124" y="648" on="0"/>
        <pt x="123" y="657" on="1"/>
        <pt x="100" y="665" on="0"/>
        <pt x="51" y="715" on="0"/>
        <pt x="39" y="744" on="1"/>
        <pt x="103" y="737" on="0"/>
        <pt x="218" y="732" on="0"/>
        <pt x="269" y="732" on="1"/>
        <pt x="378" y="732" on="0"/>
        <pt x="512" y="746" on="0"/>
        <pt x="551" y="746" on="1"/>
        <pt x="559" y="746" on="0"/>
        <pt x="571" y="745" on="0"/>
        <pt x="576" y="744" on="1"/>
        <pt x="570" y="733" on="0"/>
        <pt x="557" y="675" on="0"/>
        <pt x="545" y="606" on="0"/>
        <pt x="536" y="541" on="0"/>
        <pt x="534" y="525" on="1"/>
        <pt x="527" y="522" on="1"/>
        <pt x="492" y="542" on="0"/>
        <pt x="461" y="592" on="0"/>
        <pt x="453" y="627" on="1"/>
        <pt x="439" y="638" on="0"/>
        <pt x="397" y="644" on="0"/>
        <pt x="365" y="644" on="1"/>
        <pt x="339" y="644" on="0"/>
        <pt x="291" y="642" on="0"/>
        <pt x="277" y="642" on="1"/>
        <pt x="269" y="603" on="0"/>
        <pt x="261" y="491" on="0"/>
        <pt x="259" y="428" on="1"/>
        <pt x="273" y="426" on="0"/>
        <pt x="302" y="425" on="0"/>
        <pt x="310" y="425" on="1"/>
        <pt x="331" y="425" on="0"/>
        <pt x="372" y="458" on="0"/>
        <pt x="391" y="484" on="1"/>
        <pt x="396" y="472" on="0"/>
        <pt x="406" y="441" on="0"/>
        <pt x="419" y="410" on="0"/>
        <pt x="435" y="382" on="0"/>
        <pt x="446" y="375" on="1"/>
        <pt x="437" y="366" on="0"/>
        <pt x="420" y="338" on="0"/>
        <pt x="405" y="306" on="0"/>
        <pt x="392" y="274" on="0"/>
        <pt x="387" y="261" on="1"/>
        <pt x="381" y="272" on="0"/>
        <pt x="365" y="298" on="0"/>
        <pt x="347" y="320" on="0"/>
        <pt x="326" y="335" on="0"/>
        <pt x="314" y="335" on="1"/>
        <pt x="305" y="335" on="0"/>
        <pt x="271" y="333" on="0"/>
        <pt x="257" y="330" on="1"/>
        <pt x="257" y="312" on="1"/>
        <pt x="257" y="249" on="0"/>
        <pt x="260" y="136" on="0"/>
        <pt x="264" y="94" on="1"/>
        <pt x="433" y="77" on="1"/>
        <pt x="447" y="139" on="0"/>
        <pt x="518" y="235" on="0"/>
        <pt x="559" y="280" on="1"/>
        <pt x="565" y="278" on="1"/>
        <pt x="562" y="255" on="0"/>
        <pt x="560" y="210" on="0"/>
        <pt x="560" y="189" on="1"/>
        <pt x="560" y="137" on="0"/>
        <pt x="570" y="53" on="0"/>
        <pt x="577" y="32" on="1"/>
        <pt x="560" y="30" on="0"/>
        <pt x="527" y="23" on="0"/>
        <pt x="489" y="7" on="0"/>
        <pt x="446" y="-21" on="0"/>
        <pt x="420" y="-43" on="1"/>
        <pt x="336" y="-18" on="0"/>
        <pt x="172" y="7" on="0"/>
        <pt x="106" y="7" on="1"/>
        <pt x="74" y="7" on="0"/>
        <pt x="47" y="-3" on="1"/>
      </contour>
      <contour>
        <pt x="248" y="847" on="1"/>
        <pt x="260" y="854" on="0"/>
        <pt x="311" y="878" on="0"/>
        <pt x="369" y="905" on="0"/>
        <pt x="424" y="932" on="0"/>
        <pt x="441" y="943" on="1"/>
        <pt x="443" y="933" on="0"/>
        <pt x="455" y="901" on="0"/>
        <pt x="469" y="868" on="0"/>
        <pt x="483" y="839" on="0"/>
        <pt x="487" y="832" on="1"/>
        <pt x="476" y="831" on="0"/>
        <pt x="425" y="822" on="0"/>
        <pt x="361" y="810" on="0"/>
        <pt x="294" y="796" on="0"/>
        <pt x="269" y="789" on="1"/>
        <pt x="261" y="808" on="0"/>
        <pt x="256" y="830" on="0"/>
      </contour>
    </TTGlyph>
    <TTGlyph name="Ebreve" xMin="39" yMin="-43" xMax="577" yMax="933">
      <contour>
        <pt x="46" y="0" on="1"/>
        <pt x="61" y="9" on="0"/>
        <pt x="84" y="59" on="0"/>
        <pt x="101" y="123" on="0"/>
        <pt x="109" y="192" on="0"/>
        <pt x="109" y="221" on="1"/>
        <pt x="109" y="266" on="0"/>
        <pt x="90" y="348" on="0"/>
        <pt x="73" y="369" on="1"/>
        <pt x="89" y="385" on="0"/>
        <pt x="110" y="438" on="0"/>
        <pt x="122" y="499" on="0"/>
        <pt x="126" y="563" on="0"/>
        <pt x="126" y="591" on="1"/>
        <pt x="126" y="614" on="0"/>
        <pt x="124" y="648" on="0"/>
        <pt x="123" y="657" on="1"/>
        <pt x="100" y="665" on="0"/>
        <pt x="51" y="715" on="0"/>
        <pt x="39" y="744" on="1"/>
        <pt x="103" y="737" on="0"/>
        <pt x="218" y="732" on="0"/>
        <pt x="269" y="732" on="1"/>
        <pt x="378" y="732" on="0"/>
        <pt x="512" y="746" on="0"/>
        <pt x="551" y="746" on="1"/>
        <pt x="559" y="746" on="0"/>
        <pt x="571" y="745" on="0"/>
        <pt x="576" y="744" on="1"/>
        <pt x="570" y="733" on="0"/>
        <pt x="557" y="675" on="0"/>
        <pt x="545" y="606" on="0"/>
        <pt x="536" y="541" on="0"/>
        <pt x="534" y="525" on="1"/>
        <pt x="527" y="522" on="1"/>
        <pt x="492" y="542" on="0"/>
        <pt x="461" y="592" on="0"/>
        <pt x="453" y="627" on="1"/>
        <pt x="439" y="638" on="0"/>
        <pt x="397" y="644" on="0"/>
        <pt x="365" y="644" on="1"/>
        <pt x="339" y="644" on="0"/>
        <pt x="291" y="642" on="0"/>
        <pt x="277" y="642" on="1"/>
        <pt x="269" y="603" on="0"/>
        <pt x="261" y="491" on="0"/>
        <pt x="259" y="428" on="1"/>
        <pt x="273" y="426" on="0"/>
        <pt x="302" y="425" on="0"/>
        <pt x="310" y="425" on="1"/>
        <pt x="331" y="425" on="0"/>
        <pt x="372" y="458" on="0"/>
        <pt x="391" y="484" on="1"/>
        <pt x="396" y="472" on="0"/>
        <pt x="406" y="441" on="0"/>
        <pt x="419" y="410" on="0"/>
        <pt x="435" y="382" on="0"/>
        <pt x="446" y="375" on="1"/>
        <pt x="437" y="366" on="0"/>
        <pt x="420" y="338" on="0"/>
        <pt x="405" y="306" on="0"/>
        <pt x="392" y="274" on="0"/>
        <pt x="387" y="261" on="1"/>
        <pt x="381" y="272" on="0"/>
        <pt x="365" y="298" on="0"/>
        <pt x="347" y="320" on="0"/>
        <pt x="326" y="335" on="0"/>
        <pt x="314" y="335" on="1"/>
        <pt x="305" y="335" on="0"/>
        <pt x="271" y="333" on="0"/>
        <pt x="257" y="330" on="1"/>
        <pt x="257" y="312" on="1"/>
        <pt x="257" y="249" on="0"/>
        <pt x="260" y="136" on="0"/>
        <pt x="264" y="94" on="1"/>
        <pt x="433" y="77" on="1"/>
        <pt x="447" y="139" on="0"/>
        <pt x="518" y="235" on="0"/>
        <pt x="559" y="280" on="1"/>
        <pt x="565" y="278" on="1"/>
        <pt x="562" y="255" on="0"/>
        <pt x="560" y="210" on="0"/>
        <pt x="560" y="189" on="1"/>
        <pt x="560" y="137" on="0"/>
        <pt x="570" y="53" on="0"/>
        <pt x="577" y="32" on="1"/>
        <pt x="560" y="30" on="0"/>
        <pt x="527" y="23" on="0"/>
        <pt x="489" y="7" on="0"/>
        <pt x="446" y="-21" on="0"/>
        <pt x="420" y="-43" on="1"/>
        <pt x="336" y="-18" on="0"/>
        <pt x="172" y="7" on="0"/>
        <pt x="106" y="7" on="1"/>
        <pt x="74" y="7" on="0"/>
        <pt x="47" y="-3" on="1"/>
      </contour>
      <contour>
        <pt x="459" y="900" on="1"/>
        <pt x="454" y="876" on="0"/>
        <pt x="427" y="839" on="0"/>
        <pt x="388" y="815" on="0"/>
        <pt x="341" y="802" on="0"/>
        <pt x="317" y="802" on="1"/>
        <pt x="294" y="802" on="0"/>
        <pt x="250" y="814" on="0"/>
        <pt x="212" y="838" on="0"/>
        <pt x="185" y="875" on="0"/>
        <pt x="179" y="900" on="1"/>
        <pt x="191" y="904" on="0"/>
        <pt x="210" y="911" on="0"/>
        <pt x="226" y="918" on="0"/>
        <pt x="241" y="927" on="0"/>
        <pt x="251" y="933" on="1"/>
        <pt x="253" y="900" on="0"/>
        <pt x="292" y="867" on="0"/>
        <pt x="316" y="867" on="1"/>
        <pt x="341" y="867" on="0"/>
        <pt x="384" y="900" on="0"/>
        <pt x="387" y="932" on="1"/>
        <pt x="407" y="918" on="0"/>
        <pt x="439" y="905" on="0"/>
      </contour>
    </TTGlyph>
    <TTGlyph name="Ecaron" xMin="39" yMin="-43" xMax="577" yMax="945">
      <contour>
        <pt x="46" y="0" on="1"/>
        <pt x="61" y="9" on="0"/>
        <pt x="84" y="59" on="0"/>
        <pt x="101" y="123" on="0"/>
        <pt x="109" y="192" on="0"/>
        <pt x="109" y="221" on="1"/>
        <pt x="109" y="266" on="0"/>
        <pt x="90" y="348" on="0"/>
        <pt x="73" y="369" on="1"/>
        <pt x="89" y="385" on="0"/>
        <pt x="110" y="438" on="0"/>
        <pt x="122" y="499" on="0"/>
        <pt x="126" y="563" on="0"/>
        <pt x="126" y="591" on="1"/>
        <pt x="126" y="614" on="0"/>
        <pt x="124" y="648" on="0"/>
        <pt x="123" y="657" on="1"/>
        <pt x="100" y="665" on="0"/>
        <pt x="51" y="715" on="0"/>
        <pt x="39" y="744" on="1"/>
        <pt x="103" y="737" on="0"/>
        <pt x="218" y="732" on="0"/>
        <pt x="269" y="732" on="1"/>
        <pt x="378" y="732" on="0"/>
        <pt x="512" y="746" on="0"/>
        <pt x="551" y="746" on="1"/>
        <pt x="559" y="746" on="0"/>
        <pt x="571" y="745" on="0"/>
        <pt x="576" y="744" on="1"/>
        <pt x="570" y="733" on="0"/>
        <pt x="557" y="675" on="0"/>
        <pt x="545" y="606" on="0"/>
        <pt x="536" y="541" on="0"/>
        <pt x="534" y="525" on="1"/>
        <pt x="527" y="522" on="1"/>
        <pt x="492" y="542" on="0"/>
        <pt x="461" y="592" on="0"/>
        <pt x="453" y="627" on="1"/>
        <pt x="439" y="638" on="0"/>
        <pt x="397" y="644" on="0"/>
        <pt x="365" y="644" on="1"/>
        <pt x="339" y="644" on="0"/>
        <pt x="291" y="642" on="0"/>
        <pt x="277" y="642" on="1"/>
        <pt x="269" y="603" on="0"/>
        <pt x="261" y="491" on="0"/>
        <pt x="259" y="428" on="1"/>
        <pt x="273" y="426" on="0"/>
        <pt x="302" y="425" on="0"/>
        <pt x="310" y="425" on="1"/>
        <pt x="331" y="425" on="0"/>
        <pt x="372" y="458" on="0"/>
        <pt x="391" y="484" on="1"/>
        <pt x="396" y="472" on="0"/>
        <pt x="406" y="441" on="0"/>
        <pt x="419" y="410" on="0"/>
        <pt x="435" y="382" on="0"/>
        <pt x="446" y="375" on="1"/>
        <pt x="437" y="366" on="0"/>
        <pt x="420" y="338" on="0"/>
        <pt x="405" y="306" on="0"/>
        <pt x="392" y="274" on="0"/>
        <pt x="387" y="261" on="1"/>
        <pt x="381" y="272" on="0"/>
        <pt x="365" y="298" on="0"/>
        <pt x="347" y="320" on="0"/>
        <pt x="326" y="335" on="0"/>
        <pt x="314" y="335" on="1"/>
        <pt x="305" y="335" on="0"/>
        <pt x="271" y="333" on="0"/>
        <pt x="257" y="330" on="1"/>
        <pt x="257" y="312" on="1"/>
        <pt x="257" y="249" on="0"/>
        <pt x="260" y="136" on="0"/>
        <pt x="264" y="94" on="1"/>
        <pt x="433" y="77" on="1"/>
        <pt x="447" y="139" on="0"/>
        <pt x="518" y="235" on="0"/>
        <pt x="559" y="280" on="1"/>
        <pt x="565" y="278" on="1"/>
        <pt x="562" y="255" on="0"/>
        <pt x="560" y="210" on="0"/>
        <pt x="560" y="189" on="1"/>
        <pt x="560" y="137" on="0"/>
        <pt x="570" y="53" on="0"/>
        <pt x="577" y="32" on="1"/>
        <pt x="560" y="30" on="0"/>
        <pt x="527" y="23" on="0"/>
        <pt x="489" y="7" on="0"/>
        <pt x="446" y="-21" on="0"/>
        <pt x="420" y="-43" on="1"/>
        <pt x="336" y="-18" on="0"/>
        <pt x="172" y="7" on="0"/>
        <pt x="106" y="7" on="1"/>
        <pt x="74" y="7" on="0"/>
        <pt x="47" y="-3" on="1"/>
      </contour>
      <contour>
        <pt x="488" y="903" on="1"/>
        <pt x="474" y="891" on="0"/>
        <pt x="383" y="831" on="0"/>
        <pt x="317" y="786" on="1"/>
        <pt x="275" y="818" on="0"/>
        <pt x="182" y="877" on="0"/>
        <pt x="147" y="903" on="1"/>
        <pt x="162" y="916" on="0"/>
        <pt x="177" y="931" on="0"/>
        <pt x="193" y="945" on="1"/>
        <pt x="205" y="939" on="0"/>
        <pt x="236" y="924" on="0"/>
        <pt x="270" y="909" on="0"/>
        <pt x="304" y="896" on="0"/>
        <pt x="318" y="891" on="1"/>
        <pt x="331" y="895" on="0"/>
        <pt x="364" y="908" on="0"/>
        <pt x="398" y="923" on="0"/>
        <pt x="430" y="938" on="0"/>
        <pt x="442" y="945" on="1"/>
        <pt x="457" y="931" on="0"/>
        <pt x="473" y="915" on="0"/>
      </contour>
    </TTGlyph>
    <TTGlyph name="Ecircumflex" xMin="39" yMin="-43" xMax="577" yMax="945">
      <contour>
        <pt x="46" y="0" on="1"/>
        <pt x="61" y="9" on="0"/>
        <pt x="84" y="59" on="0"/>
        <pt x="101" y="123" on="0"/>
        <pt x="109" y="192" on="0"/>
        <pt x="109" y="221" on="1"/>
        <pt x="109" y="266" on="0"/>
        <pt x="90" y="348" on="0"/>
        <pt x="73" y="369" on="1"/>
        <pt x="89" y="385" on="0"/>
        <pt x="110" y="438" on="0"/>
        <pt x="122" y="499" on="0"/>
        <pt x="126" y="563" on="0"/>
        <pt x="126" y="591" on="1"/>
        <pt x="126" y="614" on="0"/>
        <pt x="124" y="648" on="0"/>
        <pt x="123" y="657" on="1"/>
        <pt x="100" y="665" on="0"/>
        <pt x="51" y="715" on="0"/>
        <pt x="39" y="744" on="1"/>
        <pt x="103" y="737" on="0"/>
        <pt x="218" y="732" on="0"/>
        <pt x="269" y="732" on="1"/>
        <pt x="378" y="732" on="0"/>
        <pt x="512" y="746" on="0"/>
        <pt x="551" y="746" on="1"/>
        <pt x="559" y="746" on="0"/>
        <pt x="571" y="745" on="0"/>
        <pt x="576" y="744" on="1"/>
        <pt x="570" y="733" on="0"/>
        <pt x="557" y="675" on="0"/>
        <pt x="545" y="606" on="0"/>
        <pt x="536" y="541" on="0"/>
        <pt x="534" y="525" on="1"/>
        <pt x="527" y="522" on="1"/>
        <pt x="492" y="542" on="0"/>
        <pt x="461" y="592" on="0"/>
        <pt x="453" y="627" on="1"/>
        <pt x="439" y="638" on="0"/>
        <pt x="397" y="644" on="0"/>
        <pt x="365" y="644" on="1"/>
        <pt x="339" y="644" on="0"/>
        <pt x="291" y="642" on="0"/>
        <pt x="277" y="642" on="1"/>
        <pt x="269" y="603" on="0"/>
        <pt x="261" y="491" on="0"/>
        <pt x="259" y="428" on="1"/>
        <pt x="273" y="426" on="0"/>
        <pt x="302" y="425" on="0"/>
        <pt x="310" y="425" on="1"/>
        <pt x="331" y="425" on="0"/>
        <pt x="372" y="458" on="0"/>
        <pt x="391" y="484" on="1"/>
        <pt x="396" y="472" on="0"/>
        <pt x="406" y="441" on="0"/>
        <pt x="419" y="410" on="0"/>
        <pt x="435" y="382" on="0"/>
        <pt x="446" y="375" on="1"/>
        <pt x="437" y="366" on="0"/>
        <pt x="420" y="338" on="0"/>
        <pt x="405" y="306" on="0"/>
        <pt x="392" y="274" on="0"/>
        <pt x="387" y="261" on="1"/>
        <pt x="381" y="272" on="0"/>
        <pt x="365" y="298" on="0"/>
        <pt x="347" y="320" on="0"/>
        <pt x="326" y="335" on="0"/>
        <pt x="314" y="335" on="1"/>
        <pt x="305" y="335" on="0"/>
        <pt x="271" y="333" on="0"/>
        <pt x="257" y="330" on="1"/>
        <pt x="257" y="312" on="1"/>
        <pt x="257" y="249" on="0"/>
        <pt x="260" y="136" on="0"/>
        <pt x="264" y="94" on="1"/>
        <pt x="433" y="77" on="1"/>
        <pt x="447" y="139" on="0"/>
        <pt x="518" y="235" on="0"/>
        <pt x="559" y="280" on="1"/>
        <pt x="565" y="278" on="1"/>
        <pt x="562" y="255" on="0"/>
        <pt x="560" y="210" on="0"/>
        <pt x="560" y="189" on="1"/>
        <pt x="560" y="137" on="0"/>
        <pt x="570" y="53" on="0"/>
        <pt x="577" y="32" on="1"/>
        <pt x="560" y="30" on="0"/>
        <pt x="527" y="23" on="0"/>
        <pt x="489" y="7" on="0"/>
        <pt x="446" y="-21" on="0"/>
        <pt x="420" y="-43" on="1"/>
        <pt x="336" y="-18" on="0"/>
        <pt x="172" y="7" on="0"/>
        <pt x="106" y="7" on="1"/>
        <pt x="74" y="7" on="0"/>
        <pt x="47" y="-3" on="1"/>
      </contour>
      <contour>
        <pt x="488" y="828" on="1"/>
        <pt x="473" y="816" on="0"/>
        <pt x="457" y="800" on="0"/>
        <pt x="442" y="786" on="1"/>
        <pt x="430" y="793" on="0"/>
        <pt x="398" y="808" on="0"/>
        <pt x="364" y="822" on="0"/>
        <pt x="331" y="835" on="0"/>
        <pt x="318" y="840" on="1"/>
        <pt x="304" y="835" on="0"/>
        <pt x="270" y="822" on="0"/>
        <pt x="236" y="807" on="0"/>
        <pt x="205" y="792" on="0"/>
        <pt x="193" y="786" on="1"/>
        <pt x="177" y="799" on="0"/>
        <pt x="162" y="816" on="0"/>
        <pt x="147" y="828" on="1"/>
        <pt x="182" y="854" on="0"/>
        <pt x="275" y="913" on="0"/>
        <pt x="317" y="945" on="1"/>
        <pt x="383" y="900" on="0"/>
        <pt x="474" y="840" on="0"/>
      </contour>
    </TTGlyph>
    <TTGlyph name="Edieresis" xMin="39" yMin="-43" xMax="577" yMax="945">
      <contour>
        <pt x="46" y="0" on="1"/>
        <pt x="61" y="9" on="0"/>
        <pt x="84" y="59" on="0"/>
        <pt x="101" y="123" on="0"/>
        <pt x="109" y="192" on="0"/>
        <pt x="109" y="221" on="1"/>
        <pt x="109" y="266" on="0"/>
        <pt x="90" y="348" on="0"/>
        <pt x="73" y="369" on="1"/>
        <pt x="89" y="385" on="0"/>
        <pt x="110" y="438" on="0"/>
        <pt x="122" y="499" on="0"/>
        <pt x="126" y="563" on="0"/>
        <pt x="126" y="591" on="1"/>
        <pt x="126" y="614" on="0"/>
        <pt x="124" y="648" on="0"/>
        <pt x="123" y="657" on="1"/>
        <pt x="100" y="665" on="0"/>
        <pt x="51" y="715" on="0"/>
        <pt x="39" y="744" on="1"/>
        <pt x="103" y="737" on="0"/>
        <pt x="218" y="732" on="0"/>
        <pt x="269" y="732" on="1"/>
        <pt x="378" y="732" on="0"/>
        <pt x="512" y="746" on="0"/>
        <pt x="551" y="746" on="1"/>
        <pt x="559" y="746" on="0"/>
        <pt x="571" y="745" on="0"/>
        <pt x="576" y="744" on="1"/>
        <pt x="570" y="733" on="0"/>
        <pt x="557" y="675" on="0"/>
        <pt x="545" y="606" on="0"/>
        <pt x="536" y="541" on="0"/>
        <pt x="534" y="525" on="1"/>
        <pt x="527" y="522" on="1"/>
        <pt x="492" y="542" on="0"/>
        <pt x="461" y="592" on="0"/>
        <pt x="453" y="627" on="1"/>
        <pt x="439" y="638" on="0"/>
        <pt x="397" y="644" on="0"/>
        <pt x="365" y="644" on="1"/>
        <pt x="339" y="644" on="0"/>
        <pt x="291" y="642" on="0"/>
        <pt x="277" y="642" on="1"/>
        <pt x="269" y="603" on="0"/>
        <pt x="261" y="491" on="0"/>
        <pt x="259" y="428" on="1"/>
        <pt x="273" y="426" on="0"/>
        <pt x="302" y="425" on="0"/>
        <pt x="310" y="425" on="1"/>
        <pt x="331" y="425" on="0"/>
        <pt x="372" y="458" on="0"/>
        <pt x="391" y="484" on="1"/>
        <pt x="396" y="472" on="0"/>
        <pt x="406" y="441" on="0"/>
        <pt x="419" y="410" on="0"/>
        <pt x="435" y="382" on="0"/>
        <pt x="446" y="375" on="1"/>
        <pt x="437" y="366" on="0"/>
        <pt x="420" y="338" on="0"/>
        <pt x="405" y="306" on="0"/>
        <pt x="392" y="274" on="0"/>
        <pt x="387" y="261" on="1"/>
        <pt x="381" y="272" on="0"/>
        <pt x="365" y="298" on="0"/>
        <pt x="347" y="320" on="0"/>
        <pt x="326" y="335" on="0"/>
        <pt x="314" y="335" on="1"/>
        <pt x="305" y="335" on="0"/>
        <pt x="271" y="333" on="0"/>
        <pt x="257" y="330" on="1"/>
        <pt x="257" y="312" on="1"/>
        <pt x="257" y="249" on="0"/>
        <pt x="260" y="136" on="0"/>
        <pt x="264" y="94" on="1"/>
        <pt x="433" y="77" on="1"/>
        <pt x="447" y="139" on="0"/>
        <pt x="518" y="235" on="0"/>
        <pt x="559" y="280" on="1"/>
        <pt x="565" y="278" on="1"/>
        <pt x="562" y="255" on="0"/>
        <pt x="560" y="210" on="0"/>
        <pt x="560" y="189" on="1"/>
        <pt x="560" y="137" on="0"/>
        <pt x="570" y="53" on="0"/>
        <pt x="577" y="32" on="1"/>
        <pt x="560" y="30" on="0"/>
        <pt x="527" y="23" on="0"/>
        <pt x="489" y="7" on="0"/>
        <pt x="446" y="-21" on="0"/>
        <pt x="420" y="-43" on="1"/>
        <pt x="336" y="-18" on="0"/>
        <pt x="172" y="7" on="0"/>
        <pt x="106" y="7" on="1"/>
        <pt x="74" y="7" on="0"/>
        <pt x="47" y="-3" on="1"/>
      </contour>
      <contour>
        <pt x="328" y="854" on="1"/>
        <pt x="344" y="880" on="0"/>
        <pt x="387" y="931" on="0"/>
        <pt x="414" y="945" on="1"/>
        <pt x="420" y="938" on="0"/>
        <pt x="442" y="919" on="0"/>
        <pt x="468" y="899" on="0"/>
        <pt x="492" y="882" on="0"/>
        <pt x="498" y="878" on="1"/>
        <pt x="468" y="856" on="0"/>
        <pt x="425" y="816" on="0"/>
        <pt x="410" y="786" on="1"/>
        <pt x="405" y="793" on="0"/>
        <pt x="383" y="812" on="0"/>
        <pt x="358" y="832" on="0"/>
        <pt x="335" y="849" on="0"/>
      </contour>
      <contour>
        <pt x="129" y="854" on="1"/>
        <pt x="145" y="880" on="0"/>
        <pt x="188" y="931" on="0"/>
        <pt x="215" y="945" on="1"/>
        <pt x="221" y="938" on="0"/>
        <pt x="243" y="919" on="0"/>
        <pt x="269" y="899" on="0"/>
        <pt x="293" y="882" on="0"/>
        <pt x="299" y="878" on="1"/>
        <pt x="269" y="856" on="0"/>
        <pt x="226" y="816" on="0"/>
        <pt x="211" y="786" on="1"/>
        <pt x="206" y="793" on="0"/>
        <pt x="184" y="812" on="0"/>
        <pt x="159" y="832" on="0"/>
        <pt x="136" y="849" on="0"/>
      </contour>
    </TTGlyph>
    <TTGlyph name="Edotaccent" xMin="39" yMin="-43" xMax="577" yMax="945">
      <contour>
        <pt x="46" y="0" on="1"/>
        <pt x="61" y="9" on="0"/>
        <pt x="84" y="59" on="0"/>
        <pt x="101" y="123" on="0"/>
        <pt x="109" y="192" on="0"/>
        <pt x="109" y="221" on="1"/>
        <pt x="109" y="266" on="0"/>
        <pt x="90" y="348" on="0"/>
        <pt x="73" y="369" on="1"/>
        <pt x="89" y="385" on="0"/>
        <pt x="110" y="438" on="0"/>
        <pt x="122" y="499" on="0"/>
        <pt x="126" y="563" on="0"/>
        <pt x="126" y="591" on="1"/>
        <pt x="126" y="614" on="0"/>
        <pt x="124" y="648" on="0"/>
        <pt x="123" y="657" on="1"/>
        <pt x="100" y="665" on="0"/>
        <pt x="51" y="715" on="0"/>
        <pt x="39" y="744" on="1"/>
        <pt x="103" y="737" on="0"/>
        <pt x="218" y="732" on="0"/>
        <pt x="269" y="732" on="1"/>
        <pt x="378" y="732" on="0"/>
        <pt x="512" y="746" on="0"/>
        <pt x="551" y="746" on="1"/>
        <pt x="559" y="746" on="0"/>
        <pt x="571" y="745" on="0"/>
        <pt x="576" y="744" on="1"/>
        <pt x="570" y="733" on="0"/>
        <pt x="557" y="675" on="0"/>
        <pt x="545" y="606" on="0"/>
        <pt x="536" y="541" on="0"/>
        <pt x="534" y="525" on="1"/>
        <pt x="527" y="522" on="1"/>
        <pt x="492" y="542" on="0"/>
        <pt x="461" y="592" on="0"/>
        <pt x="453" y="627" on="1"/>
        <pt x="439" y="638" on="0"/>
        <pt x="397" y="644" on="0"/>
        <pt x="365" y="644" on="1"/>
        <pt x="339" y="644" on="0"/>
        <pt x="291" y="642" on="0"/>
        <pt x="277" y="642" on="1"/>
        <pt x="269" y="603" on="0"/>
        <pt x="261" y="491" on="0"/>
        <pt x="259" y="428" on="1"/>
        <pt x="273" y="426" on="0"/>
        <pt x="302" y="425" on="0"/>
        <pt x="310" y="425" on="1"/>
        <pt x="331" y="425" on="0"/>
        <pt x="372" y="458" on="0"/>
        <pt x="391" y="484" on="1"/>
        <pt x="396" y="472" on="0"/>
        <pt x="406" y="441" on="0"/>
        <pt x="419" y="410" on="0"/>
        <pt x="435" y="382" on="0"/>
        <pt x="446" y="375" on="1"/>
        <pt x="437" y="366" on="0"/>
        <pt x="420" y="338" on="0"/>
        <pt x="405" y="306" on="0"/>
        <pt x="392" y="274" on="0"/>
        <pt x="387" y="261" on="1"/>
        <pt x="381" y="272" on="0"/>
        <pt x="365" y="298" on="0"/>
        <pt x="347" y="320" on="0"/>
        <pt x="326" y="335" on="0"/>
        <pt x="314" y="335" on="1"/>
        <pt x="305" y="335" on="0"/>
        <pt x="271" y="333" on="0"/>
        <pt x="257" y="330" on="1"/>
        <pt x="257" y="312" on="1"/>
        <pt x="257" y="249" on="0"/>
        <pt x="260" y="136" on="0"/>
        <pt x="264" y="94" on="1"/>
        <pt x="433" y="77" on="1"/>
        <pt x="447" y="139" on="0"/>
        <pt x="518" y="235" on="0"/>
        <pt x="559" y="280" on="1"/>
        <pt x="565" y="278" on="1"/>
        <pt x="562" y="255" on="0"/>
        <pt x="560" y="210" on="0"/>
        <pt x="560" y="189" on="1"/>
        <pt x="560" y="137" on="0"/>
        <pt x="570" y="53" on="0"/>
        <pt x="577" y="32" on="1"/>
        <pt x="560" y="30" on="0"/>
        <pt x="527" y="23" on="0"/>
        <pt x="489" y="7" on="0"/>
        <pt x="446" y="-21" on="0"/>
        <pt x="420" y="-43" on="1"/>
        <pt x="336" y="-18" on="0"/>
        <pt x="172" y="7" on="0"/>
        <pt x="106" y="7" on="1"/>
        <pt x="74" y="7" on="0"/>
        <pt x="47" y="-3" on="1"/>
      </contour>
      <contour>
        <pt x="236" y="854" on="1"/>
        <pt x="252" y="880" on="0"/>
        <pt x="295" y="931" on="0"/>
        <pt x="322" y="945" on="1"/>
        <pt x="328" y="938" on="0"/>
        <pt x="350" y="919" on="0"/>
        <pt x="376" y="899" on="0"/>
        <pt x="400" y="882" on="0"/>
        <pt x="406" y="878" on="1"/>
        <pt x="376" y="856" on="0"/>
        <pt x="333" y="816" on="0"/>
        <pt x="318" y="786" on="1"/>
        <pt x="313" y="793" on="0"/>
        <pt x="291" y="812" on="0"/>
        <pt x="266" y="832" on="0"/>
        <pt x="243" y="849" on="0"/>
      </contour>
    </TTGlyph>
    <TTGlyph name="Edotbelow" xMin="39" yMin="-273" xMax="577" yMax="746">
      <contour>
        <pt x="46" y="0" on="1"/>
        <pt x="61" y="9" on="0"/>
        <pt x="84" y="59" on="0"/>
        <pt x="101" y="123" on="0"/>
        <pt x="109" y="192" on="0"/>
        <pt x="109" y="221" on="1"/>
        <pt x="109" y="266" on="0"/>
        <pt x="90" y="348" on="0"/>
        <pt x="73" y="369" on="1"/>
        <pt x="89" y="385" on="0"/>
        <pt x="110" y="438" on="0"/>
        <pt x="122" y="499" on="0"/>
        <pt x="126" y="563" on="0"/>
        <pt x="126" y="591" on="1"/>
        <pt x="126" y="614" on="0"/>
        <pt x="124" y="648" on="0"/>
        <pt x="123" y="657" on="1"/>
        <pt x="100" y="665" on="0"/>
        <pt x="51" y="715" on="0"/>
        <pt x="39" y="744" on="1"/>
        <pt x="103" y="737" on="0"/>
        <pt x="218" y="732" on="0"/>
        <pt x="269" y="732" on="1"/>
        <pt x="378" y="732" on="0"/>
        <pt x="512" y="746" on="0"/>
        <pt x="551" y="746" on="1"/>
        <pt x="559" y="746" on="0"/>
        <pt x="571" y="745" on="0"/>
        <pt x="576" y="744" on="1"/>
        <pt x="570" y="733" on="0"/>
        <pt x="557" y="675" on="0"/>
        <pt x="545" y="606" on="0"/>
        <pt x="536" y="541" on="0"/>
        <pt x="534" y="525" on="1"/>
        <pt x="527" y="522" on="1"/>
        <pt x="492" y="542" on="0"/>
        <pt x="461" y="592" on="0"/>
        <pt x="453" y="627" on="1"/>
        <pt x="439" y="638" on="0"/>
        <pt x="397" y="644" on="0"/>
        <pt x="365" y="644" on="1"/>
        <pt x="339" y="644" on="0"/>
        <pt x="291" y="642" on="0"/>
        <pt x="277" y="642" on="1"/>
        <pt x="269" y="603" on="0"/>
        <pt x="261" y="491" on="0"/>
        <pt x="259" y="428" on="1"/>
        <pt x="273" y="426" on="0"/>
        <pt x="302" y="425" on="0"/>
        <pt x="310" y="425" on="1"/>
        <pt x="331" y="425" on="0"/>
        <pt x="372" y="458" on="0"/>
        <pt x="391" y="484" on="1"/>
        <pt x="396" y="472" on="0"/>
        <pt x="406" y="441" on="0"/>
        <pt x="419" y="410" on="0"/>
        <pt x="435" y="382" on="0"/>
        <pt x="446" y="375" on="1"/>
        <pt x="437" y="366" on="0"/>
        <pt x="420" y="338" on="0"/>
        <pt x="405" y="306" on="0"/>
        <pt x="392" y="274" on="0"/>
        <pt x="387" y="261" on="1"/>
        <pt x="381" y="272" on="0"/>
        <pt x="365" y="298" on="0"/>
        <pt x="347" y="320" on="0"/>
        <pt x="326" y="335" on="0"/>
        <pt x="314" y="335" on="1"/>
        <pt x="305" y="335" on="0"/>
        <pt x="271" y="333" on="0"/>
        <pt x="257" y="330" on="1"/>
        <pt x="257" y="312" on="1"/>
        <pt x="257" y="249" on="0"/>
        <pt x="260" y="136" on="0"/>
        <pt x="264" y="94" on="1"/>
        <pt x="433" y="77" on="1"/>
        <pt x="447" y="139" on="0"/>
        <pt x="518" y="235" on="0"/>
        <pt x="559" y="280" on="1"/>
        <pt x="565" y="278" on="1"/>
        <pt x="562" y="255" on="0"/>
        <pt x="560" y="210" on="0"/>
        <pt x="560" y="189" on="1"/>
        <pt x="560" y="137" on="0"/>
        <pt x="570" y="53" on="0"/>
        <pt x="577" y="32" on="1"/>
        <pt x="560" y="30" on="0"/>
        <pt x="527" y="23" on="0"/>
        <pt x="489" y="7" on="0"/>
        <pt x="446" y="-21" on="0"/>
        <pt x="420" y="-43" on="1"/>
        <pt x="336" y="-18" on="0"/>
        <pt x="172" y="7" on="0"/>
        <pt x="106" y="7" on="1"/>
        <pt x="74" y="7" on="0"/>
        <pt x="47" y="-3" on="1"/>
      </contour>
      <contour>
        <pt x="226" y="-197" on="1"/>
        <pt x="243" y="-168" on="0"/>
        <pt x="292" y="-111" on="0"/>
        <pt x="322" y="-95" on="1"/>
        <pt x="328" y="-103" on="0"/>
        <pt x="353" y="-125" on="0"/>
        <pt x="382" y="-147" on="0"/>
        <pt x="409" y="-166" on="0"/>
        <pt x="416" y="-170" on="1"/>
        <pt x="382" y="-194" on="0"/>
        <pt x="335" y="-239" on="0"/>
        <pt x="318" y="-273" on="1"/>
        <pt x="312" y="-266" on="0"/>
        <pt x="287" y="-245" on="0"/>
        <pt x="259" y="-223" on="0"/>
        <pt x="233" y="-203" on="0"/>
      </contour>
    </TTGlyph>
    <TTGlyph name="Egrave" xMin="39" yMin="-43" xMax="577" yMax="943">
      <contour>
        <pt x="46" y="0" on="1"/>
        <pt x="61" y="9" on="0"/>
        <pt x="84" y="59" on="0"/>
        <pt x="101" y="123" on="0"/>
        <pt x="109" y="192" on="0"/>
        <pt x="109" y="221" on="1"/>
        <pt x="109" y="266" on="0"/>
        <pt x="90" y="348" on="0"/>
        <pt x="73" y="369" on="1"/>
        <pt x="89" y="385" on="0"/>
        <pt x="110" y="438" on="0"/>
        <pt x="122" y="499" on="0"/>
        <pt x="126" y="563" on="0"/>
        <pt x="126" y="591" on="1"/>
        <pt x="126" y="614" on="0"/>
        <pt x="124" y="648" on="0"/>
        <pt x="123" y="657" on="1"/>
        <pt x="100" y="665" on="0"/>
        <pt x="51" y="715" on="0"/>
        <pt x="39" y="744" on="1"/>
        <pt x="103" y="737" on="0"/>
        <pt x="218" y="732" on="0"/>
        <pt x="269" y="732" on="1"/>
        <pt x="378" y="732" on="0"/>
        <pt x="512" y="746" on="0"/>
        <pt x="551" y="746" on="1"/>
        <pt x="559" y="746" on="0"/>
        <pt x="571" y="745" on="0"/>
        <pt x="576" y="744" on="1"/>
        <pt x="570" y="733" on="0"/>
        <pt x="557" y="675" on="0"/>
        <pt x="545" y="606" on="0"/>
        <pt x="536" y="541" on="0"/>
        <pt x="534" y="525" on="1"/>
        <pt x="527" y="522" on="1"/>
        <pt x="492" y="542" on="0"/>
        <pt x="461" y="592" on="0"/>
        <pt x="453" y="627" on="1"/>
        <pt x="439" y="638" on="0"/>
        <pt x="397" y="644" on="0"/>
        <pt x="365" y="644" on="1"/>
        <pt x="339" y="644" on="0"/>
        <pt x="291" y="642" on="0"/>
        <pt x="277" y="642" on="1"/>
        <pt x="269" y="603" on="0"/>
        <pt x="261" y="491" on="0"/>
        <pt x="259" y="428" on="1"/>
        <pt x="273" y="426" on="0"/>
        <pt x="302" y="425" on="0"/>
        <pt x="310" y="425" on="1"/>
        <pt x="331" y="425" on="0"/>
        <pt x="372" y="458" on="0"/>
        <pt x="391" y="484" on="1"/>
        <pt x="396" y="472" on="0"/>
        <pt x="406" y="441" on="0"/>
        <pt x="419" y="410" on="0"/>
        <pt x="435" y="382" on="0"/>
        <pt x="446" y="375" on="1"/>
        <pt x="437" y="366" on="0"/>
        <pt x="420" y="338" on="0"/>
        <pt x="405" y="306" on="0"/>
        <pt x="392" y="274" on="0"/>
        <pt x="387" y="261" on="1"/>
        <pt x="381" y="272" on="0"/>
        <pt x="365" y="298" on="0"/>
        <pt x="347" y="320" on="0"/>
        <pt x="326" y="335" on="0"/>
        <pt x="314" y="335" on="1"/>
        <pt x="305" y="335" on="0"/>
        <pt x="271" y="333" on="0"/>
        <pt x="257" y="330" on="1"/>
        <pt x="257" y="312" on="1"/>
        <pt x="257" y="249" on="0"/>
        <pt x="260" y="136" on="0"/>
        <pt x="264" y="94" on="1"/>
        <pt x="433" y="77" on="1"/>
        <pt x="447" y="139" on="0"/>
        <pt x="518" y="235" on="0"/>
        <pt x="559" y="280" on="1"/>
        <pt x="565" y="278" on="1"/>
        <pt x="562" y="255" on="0"/>
        <pt x="560" y="210" on="0"/>
        <pt x="560" y="189" on="1"/>
        <pt x="560" y="137" on="0"/>
        <pt x="570" y="53" on="0"/>
        <pt x="577" y="32" on="1"/>
        <pt x="560" y="30" on="0"/>
        <pt x="527" y="23" on="0"/>
        <pt x="489" y="7" on="0"/>
        <pt x="446" y="-21" on="0"/>
        <pt x="420" y="-43" on="1"/>
        <pt x="336" y="-18" on="0"/>
        <pt x="172" y="7" on="0"/>
        <pt x="106" y="7" on="1"/>
        <pt x="74" y="7" on="0"/>
        <pt x="47" y="-3" on="1"/>
      </contour>
      <contour>
        <pt x="377" y="847" on="1"/>
        <pt x="369" y="830" on="0"/>
        <pt x="364" y="808" on="0"/>
        <pt x="356" y="789" on="1"/>
        <pt x="330" y="796" on="0"/>
        <pt x="263" y="810" on="0"/>
        <pt x="200" y="822" on="0"/>
        <pt x="148" y="831" on="0"/>
        <pt x="138" y="832" on="1"/>
        <pt x="142" y="839" on="0"/>
        <pt x="156" y="868" on="0"/>
        <pt x="170" y="901" on="0"/>
        <pt x="182" y="933" on="0"/>
        <pt x="184" y="943" on="1"/>
        <pt x="200" y="932" on="0"/>
        <pt x="256" y="904" on="0"/>
        <pt x="314" y="877" on="0"/>
        <pt x="365" y="854" on="0"/>
      </contour>
    </TTGlyph>
    <TTGlyph name="Emacron" xMin="39" yMin="-43" xMax="577" yMax="921">
      <contour>
        <pt x="46" y="0" on="1"/>
        <pt x="61" y="9" on="0"/>
        <pt x="84" y="59" on="0"/>
        <pt x="101" y="123" on="0"/>
        <pt x="109" y="192" on="0"/>
        <pt x="109" y="221" on="1"/>
        <pt x="109" y="266" on="0"/>
        <pt x="90" y="348" on="0"/>
        <pt x="73" y="369" on="1"/>
        <pt x="89" y="385" on="0"/>
        <pt x="110" y="438" on="0"/>
        <pt x="122" y="499" on="0"/>
        <pt x="126" y="563" on="0"/>
        <pt x="126" y="591" on="1"/>
        <pt x="126" y="614" on="0"/>
        <pt x="124" y="648" on="0"/>
        <pt x="123" y="657" on="1"/>
        <pt x="100" y="665" on="0"/>
        <pt x="51" y="715" on="0"/>
        <pt x="39" y="744" on="1"/>
        <pt x="103" y="737" on="0"/>
        <pt x="218" y="732" on="0"/>
        <pt x="269" y="732" on="1"/>
        <pt x="378" y="732" on="0"/>
        <pt x="512" y="746" on="0"/>
        <pt x="551" y="746" on="1"/>
        <pt x="559" y="746" on="0"/>
        <pt x="571" y="745" on="0"/>
        <pt x="576" y="744" on="1"/>
        <pt x="570" y="733" on="0"/>
        <pt x="557" y="675" on="0"/>
        <pt x="545" y="606" on="0"/>
        <pt x="536" y="541" on="0"/>
        <pt x="534" y="525" on="1"/>
        <pt x="527" y="522" on="1"/>
        <pt x="492" y="542" on="0"/>
        <pt x="461" y="592" on="0"/>
        <pt x="453" y="627" on="1"/>
        <pt x="439" y="638" on="0"/>
        <pt x="397" y="644" on="0"/>
        <pt x="365" y="644" on="1"/>
        <pt x="339" y="644" on="0"/>
        <pt x="291" y="642" on="0"/>
        <pt x="277" y="642" on="1"/>
        <pt x="269" y="603" on="0"/>
        <pt x="261" y="491" on="0"/>
        <pt x="259" y="428" on="1"/>
        <pt x="273" y="426" on="0"/>
        <pt x="302" y="425" on="0"/>
        <pt x="310" y="425" on="1"/>
        <pt x="331" y="425" on="0"/>
        <pt x="372" y="458" on="0"/>
        <pt x="391" y="484" on="1"/>
        <pt x="396" y="472" on="0"/>
        <pt x="406" y="441" on="0"/>
        <pt x="419" y="410" on="0"/>
        <pt x="435" y="382" on="0"/>
        <pt x="446" y="375" on="1"/>
        <pt x="437" y="366" on="0"/>
        <pt x="420" y="338" on="0"/>
        <pt x="405" y="306" on="0"/>
        <pt x="392" y="274" on="0"/>
        <pt x="387" y="261" on="1"/>
        <pt x="381" y="272" on="0"/>
        <pt x="365" y="298" on="0"/>
        <pt x="347" y="320" on="0"/>
        <pt x="326" y="335" on="0"/>
        <pt x="314" y="335" on="1"/>
        <pt x="305" y="335" on="0"/>
        <pt x="271" y="333" on="0"/>
        <pt x="257" y="330" on="1"/>
        <pt x="257" y="312" on="1"/>
        <pt x="257" y="249" on="0"/>
        <pt x="260" y="136" on="0"/>
        <pt x="264" y="94" on="1"/>
        <pt x="433" y="77" on="1"/>
        <pt x="447" y="139" on="0"/>
        <pt x="518" y="235" on="0"/>
        <pt x="559" y="280" on="1"/>
        <pt x="565" y="278" on="1"/>
        <pt x="562" y="255" on="0"/>
        <pt x="560" y="210" on="0"/>
        <pt x="560" y="189" on="1"/>
        <pt x="560" y="137" on="0"/>
        <pt x="570" y="53" on="0"/>
        <pt x="577" y="32" on="1"/>
        <pt x="560" y="30" on="0"/>
        <pt x="527" y="23" on="0"/>
        <pt x="489" y="7" on="0"/>
        <pt x="446" y="-21" on="0"/>
        <pt x="420" y="-43" on="1"/>
        <pt x="336" y="-18" on="0"/>
        <pt x="172" y="7" on="0"/>
        <pt x="106" y="7" on="1"/>
        <pt x="74" y="7" on="0"/>
        <pt x="47" y="-3" on="1"/>
      </contour>
      <contour>
        <pt x="155" y="921" on="1"/>
        <pt x="181" y="908" on="0"/>
        <pt x="240" y="903" on="0"/>
        <pt x="268" y="903" on="1"/>
        <pt x="369" y="903" on="1"/>
        <pt x="397" y="903" on="0"/>
        <pt x="456" y="908" on="0"/>
        <pt x="482" y="921" on="1"/>
        <pt x="480" y="907" on="0"/>
        <pt x="478" y="881" on="0"/>
        <pt x="478" y="867" on="1"/>
        <pt x="478" y="853" on="0"/>
        <pt x="480" y="827" on="0"/>
        <pt x="482" y="813" on="1"/>
        <pt x="457" y="822" on="0"/>
        <pt x="400" y="830" on="0"/>
        <pt x="370" y="830" on="1"/>
        <pt x="267" y="830" on="1"/>
        <pt x="237" y="830" on="0"/>
        <pt x="180" y="822" on="0"/>
        <pt x="155" y="813" on="1"/>
        <pt x="157" y="827" on="0"/>
        <pt x="159" y="853" on="0"/>
        <pt x="159" y="867" on="1"/>
        <pt x="159" y="881" on="0"/>
        <pt x="157" y="907" on="0"/>
      </contour>
    </TTGlyph>
    <TTGlyph name="Eng" xMin="-11" yMin="-279" xMax="774" yMax="747">
      <contour>
        <pt x="661" y="71" on="1"/>
        <pt x="661" y="17" on="0"/>
        <pt x="672" y="-52" on="0"/>
        <pt x="687" y="-61" on="1"/>
        <pt x="687" y="-66" on="1"/>
        <pt x="662" y="-80" on="0"/>
        <pt x="580" y="-132" on="0"/>
        <pt x="491" y="-193" on="0"/>
        <pt x="405" y="-255" on="0"/>
        <pt x="376" y="-279" on="1"/>
        <pt x="352" y="-230" on="1"/>
        <pt x="369" y="-220" on="0"/>
        <pt x="414" y="-179" on="0"/>
        <pt x="460" y="-130" on="0"/>
        <pt x="501" y="-79" on="0"/>
        <pt x="513" y="-59" on="1"/>
        <pt x="513" y="-46" on="1"/>
        <pt x="471" y="-3" on="0"/>
        <pt x="400" y="93" on="0"/>
        <pt x="340" y="192" on="0"/>
        <pt x="290" y="290" on="0"/>
        <pt x="269" y="334" on="1"/>
        <pt x="269" y="241" on="1"/>
        <pt x="269" y="179" on="0"/>
        <pt x="277" y="95" on="0"/>
        <pt x="295" y="33" on="0"/>
        <pt x="323" y="-14" on="0"/>
        <pt x="343" y="-38" on="1"/>
        <pt x="321" y="-32" on="0"/>
        <pt x="288" y="-20" on="0"/>
        <pt x="257" y="-4" on="0"/>
        <pt x="224" y="20" on="0"/>
        <pt x="202" y="38" on="1"/>
        <pt x="173" y="-9" on="0"/>
        <pt x="73" y="-82" on="0"/>
        <pt x="-11" y="-105" on="1"/>
        <pt x="19" y="-76" on="0"/>
        <pt x="71" y="-3" on="0"/>
        <pt x="110" y="80" on="0"/>
        <pt x="133" y="168" on="0"/>
        <pt x="133" y="213" on="1"/>
        <pt x="133" y="255" on="0"/>
        <pt x="112" y="333" on="0"/>
        <pt x="88" y="369" on="1"/>
        <pt x="137" y="463" on="0"/>
        <pt x="137" y="537" on="1"/>
        <pt x="137" y="600" on="0"/>
        <pt x="72" y="701" on="0"/>
        <pt x="12" y="744" on="1"/>
        <pt x="22" y="747" on="0"/>
        <pt x="35" y="747" on="1"/>
        <pt x="57" y="747" on="0"/>
        <pt x="111" y="738" on="0"/>
        <pt x="177" y="728" on="0"/>
        <pt x="254" y="719" on="0"/>
        <pt x="299" y="719" on="1"/>
        <pt x="309" y="719" on="0"/>
        <pt x="328" y="719" on="0"/>
        <pt x="338" y="720" on="1"/>
        <pt x="284" y="699" on="0"/>
        <pt x="276" y="646" on="1"/>
        <pt x="294" y="602" on="0"/>
        <pt x="344" y="485" on="0"/>
        <pt x="406" y="354" on="0"/>
        <pt x="477" y="216" on="0"/>
        <pt x="516" y="151" on="1"/>
        <pt x="517" y="178" on="0"/>
        <pt x="517" y="231" on="0"/>
        <pt x="517" y="257" on="1"/>
        <pt x="517" y="334" on="0"/>
        <pt x="515" y="472" on="0"/>
        <pt x="513" y="576" on="0"/>
        <pt x="511" y="636" on="0"/>
        <pt x="511" y="636" on="1"/>
        <pt x="506" y="697" on="0"/>
        <pt x="448" y="720" on="1"/>
        <pt x="458" y="719" on="0"/>
        <pt x="477" y="719" on="0"/>
        <pt x="487" y="719" on="1"/>
        <pt x="532" y="719" on="0"/>
        <pt x="609" y="728" on="0"/>
        <pt x="675" y="738" on="0"/>
        <pt x="729" y="747" on="0"/>
        <pt x="751" y="747" on="1"/>
        <pt x="763" y="747" on="0"/>
        <pt x="774" y="744" on="1"/>
        <pt x="714" y="701" on="0"/>
        <pt x="649" y="600" on="0"/>
        <pt x="649" y="537" on="1"/>
        <pt x="649" y="463" on="0"/>
        <pt x="698" y="369" on="1"/>
        <pt x="689" y="347" on="0"/>
        <pt x="675" y="280" on="0"/>
        <pt x="666" y="208" on="0"/>
        <pt x="661" y="138" on="0"/>
        <pt x="661" y="112" on="1"/>
      </contour>
    </TTGlyph>
    <TTGlyph name="Eogonek" xMin="41" yMin="-233" xMax="579" yMax="746">
      <contour>
        <pt x="48" y="0" on="1"/>
        <pt x="63" y="9" on="0"/>
        <pt x="86" y="59" on="0"/>
        <pt x="103" y="123" on="0"/>
        <pt x="111" y="192" on="0"/>
        <pt x="111" y="221" on="1"/>
        <pt x="111" y="266" on="0"/>
        <pt x="92" y="348" on="0"/>
        <pt x="75" y="369" on="1"/>
        <pt x="91" y="385" on="0"/>
        <pt x="112" y="438" on="0"/>
        <pt x="124" y="499" on="0"/>
        <pt x="128" y="563" on="0"/>
        <pt x="128" y="591" on="1"/>
        <pt x="128" y="614" on="0"/>
        <pt x="126" y="648" on="0"/>
        <pt x="125" y="657" on="1"/>
        <pt x="102" y="665" on="0"/>
        <pt x="53" y="715" on="0"/>
        <pt x="41" y="744" on="1"/>
        <pt x="105" y="737" on="0"/>
        <pt x="220" y="732" on="0"/>
        <pt x="271" y="732" on="1"/>
        <pt x="380" y="732" on="0"/>
        <pt x="514" y="746" on="0"/>
        <pt x="553" y="746" on="1"/>
        <pt x="561" y="746" on="0"/>
        <pt x="573" y="745" on="0"/>
        <pt x="578" y="744" on="1"/>
        <pt x="572" y="733" on="0"/>
        <pt x="559" y="675" on="0"/>
        <pt x="547" y="606" on="0"/>
        <pt x="538" y="541" on="0"/>
        <pt x="536" y="525" on="1"/>
        <pt x="529" y="522" on="1"/>
        <pt x="494" y="542" on="0"/>
        <pt x="463" y="592" on="0"/>
        <pt x="455" y="627" on="1"/>
        <pt x="441" y="638" on="0"/>
        <pt x="399" y="644" on="0"/>
        <pt x="367" y="644" on="1"/>
        <pt x="341" y="644" on="0"/>
        <pt x="293" y="642" on="0"/>
        <pt x="279" y="642" on="1"/>
        <pt x="271" y="603" on="0"/>
        <pt x="263" y="491" on="0"/>
        <pt x="261" y="428" on="1"/>
        <pt x="275" y="426" on="0"/>
        <pt x="304" y="425" on="0"/>
        <pt x="312" y="425" on="1"/>
        <pt x="333" y="425" on="0"/>
        <pt x="374" y="458" on="0"/>
        <pt x="393" y="484" on="1"/>
        <pt x="398" y="472" on="0"/>
        <pt x="408" y="441" on="0"/>
        <pt x="421" y="410" on="0"/>
        <pt x="437" y="382" on="0"/>
        <pt x="448" y="375" on="1"/>
        <pt x="439" y="366" on="0"/>
        <pt x="422" y="338" on="0"/>
        <pt x="407" y="306" on="0"/>
        <pt x="394" y="274" on="0"/>
        <pt x="389" y="261" on="1"/>
        <pt x="383" y="272" on="0"/>
        <pt x="367" y="298" on="0"/>
        <pt x="349" y="320" on="0"/>
        <pt x="328" y="335" on="0"/>
        <pt x="316" y="335" on="1"/>
        <pt x="307" y="335" on="0"/>
        <pt x="273" y="333" on="0"/>
        <pt x="259" y="330" on="1"/>
        <pt x="259" y="312" on="1"/>
        <pt x="259" y="249" on="0"/>
        <pt x="262" y="136" on="0"/>
        <pt x="266" y="94" on="1"/>
        <pt x="435" y="77" on="1"/>
        <pt x="449" y="139" on="0"/>
        <pt x="520" y="235" on="0"/>
        <pt x="561" y="280" on="1"/>
        <pt x="567" y="278" on="1"/>
        <pt x="564" y="255" on="0"/>
        <pt x="562" y="210" on="0"/>
        <pt x="562" y="189" on="1"/>
        <pt x="562" y="137" on="0"/>
        <pt x="572" y="53" on="0"/>
        <pt x="579" y="32" on="1"/>
        <pt x="562" y="30" on="0"/>
        <pt x="529" y="23" on="0"/>
        <pt x="491" y="7" on="0"/>
        <pt x="448" y="-21" on="0"/>
        <pt x="422" y="-43" on="1"/>
        <pt x="397" y="-35" on="0"/>
        <pt x="347" y="-22" on="0"/>
        <pt x="322" y="-17" on="1"/>
        <pt x="268" y="-74" on="1"/>
        <pt x="296" y="-164" on="1"/>
        <pt x="302" y="-158" on="0"/>
        <pt x="324" y="-152" on="0"/>
        <pt x="348" y="-149" on="0"/>
        <pt x="371" y="-149" on="0"/>
        <pt x="378" y="-149" on="1"/>
        <pt x="399" y="-149" on="0"/>
        <pt x="440" y="-179" on="0"/>
        <pt x="452" y="-210" on="1"/>
        <pt x="442" y="-205" on="0"/>
        <pt x="423" y="-201" on="0"/>
        <pt x="414" y="-201" on="1"/>
        <pt x="379" y="-201" on="0"/>
        <pt x="353" y="-233" on="1"/>
        <pt x="344" y="-227" on="0"/>
        <pt x="312" y="-215" on="0"/>
        <pt x="275" y="-204" on="0"/>
        <pt x="238" y="-198" on="0"/>
        <pt x="223" y="-198" on="1"/>
        <pt x="188" y="-60" on="1"/>
        <pt x="252" y="-4" on="1"/>
        <pt x="213" y="1" on="0"/>
        <pt x="140" y="7" on="0"/>
        <pt x="108" y="7" on="1"/>
        <pt x="76" y="7" on="0"/>
        <pt x="49" y="-3" on="1"/>
      </contour>
    </TTGlyph>
    <TTGlyph name="Eth" xMin="27" yMin="-54" xMax="678" yMax="755">
      <contour>
        <pt x="612" y="683" on="1"/>
        <pt x="615" y="635" on="0"/>
        <pt x="626" y="570" on="0"/>
        <pt x="642" y="511" on="0"/>
        <pt x="664" y="444" on="0"/>
        <pt x="678" y="394" on="1"/>
        <pt x="668" y="374" on="0"/>
        <pt x="653" y="313" on="0"/>
        <pt x="642" y="247" on="0"/>
        <pt x="637" y="183" on="0"/>
        <pt x="637" y="159" on="1"/>
        <pt x="637" y="140" on="0"/>
        <pt x="640" y="104" on="0"/>
        <pt x="645" y="88" on="1"/>
        <pt x="587" y="77" on="0"/>
        <pt x="501" y="0" on="0"/>
        <pt x="459" y="-54" on="1"/>
        <pt x="378" y="-19" on="0"/>
        <pt x="165" y="10" on="0"/>
        <pt x="44" y="10" on="1"/>
        <pt x="55" y="16" on="0"/>
        <pt x="89" y="49" on="0"/>
        <pt x="121" y="92" on="0"/>
        <pt x="144" y="139" on="0"/>
        <pt x="144" y="159" on="1"/>
        <pt x="144" y="188" on="0"/>
        <pt x="141" y="264" on="0"/>
        <pt x="131" y="299" on="1"/>
        <pt x="103" y="298" on="0"/>
        <pt x="50" y="290" on="0"/>
        <pt x="27" y="282" on="1"/>
        <pt x="27" y="412" on="1"/>
        <pt x="50" y="400" on="0"/>
        <pt x="102" y="394" on="0"/>
        <pt x="128" y="394" on="1"/>
        <pt x="136" y="430" on="0"/>
        <pt x="142" y="519" on="0"/>
        <pt x="142" y="557" on="1"/>
        <pt x="142" y="589" on="0"/>
        <pt x="132" y="635" on="0"/>
        <pt x="107" y="674" on="0"/>
        <pt x="64" y="712" on="0"/>
        <pt x="31" y="737" on="1"/>
        <pt x="102" y="737" on="0"/>
        <pt x="215" y="738" on="0"/>
        <pt x="311" y="741" on="0"/>
        <pt x="395" y="748" on="0"/>
        <pt x="437" y="755" on="1"/>
        <pt x="468" y="736" on="0"/>
        <pt x="564" y="696" on="0"/>
      </contour>
      <contour>
        <pt x="500" y="144" on="1"/>
        <pt x="500" y="166" on="0"/>
        <pt x="506" y="239" on="0"/>
        <pt x="517" y="314" on="0"/>
        <pt x="532" y="380" on="0"/>
        <pt x="541" y="396" on="1"/>
        <pt x="534" y="416" on="0"/>
        <pt x="516" y="477" on="0"/>
        <pt x="498" y="544" on="0"/>
        <pt x="484" y="611" on="0"/>
        <pt x="481" y="637" on="1"/>
        <pt x="465" y="637" on="0"/>
        <pt x="416" y="634" on="0"/>
        <pt x="359" y="627" on="0"/>
        <pt x="302" y="616" on="0"/>
        <pt x="278" y="608" on="1"/>
        <pt x="276" y="566" on="0"/>
        <pt x="274" y="457" on="0"/>
        <pt x="274" y="394" on="1"/>
        <pt x="294" y="396" on="0"/>
        <pt x="334" y="403" on="0"/>
        <pt x="353" y="412" on="1"/>
        <pt x="353" y="282" on="1"/>
        <pt x="335" y="288" on="0"/>
        <pt x="295" y="296" on="0"/>
        <pt x="274" y="298" on="1"/>
        <pt x="276" y="250" on="0"/>
        <pt x="280" y="152" on="0"/>
        <pt x="285" y="100" on="1"/>
        <pt x="295" y="97" on="0"/>
        <pt x="328" y="89" on="0"/>
        <pt x="364" y="81" on="0"/>
        <pt x="399" y="74" on="0"/>
        <pt x="412" y="72" on="1"/>
        <pt x="426" y="95" on="0"/>
        <pt x="474" y="133" on="0"/>
      </contour>
    </TTGlyph>
    <TTGlyph name="Etilde" xMin="39" yMin="-43" xMax="577" yMax="943">
      <contour>
        <pt x="46" y="0" on="1"/>
        <pt x="61" y="9" on="0"/>
        <pt x="84" y="59" on="0"/>
        <pt x="101" y="123" on="0"/>
        <pt x="109" y="192" on="0"/>
        <pt x="109" y="221" on="1"/>
        <pt x="109" y="266" on="0"/>
        <pt x="90" y="348" on="0"/>
        <pt x="73" y="369" on="1"/>
        <pt x="89" y="385" on="0"/>
        <pt x="110" y="438" on="0"/>
        <pt x="122" y="499" on="0"/>
        <pt x="126" y="563" on="0"/>
        <pt x="126" y="591" on="1"/>
        <pt x="126" y="614" on="0"/>
        <pt x="124" y="648" on="0"/>
        <pt x="123" y="657" on="1"/>
        <pt x="100" y="665" on="0"/>
        <pt x="51" y="715" on="0"/>
        <pt x="39" y="744" on="1"/>
        <pt x="103" y="737" on="0"/>
        <pt x="218" y="732" on="0"/>
        <pt x="269" y="732" on="1"/>
        <pt x="378" y="732" on="0"/>
        <pt x="512" y="746" on="0"/>
        <pt x="551" y="746" on="1"/>
        <pt x="559" y="746" on="0"/>
        <pt x="571" y="745" on="0"/>
        <pt x="576" y="744" on="1"/>
        <pt x="570" y="733" on="0"/>
        <pt x="557" y="675" on="0"/>
        <pt x="545" y="606" on="0"/>
        <pt x="536" y="541" on="0"/>
        <pt x="534" y="525" on="1"/>
        <pt x="527" y="522" on="1"/>
        <pt x="492" y="542" on="0"/>
        <pt x="461" y="592" on="0"/>
        <pt x="453" y="627" on="1"/>
        <pt x="439" y="638" on="0"/>
        <pt x="397" y="644" on="0"/>
        <pt x="365" y="644" on="1"/>
        <pt x="339" y="644" on="0"/>
        <pt x="291" y="642" on="0"/>
        <pt x="277" y="642" on="1"/>
        <pt x="269" y="603" on="0"/>
        <pt x="261" y="491" on="0"/>
        <pt x="259" y="428" on="1"/>
        <pt x="273" y="426" on="0"/>
        <pt x="302" y="425" on="0"/>
        <pt x="310" y="425" on="1"/>
        <pt x="331" y="425" on="0"/>
        <pt x="372" y="458" on="0"/>
        <pt x="391" y="484" on="1"/>
        <pt x="396" y="472" on="0"/>
        <pt x="406" y="441" on="0"/>
        <pt x="419" y="410" on="0"/>
        <pt x="435" y="382" on="0"/>
        <pt x="446" y="375" on="1"/>
        <pt x="437" y="366" on="0"/>
        <pt x="420" y="338" on="0"/>
        <pt x="405" y="306" on="0"/>
        <pt x="392" y="274" on="0"/>
        <pt x="387" y="261" on="1"/>
        <pt x="381" y="272" on="0"/>
        <pt x="365" y="298" on="0"/>
        <pt x="347" y="320" on="0"/>
        <pt x="326" y="335" on="0"/>
        <pt x="314" y="335" on="1"/>
        <pt x="305" y="335" on="0"/>
        <pt x="271" y="333" on="0"/>
        <pt x="257" y="330" on="1"/>
        <pt x="257" y="312" on="1"/>
        <pt x="257" y="249" on="0"/>
        <pt x="260" y="136" on="0"/>
        <pt x="264" y="94" on="1"/>
        <pt x="433" y="77" on="1"/>
        <pt x="447" y="139" on="0"/>
        <pt x="518" y="235" on="0"/>
        <pt x="559" y="280" on="1"/>
        <pt x="565" y="278" on="1"/>
        <pt x="562" y="255" on="0"/>
        <pt x="560" y="210" on="0"/>
        <pt x="560" y="189" on="1"/>
        <pt x="560" y="137" on="0"/>
        <pt x="570" y="53" on="0"/>
        <pt x="577" y="32" on="1"/>
        <pt x="560" y="30" on="0"/>
        <pt x="527" y="23" on="0"/>
        <pt x="489" y="7" on="0"/>
        <pt x="446" y="-21" on="0"/>
        <pt x="420" y="-43" on="1"/>
        <pt x="336" y="-18" on="0"/>
        <pt x="172" y="7" on="0"/>
        <pt x="106" y="7" on="1"/>
        <pt x="74" y="7" on="0"/>
        <pt x="47" y="-3" on="1"/>
      </contour>
      <contour>
        <pt x="150" y="899" on="1"/>
        <pt x="181" y="901" on="0"/>
        <pt x="250" y="928" on="0"/>
        <pt x="273" y="942" on="1"/>
        <pt x="364" y="898" on="1"/>
        <pt x="399" y="900" on="0"/>
        <pt x="459" y="928" on="0"/>
        <pt x="487" y="943" on="1"/>
        <pt x="487" y="825" on="1"/>
        <pt x="445" y="824" on="0"/>
        <pt x="384" y="801" on="0"/>
        <pt x="365" y="783" on="1"/>
        <pt x="272" y="827" on="1"/>
        <pt x="220" y="826" on="0"/>
        <pt x="165" y="797" on="0"/>
        <pt x="150" y="783" on="1"/>
      </contour>
    </TTGlyph>
    <TTGlyph name="Euro" xMin="39" yMin="-73" xMax="587" yMax="746">
      <contour>
        <pt x="74" y="518" on="1"/>
        <pt x="98" y="506" on="0"/>
        <pt x="126" y="503" on="1"/>
        <pt x="126" y="591" on="1"/>
        <pt x="126" y="614" on="0"/>
        <pt x="124" y="648" on="0"/>
        <pt x="123" y="657" on="1"/>
        <pt x="100" y="665" on="0"/>
        <pt x="51" y="715" on="0"/>
        <pt x="39" y="744" on="1"/>
        <pt x="103" y="737" on="0"/>
        <pt x="218" y="732" on="0"/>
        <pt x="269" y="732" on="1"/>
        <pt x="378" y="732" on="0"/>
        <pt x="512" y="746" on="0"/>
        <pt x="551" y="746" on="1"/>
        <pt x="559" y="746" on="0"/>
        <pt x="571" y="745" on="0"/>
        <pt x="576" y="744" on="1"/>
        <pt x="572" y="735" on="0"/>
        <pt x="563" y="692" on="0"/>
        <pt x="553" y="639" on="0"/>
        <pt x="545" y="580" on="0"/>
        <pt x="538" y="529" on="0"/>
        <pt x="534" y="491" on="0"/>
        <pt x="534" y="486" on="1"/>
        <pt x="514" y="500" on="0"/>
        <pt x="487" y="529" on="0"/>
        <pt x="469" y="563" on="0"/>
        <pt x="457" y="603" on="0"/>
        <pt x="453" y="627" on="1"/>
        <pt x="439" y="638" on="0"/>
        <pt x="397" y="644" on="0"/>
        <pt x="365" y="644" on="1"/>
        <pt x="339" y="644" on="0"/>
        <pt x="291" y="642" on="0"/>
        <pt x="277" y="642" on="1"/>
        <pt x="270" y="624" on="0"/>
        <pt x="264" y="549" on="0"/>
        <pt x="262" y="500" on="1"/>
        <pt x="338" y="500" on="1"/>
        <pt x="366" y="500" on="0"/>
        <pt x="425" y="505" on="0"/>
        <pt x="451" y="518" on="1"/>
        <pt x="451" y="378" on="1"/>
        <pt x="426" y="387" on="0"/>
        <pt x="369" y="395" on="0"/>
        <pt x="339" y="395" on="1"/>
        <pt x="262" y="395" on="1"/>
        <pt x="262" y="301" on="1"/>
        <pt x="338" y="301" on="1"/>
        <pt x="366" y="301" on="0"/>
        <pt x="425" y="306" on="0"/>
        <pt x="451" y="319" on="1"/>
        <pt x="451" y="179" on="1"/>
        <pt x="426" y="188" on="0"/>
        <pt x="369" y="196" on="0"/>
        <pt x="339" y="196" on="1"/>
        <pt x="264" y="196" on="1"/>
        <pt x="265" y="166" on="0"/>
        <pt x="265" y="111" on="0"/>
        <pt x="265" y="86" on="1"/>
        <pt x="295" y="79" on="0"/>
        <pt x="330" y="68" on="0"/>
        <pt x="363" y="61" on="0"/>
        <pt x="405" y="56" on="0"/>
        <pt x="443" y="54" on="1"/>
        <pt x="450" y="87" on="0"/>
        <pt x="473" y="140" on="0"/>
        <pt x="504" y="188" on="0"/>
        <pt x="543" y="235" on="0"/>
        <pt x="567" y="262" on="1"/>
        <pt x="575" y="173" on="0"/>
        <pt x="579" y="49" on="0"/>
        <pt x="587" y="32" on="1"/>
        <pt x="540" y="21" on="0"/>
        <pt x="456" y="-26" on="0"/>
        <pt x="400" y="-73" on="1"/>
        <pt x="356" y="-46" on="0"/>
        <pt x="260" y="-8" on="0"/>
        <pt x="166" y="21" on="0"/>
        <pt x="80" y="43" on="0"/>
        <pt x="47" y="54" on="1"/>
        <pt x="61" y="57" on="0"/>
        <pt x="85" y="82" on="0"/>
        <pt x="105" y="119" on="0"/>
        <pt x="118" y="166" on="0"/>
        <pt x="121" y="191" on="1"/>
        <pt x="96" y="186" on="0"/>
        <pt x="74" y="179" on="1"/>
        <pt x="74" y="319" on="1"/>
        <pt x="85" y="313" on="0"/>
        <pt x="110" y="306" on="0"/>
        <pt x="123" y="304" on="1"/>
        <pt x="123" y="327" on="0"/>
        <pt x="124" y="370" on="0"/>
        <pt x="124" y="390" on="1"/>
        <pt x="96" y="385" on="0"/>
        <pt x="74" y="378" on="1"/>
      </contour>
    </TTGlyph>
    <TTGlyph name="F" xMin="-18" yMin="-78" xMax="678" yMax="772">
      <contour>
        <pt x="-18" y="651" on="1"/>
        <pt x="25" y="668" on="0"/>
        <pt x="95" y="726" on="0"/>
        <pt x="121" y="759" on="1"/>
        <pt x="167" y="744" on="0"/>
        <pt x="233" y="726" on="0"/>
        <pt x="289" y="716" on="0"/>
        <pt x="344" y="713" on="0"/>
        <pt x="379" y="713" on="1"/>
        <pt x="369" y="730" on="0"/>
        <pt x="361" y="757" on="0"/>
        <pt x="360" y="772" on="1"/>
        <pt x="426" y="730" on="0"/>
        <pt x="556" y="701" on="0"/>
        <pt x="613" y="701" on="1"/>
        <pt x="631" y="701" on="0"/>
        <pt x="663" y="704" on="0"/>
        <pt x="678" y="706" on="1"/>
        <pt x="654" y="684" on="0"/>
        <pt x="586" y="645" on="0"/>
        <pt x="511" y="615" on="0"/>
        <pt x="433" y="597" on="0"/>
        <pt x="400" y="597" on="1"/>
        <pt x="377" y="597" on="0"/>
        <pt x="321" y="599" on="0"/>
        <pt x="298" y="601" on="1"/>
        <pt x="296" y="586" on="0"/>
        <pt x="295" y="554" on="0"/>
        <pt x="295" y="537" on="1"/>
        <pt x="295" y="422" on="1"/>
        <pt x="315" y="418" on="0"/>
        <pt x="340" y="418" on="1"/>
        <pt x="363" y="418" on="0"/>
        <pt x="411" y="439" on="0"/>
        <pt x="434" y="452" on="1"/>
        <pt x="462" y="433" on="0"/>
        <pt x="522" y="391" on="0"/>
        <pt x="556" y="371" on="1"/>
        <pt x="527" y="354" on="0"/>
        <pt x="463" y="308" on="0"/>
        <pt x="435" y="288" on="1"/>
        <pt x="414" y="302" on="0"/>
        <pt x="367" y="320" on="0"/>
        <pt x="344" y="320" on="1"/>
        <pt x="320" y="320" on="0"/>
        <pt x="296" y="313" on="1"/>
        <pt x="297" y="275" on="0"/>
        <pt x="296" y="188" on="0"/>
        <pt x="308" y="107" on="0"/>
        <pt x="338" y="38" on="0"/>
        <pt x="369" y="19" on="1"/>
        <pt x="326" y="-1" on="0"/>
        <pt x="281" y="-49" on="0"/>
        <pt x="259" y="-78" on="1"/>
        <pt x="242" y="-49" on="0"/>
        <pt x="163" y="2" on="0"/>
        <pt x="118" y="19" on="1"/>
        <pt x="128" y="34" on="0"/>
        <pt x="143" y="73" on="0"/>
        <pt x="153" y="118" on="0"/>
        <pt x="158" y="165" on="0"/>
        <pt x="158" y="188" on="1"/>
        <pt x="158" y="239" on="0"/>
        <pt x="135" y="327" on="0"/>
        <pt x="114" y="349" on="1"/>
        <pt x="140" y="385" on="0"/>
        <pt x="161" y="502" on="0"/>
        <pt x="161" y="566" on="1"/>
        <pt x="161" y="580" on="0"/>
        <pt x="160" y="609" on="0"/>
        <pt x="159" y="623" on="1"/>
        <pt x="123" y="634" on="0"/>
        <pt x="56" y="653" on="0"/>
        <pt x="32" y="653" on="1"/>
        <pt x="18" y="653" on="0"/>
        <pt x="-5" y="650" on="0"/>
        <pt x="-17" y="648" on="1"/>
      </contour>
    </TTGlyph>
    <TTGlyph name="G" xMin="32" yMin="-73" xMax="617" yMax="746">
      <contour>
        <pt x="537" y="486" on="1"/>
        <pt x="517" y="500" on="0"/>
        <pt x="490" y="529" on="0"/>
        <pt x="472" y="563" on="0"/>
        <pt x="460" y="603" on="0"/>
        <pt x="456" y="627" on="1"/>
        <pt x="442" y="638" on="0"/>
        <pt x="380" y="644" on="0"/>
        <pt x="348" y="644" on="1"/>
        <pt x="322" y="644" on="0"/>
        <pt x="284" y="642" on="0"/>
        <pt x="270" y="642" on="1"/>
        <pt x="261" y="617" on="0"/>
        <pt x="255" y="496" on="0"/>
        <pt x="255" y="418" on="1"/>
        <pt x="255" y="376" on="0"/>
        <pt x="256" y="288" on="0"/>
        <pt x="257" y="202" on="0"/>
        <pt x="258" y="121" on="0"/>
        <pt x="258" y="86" on="1"/>
        <pt x="288" y="79" on="0"/>
        <pt x="326" y="68" on="0"/>
        <pt x="362" y="61" on="0"/>
        <pt x="408" y="56" on="0"/>
        <pt x="446" y="54" on="1"/>
        <pt x="448" y="62" on="0"/>
        <pt x="449" y="115" on="0"/>
        <pt x="449" y="150" on="1"/>
        <pt x="449" y="189" on="0"/>
        <pt x="448" y="241" on="0"/>
        <pt x="446" y="267" on="1"/>
        <pt x="433" y="267" on="0"/>
        <pt x="416" y="272" on="0"/>
        <pt x="393" y="278" on="0"/>
        <pt x="356" y="284" on="0"/>
        <pt x="325" y="286" on="1"/>
        <pt x="329" y="293" on="0"/>
        <pt x="341" y="316" on="0"/>
        <pt x="353" y="342" on="0"/>
        <pt x="362" y="365" on="0"/>
        <pt x="364" y="373" on="1"/>
        <pt x="402" y="365" on="0"/>
        <pt x="475" y="357" on="0"/>
        <pt x="508" y="357" on="1"/>
        <pt x="542" y="357" on="0"/>
        <pt x="598" y="366" on="0"/>
        <pt x="617" y="377" on="1"/>
        <pt x="614" y="369" on="0"/>
        <pt x="599" y="340" on="0"/>
        <pt x="583" y="307" on="0"/>
        <pt x="571" y="275" on="0"/>
        <pt x="571" y="263" on="1"/>
        <pt x="574" y="221" on="0"/>
        <pt x="578" y="143" on="0"/>
        <pt x="583" y="80" on="0"/>
        <pt x="587" y="38" on="0"/>
        <pt x="590" y="32" on="1"/>
        <pt x="543" y="21" on="0"/>
        <pt x="459" y="-26" on="0"/>
        <pt x="403" y="-73" on="1"/>
        <pt x="359" y="-46" on="0"/>
        <pt x="259" y="-8" on="0"/>
        <pt x="162" y="21" on="0"/>
        <pt x="73" y="43" on="0"/>
        <pt x="40" y="54" on="1"/>
        <pt x="56" y="58" on="0"/>
        <pt x="79" y="89" on="0"/>
        <pt x="94" y="135" on="0"/>
        <pt x="102" y="192" on="0"/>
        <pt x="102" y="221" on="1"/>
        <pt x="102" y="266" on="0"/>
        <pt x="83" y="348" on="0"/>
        <pt x="66" y="369" on="1"/>
        <pt x="82" y="385" on="0"/>
        <pt x="103" y="438" on="0"/>
        <pt x="115" y="499" on="0"/>
        <pt x="119" y="563" on="0"/>
        <pt x="119" y="591" on="1"/>
        <pt x="119" y="614" on="0"/>
        <pt x="117" y="648" on="0"/>
        <pt x="116" y="657" on="1"/>
        <pt x="93" y="665" on="0"/>
        <pt x="44" y="715" on="0"/>
        <pt x="32" y="744" on="1"/>
        <pt x="96" y="737" on="0"/>
        <pt x="211" y="732" on="0"/>
        <pt x="262" y="732" on="1"/>
        <pt x="373" y="732" on="0"/>
        <pt x="515" y="746" on="0"/>
        <pt x="554" y="746" on="1"/>
        <pt x="562" y="746" on="0"/>
        <pt x="574" y="745" on="0"/>
        <pt x="579" y="744" on="1"/>
        <pt x="575" y="735" on="0"/>
        <pt x="566" y="692" on="0"/>
        <pt x="556" y="639" on="0"/>
        <pt x="548" y="580" on="0"/>
        <pt x="541" y="529" on="0"/>
        <pt x="537" y="491" on="0"/>
      </contour>
    </TTGlyph>
    <TTGlyph name="Gbreve" xMin="32" yMin="-73" xMax="617" yMax="933">
      <contour>
        <pt x="537" y="486" on="1"/>
        <pt x="517" y="500" on="0"/>
        <pt x="490" y="529" on="0"/>
        <pt x="472" y="563" on="0"/>
        <pt x="460" y="603" on="0"/>
        <pt x="456" y="627" on="1"/>
        <pt x="442" y="638" on="0"/>
        <pt x="380" y="644" on="0"/>
        <pt x="348" y="644" on="1"/>
        <pt x="322" y="644" on="0"/>
        <pt x="284" y="642" on="0"/>
        <pt x="270" y="642" on="1"/>
        <pt x="261" y="617" on="0"/>
        <pt x="255" y="496" on="0"/>
        <pt x="255" y="418" on="1"/>
        <pt x="255" y="376" on="0"/>
        <pt x="256" y="288" on="0"/>
        <pt x="257" y="202" on="0"/>
        <pt x="258" y="121" on="0"/>
        <pt x="258" y="86" on="1"/>
        <pt x="288" y="79" on="0"/>
        <pt x="326" y="68" on="0"/>
        <pt x="362" y="61" on="0"/>
        <pt x="408" y="56" on="0"/>
        <pt x="446" y="54" on="1"/>
        <pt x="448" y="62" on="0"/>
        <pt x="449" y="115" on="0"/>
        <pt x="449" y="150" on="1"/>
        <pt x="449" y="189" on="0"/>
        <pt x="448" y="241" on="0"/>
        <pt x="446" y="267" on="1"/>
        <pt x="433" y="267" on="0"/>
        <pt x="416" y="272" on="0"/>
        <pt x="393" y="278" on="0"/>
        <pt x="356" y="284" on="0"/>
        <pt x="325" y="286" on="1"/>
        <pt x="329" y="293" on="0"/>
        <pt x="341" y="316" on="0"/>
        <pt x="353" y="342" on="0"/>
        <pt x="362" y="365" on="0"/>
        <pt x="364" y="373" on="1"/>
        <pt x="402" y="365" on="0"/>
        <pt x="475" y="357" on="0"/>
        <pt x="508" y="357" on="1"/>
        <pt x="542" y="357" on="0"/>
        <pt x="598" y="366" on="0"/>
        <pt x="617" y="377" on="1"/>
        <pt x="614" y="369" on="0"/>
        <pt x="599" y="340" on="0"/>
        <pt x="583" y="307" on="0"/>
        <pt x="571" y="275" on="0"/>
        <pt x="571" y="263" on="1"/>
        <pt x="574" y="221" on="0"/>
        <pt x="578" y="143" on="0"/>
        <pt x="583" y="80" on="0"/>
        <pt x="587" y="38" on="0"/>
        <pt x="590" y="32" on="1"/>
        <pt x="543" y="21" on="0"/>
        <pt x="459" y="-26" on="0"/>
        <pt x="403" y="-73" on="1"/>
        <pt x="359" y="-46" on="0"/>
        <pt x="259" y="-8" on="0"/>
        <pt x="162" y="21" on="0"/>
        <pt x="73" y="43" on="0"/>
        <pt x="40" y="54" on="1"/>
        <pt x="56" y="58" on="0"/>
        <pt x="79" y="89" on="0"/>
        <pt x="94" y="135" on="0"/>
        <pt x="102" y="192" on="0"/>
        <pt x="102" y="221" on="1"/>
        <pt x="102" y="266" on="0"/>
        <pt x="83" y="348" on="0"/>
        <pt x="66" y="369" on="1"/>
        <pt x="82" y="385" on="0"/>
        <pt x="103" y="438" on="0"/>
        <pt x="115" y="499" on="0"/>
        <pt x="119" y="563" on="0"/>
        <pt x="119" y="591" on="1"/>
        <pt x="119" y="614" on="0"/>
        <pt x="117" y="648" on="0"/>
        <pt x="116" y="657" on="1"/>
        <pt x="93" y="665" on="0"/>
        <pt x="44" y="715" on="0"/>
        <pt x="32" y="744" on="1"/>
        <pt x="96" y="737" on="0"/>
        <pt x="211" y="732" on="0"/>
        <pt x="262" y="732" on="1"/>
        <pt x="373" y="732" on="0"/>
        <pt x="515" y="746" on="0"/>
        <pt x="554" y="746" on="1"/>
        <pt x="562" y="746" on="0"/>
        <pt x="574" y="745" on="0"/>
        <pt x="579" y="744" on="1"/>
        <pt x="575" y="735" on="0"/>
        <pt x="566" y="692" on="0"/>
        <pt x="556" y="639" on="0"/>
        <pt x="548" y="580" on="0"/>
        <pt x="541" y="529" on="0"/>
        <pt x="537" y="491" on="0"/>
      </contour>
      <contour>
        <pt x="466" y="900" on="1"/>
        <pt x="461" y="876" on="0"/>
        <pt x="434" y="839" on="0"/>
        <pt x="395" y="815" on="0"/>
        <pt x="348" y="802" on="0"/>
        <pt x="324" y="802" on="1"/>
        <pt x="301" y="802" on="0"/>
        <pt x="257" y="814" on="0"/>
        <pt x="219" y="838" on="0"/>
        <pt x="192" y="875" on="0"/>
        <pt x="186" y="900" on="1"/>
        <pt x="198" y="904" on="0"/>
        <pt x="217" y="911" on="0"/>
        <pt x="233" y="918" on="0"/>
        <pt x="248" y="927" on="0"/>
        <pt x="258" y="933" on="1"/>
        <pt x="260" y="900" on="0"/>
        <pt x="299" y="867" on="0"/>
        <pt x="323" y="867" on="1"/>
        <pt x="348" y="867" on="0"/>
        <pt x="391" y="900" on="0"/>
        <pt x="394" y="932" on="1"/>
        <pt x="414" y="918" on="0"/>
        <pt x="446" y="905" on="0"/>
      </contour>
    </TTGlyph>
    <TTGlyph name="Gcircumflex" xMin="32" yMin="-73" xMax="617" yMax="945">
      <contour>
        <pt x="537" y="486" on="1"/>
        <pt x="517" y="500" on="0"/>
        <pt x="490" y="529" on="0"/>
        <pt x="472" y="563" on="0"/>
        <pt x="460" y="603" on="0"/>
        <pt x="456" y="627" on="1"/>
        <pt x="442" y="638" on="0"/>
        <pt x="380" y="644" on="0"/>
        <pt x="348" y="644" on="1"/>
        <pt x="322" y="644" on="0"/>
        <pt x="284" y="642" on="0"/>
        <pt x="270" y="642" on="1"/>
        <pt x="261" y="617" on="0"/>
        <pt x="255" y="496" on="0"/>
        <pt x="255" y="418" on="1"/>
        <pt x="255" y="376" on="0"/>
        <pt x="256" y="288" on="0"/>
        <pt x="257" y="202" on="0"/>
        <pt x="258" y="121" on="0"/>
        <pt x="258" y="86" on="1"/>
        <pt x="288" y="79" on="0"/>
        <pt x="326" y="68" on="0"/>
        <pt x="362" y="61" on="0"/>
        <pt x="408" y="56" on="0"/>
        <pt x="446" y="54" on="1"/>
        <pt x="448" y="62" on="0"/>
        <pt x="449" y="115" on="0"/>
        <pt x="449" y="150" on="1"/>
        <pt x="449" y="189" on="0"/>
        <pt x="448" y="241" on="0"/>
        <pt x="446" y="267" on="1"/>
        <pt x="433" y="267" on="0"/>
        <pt x="416" y="272" on="0"/>
        <pt x="393" y="278" on="0"/>
        <pt x="356" y="284" on="0"/>
        <pt x="325" y="286" on="1"/>
        <pt x="329" y="293" on="0"/>
        <pt x="341" y="316" on="0"/>
        <pt x="353" y="342" on="0"/>
        <pt x="362" y="365" on="0"/>
        <pt x="364" y="373" on="1"/>
        <pt x="402" y="365" on="0"/>
        <pt x="475" y="357" on="0"/>
        <pt x="508" y="357" on="1"/>
        <pt x="542" y="357" on="0"/>
        <pt x="598" y="366" on="0"/>
        <pt x="617" y="377" on="1"/>
        <pt x="614" y="369" on="0"/>
        <pt x="599" y="340" on="0"/>
        <pt x="583" y="307" on="0"/>
        <pt x="571" y="275" on="0"/>
        <pt x="571" y="263" on="1"/>
        <pt x="574" y="221" on="0"/>
        <pt x="578" y="143" on="0"/>
        <pt x="583" y="80" on="0"/>
        <pt x="587" y="38" on="0"/>
        <pt x="590" y="32" on="1"/>
        <pt x="543" y="21" on="0"/>
        <pt x="459" y="-26" on="0"/>
        <pt x="403" y="-73" on="1"/>
        <pt x="359" y="-46" on="0"/>
        <pt x="259" y="-8" on="0"/>
        <pt x="162" y="21" on="0"/>
        <pt x="73" y="43" on="0"/>
        <pt x="40" y="54" on="1"/>
        <pt x="56" y="58" on="0"/>
        <pt x="79" y="89" on="0"/>
        <pt x="94" y="135" on="0"/>
        <pt x="102" y="192" on="0"/>
        <pt x="102" y="221" on="1"/>
        <pt x="102" y="266" on="0"/>
        <pt x="83" y="348" on="0"/>
        <pt x="66" y="369" on="1"/>
        <pt x="82" y="385" on="0"/>
        <pt x="103" y="438" on="0"/>
        <pt x="115" y="499" on="0"/>
        <pt x="119" y="563" on="0"/>
        <pt x="119" y="591" on="1"/>
        <pt x="119" y="614" on="0"/>
        <pt x="117" y="648" on="0"/>
        <pt x="116" y="657" on="1"/>
        <pt x="93" y="665" on="0"/>
        <pt x="44" y="715" on="0"/>
        <pt x="32" y="744" on="1"/>
        <pt x="96" y="737" on="0"/>
        <pt x="211" y="732" on="0"/>
        <pt x="262" y="732" on="1"/>
        <pt x="373" y="732" on="0"/>
        <pt x="515" y="746" on="0"/>
        <pt x="554" y="746" on="1"/>
        <pt x="562" y="746" on="0"/>
        <pt x="574" y="745" on="0"/>
        <pt x="579" y="744" on="1"/>
        <pt x="575" y="735" on="0"/>
        <pt x="566" y="692" on="0"/>
        <pt x="556" y="639" on="0"/>
        <pt x="548" y="580" on="0"/>
        <pt x="541" y="529" on="0"/>
        <pt x="537" y="491" on="0"/>
      </contour>
      <contour>
        <pt x="495" y="828" on="1"/>
        <pt x="480" y="816" on="0"/>
        <pt x="464" y="800" on="0"/>
        <pt x="449" y="786" on="1"/>
        <pt x="437" y="793" on="0"/>
        <pt x="405" y="808" on="0"/>
        <pt x="371" y="822" on="0"/>
        <pt x="338" y="835" on="0"/>
        <pt x="325" y="840" on="1"/>
        <pt x="311" y="835" on="0"/>
        <pt x="277" y="822" on="0"/>
        <pt x="243" y="807" on="0"/>
        <pt x="212" y="792" on="0"/>
        <pt x="200" y="786" on="1"/>
        <pt x="184" y="799" on="0"/>
        <pt x="169" y="816" on="0"/>
        <pt x="154" y="828" on="1"/>
        <pt x="189" y="854" on="0"/>
        <pt x="282" y="913" on="0"/>
        <pt x="324" y="945" on="1"/>
        <pt x="390" y="900" on="0"/>
        <pt x="481" y="840" on="0"/>
      </contour>
    </TTGlyph>
    <TTGlyph name="Gcommaaccent" xMin="32" yMin="-283" xMax="617" yMax="746">
      <contour>
        <pt x="537" y="486" on="1"/>
        <pt x="517" y="500" on="0"/>
        <pt x="490" y="529" on="0"/>
        <pt x="472" y="563" on="0"/>
        <pt x="460" y="603" on="0"/>
        <pt x="456" y="627" on="1"/>
        <pt x="442" y="638" on="0"/>
        <pt x="380" y="644" on="0"/>
        <pt x="348" y="644" on="1"/>
        <pt x="322" y="644" on="0"/>
        <pt x="284" y="642" on="0"/>
        <pt x="270" y="642" on="1"/>
        <pt x="261" y="617" on="0"/>
        <pt x="255" y="496" on="0"/>
        <pt x="255" y="418" on="1"/>
        <pt x="255" y="376" on="0"/>
        <pt x="256" y="288" on="0"/>
        <pt x="257" y="202" on="0"/>
        <pt x="258" y="121" on="0"/>
        <pt x="258" y="86" on="1"/>
        <pt x="288" y="79" on="0"/>
        <pt x="326" y="68" on="0"/>
        <pt x="362" y="61" on="0"/>
        <pt x="408" y="56" on="0"/>
        <pt x="446" y="54" on="1"/>
        <pt x="448" y="62" on="0"/>
        <pt x="449" y="115" on="0"/>
        <pt x="449" y="150" on="1"/>
        <pt x="449" y="189" on="0"/>
        <pt x="448" y="241" on="0"/>
        <pt x="446" y="267" on="1"/>
        <pt x="433" y="267" on="0"/>
        <pt x="416" y="272" on="0"/>
        <pt x="393" y="278" on="0"/>
        <pt x="356" y="284" on="0"/>
        <pt x="325" y="286" on="1"/>
        <pt x="329" y="293" on="0"/>
        <pt x="341" y="316" on="0"/>
        <pt x="353" y="342" on="0"/>
        <pt x="362" y="365" on="0"/>
        <pt x="364" y="373" on="1"/>
        <pt x="402" y="365" on="0"/>
        <pt x="475" y="357" on="0"/>
        <pt x="508" y="357" on="1"/>
        <pt x="542" y="357" on="0"/>
        <pt x="598" y="366" on="0"/>
        <pt x="617" y="377" on="1"/>
        <pt x="614" y="369" on="0"/>
        <pt x="599" y="340" on="0"/>
        <pt x="583" y="307" on="0"/>
        <pt x="571" y="275" on="0"/>
        <pt x="571" y="263" on="1"/>
        <pt x="574" y="221" on="0"/>
        <pt x="578" y="143" on="0"/>
        <pt x="583" y="80" on="0"/>
        <pt x="587" y="38" on="0"/>
        <pt x="590" y="32" on="1"/>
        <pt x="543" y="21" on="0"/>
        <pt x="459" y="-26" on="0"/>
        <pt x="403" y="-73" on="1"/>
        <pt x="359" y="-46" on="0"/>
        <pt x="259" y="-8" on="0"/>
        <pt x="162" y="21" on="0"/>
        <pt x="73" y="43" on="0"/>
        <pt x="40" y="54" on="1"/>
        <pt x="56" y="58" on="0"/>
        <pt x="79" y="89" on="0"/>
        <pt x="94" y="135" on="0"/>
        <pt x="102" y="192" on="0"/>
        <pt x="102" y="221" on="1"/>
        <pt x="102" y="266" on="0"/>
        <pt x="83" y="348" on="0"/>
        <pt x="66" y="369" on="1"/>
        <pt x="82" y="385" on="0"/>
        <pt x="103" y="438" on="0"/>
        <pt x="115" y="499" on="0"/>
        <pt x="119" y="563" on="0"/>
        <pt x="119" y="591" on="1"/>
        <pt x="119" y="614" on="0"/>
        <pt x="117" y="648" on="0"/>
        <pt x="116" y="657" on="1"/>
        <pt x="93" y="665" on="0"/>
        <pt x="44" y="715" on="0"/>
        <pt x="32" y="744" on="1"/>
        <pt x="96" y="737" on="0"/>
        <pt x="211" y="732" on="0"/>
        <pt x="262" y="732" on="1"/>
        <pt x="373" y="732" on="0"/>
        <pt x="515" y="746" on="0"/>
        <pt x="554" y="746" on="1"/>
        <pt x="562" y="746" on="0"/>
        <pt x="574" y="745" on="0"/>
        <pt x="579" y="744" on="1"/>
        <pt x="575" y="735" on="0"/>
        <pt x="566" y="692" on="0"/>
        <pt x="556" y="639" on="0"/>
        <pt x="548" y="580" on="0"/>
        <pt x="541" y="529" on="0"/>
        <pt x="537" y="491" on="0"/>
      </contour>
      <contour>
        <pt x="249" y="-156" on="1"/>
        <pt x="268" y="-146" on="0"/>
        <pt x="292" y="-116" on="0"/>
        <pt x="303" y="-87" on="1"/>
        <pt x="341" y="-87" on="0"/>
        <pt x="397" y="-129" on="0"/>
        <pt x="400" y="-161" on="1"/>
        <pt x="369" y="-218" on="0"/>
        <pt x="297" y="-277" on="0"/>
        <pt x="249" y="-283" on="1"/>
        <pt x="260" y="-270" on="0"/>
        <pt x="274" y="-234" on="0"/>
        <pt x="274" y="-216" on="1"/>
        <pt x="274" y="-178" on="0"/>
      </contour>
    </TTGlyph>
    <TTGlyph name="Gdotaccent" xMin="32" yMin="-73" xMax="617" yMax="945">
      <contour>
        <pt x="537" y="486" on="1"/>
        <pt x="517" y="500" on="0"/>
        <pt x="490" y="529" on="0"/>
        <pt x="472" y="563" on="0"/>
        <pt x="460" y="603" on="0"/>
        <pt x="456" y="627" on="1"/>
        <pt x="442" y="638" on="0"/>
        <pt x="380" y="644" on="0"/>
        <pt x="348" y="644" on="1"/>
        <pt x="322" y="644" on="0"/>
        <pt x="284" y="642" on="0"/>
        <pt x="270" y="642" on="1"/>
        <pt x="261" y="617" on="0"/>
        <pt x="255" y="496" on="0"/>
        <pt x="255" y="418" on="1"/>
        <pt x="255" y="376" on="0"/>
        <pt x="256" y="288" on="0"/>
        <pt x="257" y="202" on="0"/>
        <pt x="258" y="121" on="0"/>
        <pt x="258" y="86" on="1"/>
        <pt x="288" y="79" on="0"/>
        <pt x="326" y="68" on="0"/>
        <pt x="362" y="61" on="0"/>
        <pt x="408" y="56" on="0"/>
        <pt x="446" y="54" on="1"/>
        <pt x="448" y="62" on="0"/>
        <pt x="449" y="115" on="0"/>
        <pt x="449" y="150" on="1"/>
        <pt x="449" y="189" on="0"/>
        <pt x="448" y="241" on="0"/>
        <pt x="446" y="267" on="1"/>
        <pt x="433" y="267" on="0"/>
        <pt x="416" y="272" on="0"/>
        <pt x="393" y="278" on="0"/>
        <pt x="356" y="284" on="0"/>
        <pt x="325" y="286" on="1"/>
        <pt x="329" y="293" on="0"/>
        <pt x="341" y="316" on="0"/>
        <pt x="353" y="342" on="0"/>
        <pt x="362" y="365" on="0"/>
        <pt x="364" y="373" on="1"/>
        <pt x="402" y="365" on="0"/>
        <pt x="475" y="357" on="0"/>
        <pt x="508" y="357" on="1"/>
        <pt x="542" y="357" on="0"/>
        <pt x="598" y="366" on="0"/>
        <pt x="617" y="377" on="1"/>
        <pt x="614" y="369" on="0"/>
        <pt x="599" y="340" on="0"/>
        <pt x="583" y="307" on="0"/>
        <pt x="571" y="275" on="0"/>
        <pt x="571" y="263" on="1"/>
        <pt x="574" y="221" on="0"/>
        <pt x="578" y="143" on="0"/>
        <pt x="583" y="80" on="0"/>
        <pt x="587" y="38" on="0"/>
        <pt x="590" y="32" on="1"/>
        <pt x="543" y="21" on="0"/>
        <pt x="459" y="-26" on="0"/>
        <pt x="403" y="-73" on="1"/>
        <pt x="359" y="-46" on="0"/>
        <pt x="259" y="-8" on="0"/>
        <pt x="162" y="21" on="0"/>
        <pt x="73" y="43" on="0"/>
        <pt x="40" y="54" on="1"/>
        <pt x="56" y="58" on="0"/>
        <pt x="79" y="89" on="0"/>
        <pt x="94" y="135" on="0"/>
        <pt x="102" y="192" on="0"/>
        <pt x="102" y="221" on="1"/>
        <pt x="102" y="266" on="0"/>
        <pt x="83" y="348" on="0"/>
        <pt x="66" y="369" on="1"/>
        <pt x="82" y="385" on="0"/>
        <pt x="103" y="438" on="0"/>
        <pt x="115" y="499" on="0"/>
        <pt x="119" y="563" on="0"/>
        <pt x="119" y="591" on="1"/>
        <pt x="119" y="614" on="0"/>
        <pt x="117" y="648" on="0"/>
        <pt x="116" y="657" on="1"/>
        <pt x="93" y="665" on="0"/>
        <pt x="44" y="715" on="0"/>
        <pt x="32" y="744" on="1"/>
        <pt x="96" y="737" on="0"/>
        <pt x="211" y="732" on="0"/>
        <pt x="262" y="732" on="1"/>
        <pt x="373" y="732" on="0"/>
        <pt x="515" y="746" on="0"/>
        <pt x="554" y="746" on="1"/>
        <pt x="562" y="746" on="0"/>
        <pt x="574" y="745" on="0"/>
        <pt x="579" y="744" on="1"/>
        <pt x="575" y="735" on="0"/>
        <pt x="566" y="692" on="0"/>
        <pt x="556" y="639" on="0"/>
        <pt x="548" y="580" on="0"/>
        <pt x="541" y="529" on="0"/>
        <pt x="537" y="491" on="0"/>
      </contour>
      <contour>
        <pt x="243" y="854" on="1"/>
        <pt x="259" y="880" on="0"/>
        <pt x="302" y="931" on="0"/>
        <pt x="329" y="945" on="1"/>
        <pt x="335" y="938" on="0"/>
        <pt x="357" y="919" on="0"/>
        <pt x="383" y="899" on="0"/>
        <pt x="407" y="882" on="0"/>
        <pt x="413" y="878" on="1"/>
        <pt x="383" y="856" on="0"/>
        <pt x="340" y="816" on="0"/>
        <pt x="325" y="786" on="1"/>
        <pt x="320" y="793" on="0"/>
        <pt x="298" y="812" on="0"/>
        <pt x="273" y="832" on="0"/>
        <pt x="250" y="849" on="0"/>
      </contour>
    </TTGlyph>
    <TTGlyph name="H" xMin="18" yMin="-68" xMax="713" yMax="740">
      <contour>
        <pt x="305" y="739" on="1"/>
        <pt x="290" y="725" on="0"/>
        <pt x="269" y="678" on="0"/>
        <pt x="256" y="623" on="0"/>
        <pt x="250" y="564" on="0"/>
        <pt x="250" y="537" on="1"/>
        <pt x="250" y="410" on="1"/>
        <pt x="283" y="406" on="0"/>
        <pt x="355" y="405" on="0"/>
        <pt x="393" y="405" on="1"/>
        <pt x="420" y="405" on="0"/>
        <pt x="466" y="407" on="0"/>
        <pt x="495" y="409" on="1"/>
        <pt x="495" y="553" on="1"/>
        <pt x="495" y="602" on="0"/>
        <pt x="481" y="681" on="0"/>
        <pt x="461" y="729" on="1"/>
        <pt x="497" y="723" on="0"/>
        <pt x="536" y="723" on="1"/>
        <pt x="578" y="723" on="0"/>
        <pt x="667" y="733" on="0"/>
        <pt x="713" y="739" on="1"/>
        <pt x="686" y="723" on="0"/>
        <pt x="656" y="672" on="0"/>
        <pt x="641" y="612" on="0"/>
        <pt x="638" y="550" on="0"/>
        <pt x="638" y="523" on="1"/>
        <pt x="638" y="500" on="0"/>
        <pt x="642" y="455" on="0"/>
        <pt x="653" y="414" on="0"/>
        <pt x="672" y="380" on="0"/>
        <pt x="687" y="369" on="1"/>
        <pt x="669" y="337" on="0"/>
        <pt x="640" y="241" on="0"/>
        <pt x="640" y="193" on="1"/>
        <pt x="640" y="167" on="0"/>
        <pt x="643" y="118" on="0"/>
        <pt x="654" y="75" on="0"/>
        <pt x="675" y="40" on="0"/>
        <pt x="692" y="29" on="1"/>
        <pt x="645" y="12" on="0"/>
        <pt x="597" y="-42" on="0"/>
        <pt x="581" y="-68" on="1"/>
        <pt x="576" y="-55" on="0"/>
        <pt x="552" y="-26" on="0"/>
        <pt x="520" y="0" on="0"/>
        <pt x="481" y="22" on="0"/>
        <pt x="460" y="29" on="1"/>
        <pt x="473" y="43" on="0"/>
        <pt x="487" y="88" on="0"/>
        <pt x="494" y="144" on="0"/>
        <pt x="495" y="208" on="0"/>
        <pt x="495" y="241" on="1"/>
        <pt x="495" y="283" on="1"/>
        <pt x="466" y="286" on="0"/>
        <pt x="423" y="289" on="0"/>
        <pt x="399" y="289" on="1"/>
        <pt x="354" y="289" on="0"/>
        <pt x="283" y="285" on="0"/>
        <pt x="252" y="281" on="1"/>
        <pt x="252" y="228" on="1"/>
        <pt x="252" y="164" on="0"/>
        <pt x="276" y="49" on="0"/>
        <pt x="315" y="-6" on="1"/>
        <pt x="270" y="1" on="0"/>
        <pt x="199" y="6" on="0"/>
        <pt x="172" y="6" on="1"/>
        <pt x="127" y="6" on="0"/>
        <pt x="61" y="0" on="0"/>
        <pt x="28" y="-5" on="1"/>
        <pt x="49" y="8" on="0"/>
        <pt x="85" y="50" on="0"/>
        <pt x="111" y="102" on="0"/>
        <pt x="126" y="160" on="0"/>
        <pt x="126" y="189" on="1"/>
        <pt x="126" y="240" on="0"/>
        <pt x="102" y="337" on="0"/>
        <pt x="76" y="369" on="1"/>
        <pt x="104" y="421" on="0"/>
        <pt x="125" y="507" on="0"/>
        <pt x="125" y="553" on="1"/>
        <pt x="125" y="581" on="0"/>
        <pt x="122" y="613" on="1"/>
        <pt x="86" y="622" on="0"/>
        <pt x="25" y="682" on="0"/>
        <pt x="18" y="740" on="1"/>
        <pt x="60" y="731" on="0"/>
        <pt x="132" y="723" on="0"/>
        <pt x="164" y="723" on="1"/>
        <pt x="202" y="723" on="0"/>
        <pt x="269" y="734" on="0"/>
      </contour>
    </TTGlyph>
</ttFont>
